<svg width="23" height="23" viewBox="0 0 23 23" fill="none" xmlns="http://www.w3.org/2000/svg">
<path d="M16 13L16.5 8.5H20L21 9.5V17L20.5 18L18 18.5L17.5 20.5H16.5L14 18H10L9 17.5V15L10 14H15L16 13Z" fill="#D2E8EA"/>
<path d="M2 13V3.5L3 2.5H15L16.5 3.5V8.5V12.5L15.5 14H10L9 15H8.5L6.5 17L6 16L5.5 14.5L5 14H3.5L2 13Z" fill="#BDDCE0"/>
<path d="M17.1714 20.9784C16.9908 20.9778 16.8121 20.9413 16.6457 20.8711C16.4793 20.8008 16.3285 20.6982 16.2021 20.5692L14.4478 18.8102C14.4044 18.765 14.3523 18.729 14.2947 18.7043C14.2371 18.6796 14.1751 18.6667 14.1124 18.6665H10.3021C9.85729 18.6665 9.43072 18.4898 9.11621 18.1753C8.80169 17.8607 8.625 17.4342 8.625 16.9894V14.6003C8.625 14.4732 8.67548 14.3513 8.76534 14.2614C8.85521 14.1716 8.97708 14.1211 9.10417 14.1211C9.23125 14.1211 9.35313 14.1716 9.44299 14.2614C9.53285 14.3513 9.58333 14.4732 9.58333 14.6003V16.9913C9.58333 17.1819 9.65906 17.3647 9.79385 17.4995C9.92864 17.6343 10.1115 17.71 10.3021 17.71H14.1115C14.3013 17.71 14.4892 17.7479 14.6642 17.8213C14.8392 17.8948 14.9977 18.0024 15.1306 18.1379L16.8801 19.8922C16.939 19.9513 17.0141 19.9916 17.096 20.0079C17.1778 20.0241 17.2627 20.0157 17.3397 19.9837C17.4168 19.9516 17.4825 19.8974 17.5287 19.8278C17.5748 19.7583 17.5992 19.6766 17.5988 19.5932L17.5892 18.678C17.5886 18.5515 17.6129 18.4261 17.6607 18.309C17.7085 18.1919 17.779 18.0854 17.868 17.9955C17.9569 17.9056 18.0628 17.8342 18.1794 17.7852C18.296 17.7362 18.4211 17.7107 18.5476 17.71H19.8854C20.076 17.71 20.2589 17.6343 20.3937 17.4995C20.5284 17.3647 20.6042 17.1819 20.6042 16.9913V9.80379C20.6042 9.61317 20.5284 9.43035 20.3937 9.29556C20.2589 9.16077 20.076 9.08504 19.8854 9.08504H16.2917C16.1646 9.08504 16.0427 9.03456 15.9528 8.9447C15.863 8.85484 15.8125 8.73296 15.8125 8.60588C15.8125 8.47879 15.863 8.35692 15.9528 8.26705C16.0427 8.17719 16.1646 8.12671 16.2917 8.12671H19.8854C20.3302 8.12671 20.7568 8.3034 21.0713 8.61792C21.3858 8.93243 21.5625 9.359 21.5625 9.80379V16.9913C21.5625 17.4361 21.3858 17.8627 21.0713 18.1772C20.7568 18.4917 20.3302 18.6684 19.8854 18.6684H18.5485L18.5581 19.5884C18.562 19.863 18.4828 20.1325 18.3308 20.3613C18.1789 20.5901 17.9613 20.7677 17.7066 20.8706C17.5371 20.9415 17.3552 20.9781 17.1714 20.9784Z" fill="#003EEE"/>
<path d="M9.10417 5.98962C9.50113 5.98962 9.82292 5.66783 9.82292 5.27087C9.82292 4.87392 9.50113 4.55212 9.10417 4.55212C8.70722 4.55212 8.38542 4.87392 8.38542 5.27087C8.38542 5.66783 8.70722 5.98962 9.10417 5.98962Z" fill="#003EEE"/>
<path d="M6.6125 17.146C6.40348 17.1453 6.19666 17.1033 6.00396 17.0224C5.71688 16.9063 5.47167 16.706 5.30061 16.4479C5.12955 16.1897 5.04066 15.8859 5.04562 15.5762L5.0509 14.6179C5.0509 14.5544 5.02565 14.4934 4.98072 14.4485C4.93579 14.4036 4.87485 14.3783 4.81131 14.3783H3.35417C2.84584 14.3783 2.35832 14.1764 1.99888 13.8169C1.63943 13.4575 1.4375 12.97 1.4375 12.4616V3.83329C1.4375 3.32496 1.63943 2.83745 1.99888 2.478C2.35832 2.11856 2.84584 1.91663 3.35417 1.91663H14.8542C15.3625 1.91663 15.85 2.11856 16.2095 2.478C16.5689 2.83745 16.7708 3.32496 16.7708 3.83329V12.4583C16.7708 12.9666 16.5689 13.4541 16.2095 13.8136C15.85 14.173 15.3625 14.375 14.8542 14.375H10.1056C10.0422 14.375 9.98138 14.4001 9.93648 14.4449L7.70596 16.6836C7.56358 16.8295 7.39355 16.9455 7.2058 17.0249C7.01805 17.1043 6.81635 17.1455 6.6125 17.146ZM3.35417 2.87496C3.1 2.87496 2.85625 2.97593 2.67652 3.15565C2.4968 3.33537 2.39583 3.57913 2.39583 3.83329V12.4583C2.39583 12.7125 2.4968 12.9562 2.67652 13.1359C2.85625 13.3157 3.1 13.4166 3.35417 13.4166H4.81131C4.96919 13.4166 5.12551 13.4478 5.27129 13.5084C5.41707 13.5691 5.54942 13.6579 5.66075 13.7699C5.77207 13.8818 5.86017 14.0147 5.91998 14.1608C5.97978 14.3069 6.01011 14.4634 6.00923 14.6213L6.00396 15.5796C6.00336 15.6984 6.0381 15.8146 6.10376 15.9136C6.16941 16.0126 6.26301 16.0899 6.37267 16.1355C6.48233 16.1812 6.60308 16.1932 6.71959 16.1701C6.8361 16.1469 6.94309 16.0897 7.02698 16.0056L9.25702 13.7669C9.48277 13.543 9.78768 13.4172 10.1056 13.4166H14.8542C15.1083 13.4166 15.3521 13.3157 15.5318 13.1359C15.7115 12.9562 15.8125 12.7125 15.8125 12.4583V3.83329C15.8125 3.57913 15.7115 3.33537 15.5318 3.15565C15.3521 2.97593 15.1083 2.87496 14.8542 2.87496H3.35417Z" fill="#003EEE"/>
<path d="M9.10416 11.5C8.97708 11.5 8.8552 11.4496 8.76534 11.3597C8.67548 11.2698 8.62499 11.148 8.62499 11.0209V7.66671C8.49791 7.66671 8.37603 7.61622 8.28617 7.52636C8.19631 7.4365 8.14583 7.31462 8.14583 7.18754C8.14583 7.06046 8.19631 6.93858 8.28617 6.84872C8.37603 6.75886 8.49791 6.70837 8.62499 6.70837H9.10416C9.23124 6.70837 9.35312 6.75886 9.44298 6.84872C9.53285 6.93858 9.58333 7.06046 9.58333 7.18754V11.0209C9.58333 11.148 9.53285 11.2698 9.44298 11.3597C9.35312 11.4496 9.23124 11.5 9.10416 11.5Z" fill="#003EEE"/>
<path d="M9.82292 11.5001H8.38542C8.25833 11.5001 8.13646 11.4496 8.04659 11.3597C7.95673 11.2699 7.90625 11.148 7.90625 11.0209C7.90625 10.8938 7.95673 10.772 8.04659 10.6821C8.13646 10.5922 8.25833 10.5417 8.38542 10.5417H9.82292C9.95 10.5417 10.0719 10.5922 10.1617 10.6821C10.2516 10.772 10.3021 10.8938 10.3021 11.0209C10.3021 11.148 10.2516 11.2699 10.1617 11.3597C10.0719 11.4496 9.95 11.5001 9.82292 11.5001Z" fill="#003EEE"/>
</svg>
