<svg width="15" height="15" viewBox="0 0 15 15" fill="none" xmlns="http://www.w3.org/2000/svg">
<g clip-path="url(#clip0_2597_2819)">
<path d="M6.5 2L4.5 1H3L1 3.5V7.5L4 12L9.5 14.5L13 13.5L14.5 11L13 9H11.5L10 11H8L6 9.74544L3.5 7L4.5 5.5L6.5 4V2Z" fill="#BDDCE0"/>
<path d="M5.70815 12.0117C2.70364 9.27937 0.840202 4.74664 4.21602 2.19963C4.46554 1.9903 4.76116 1.86901 5.06378 1.8338L4.60466 1.3739C4.01737 0.785612 3.08048 0.749205 2.44376 1.28339C2.25987 1.43766 2.37967 1.28444 2.2078 1.45913C-2.73241 6.2736 4.69113 15.0675 10.3738 14.3712C8.77403 14.0614 7.1681 13.3641 5.70815 12.0117Z" fill="#D2E8EA"/>
<path d="M3.86246 0.0546875C4.39852 0.0766383 4.90322 0.297922 5.28238 0.677734C5.28457 0.679931 5.28692 0.682197 5.28922 0.68457L6.28043 1.71484L6.2814 1.71582C7.32771 2.74023 6.95609 4.58861 5.59195 5.12305H5.59097C5.26517 5.25595 5.02598 5.3784 4.89371 5.45508L4.798 5.51465L4.79117 5.52051C4.51148 5.8055 4.27802 6.18639 4.38199 6.75879C4.48486 7.32509 4.91708 8.07137 5.93961 9.0957H5.94058C6.40261 9.54508 6.99631 10.1151 7.62027 10.4248C7.93294 10.58 8.2568 10.6722 8.57828 10.6484C8.90099 10.6246 9.21628 10.4846 9.51089 10.1855L9.47574 10.1504L9.51187 10.1855L9.51675 10.1787C9.5601 10.1151 9.70213 9.87185 9.88394 9.41895C10.1466 8.76519 10.715 8.29116 11.4044 8.15039C12.0912 8.01031 12.7965 8.222 13.2931 8.7168L13.2941 8.71777L14.3117 9.70215H14.3127C14.3147 9.70416 14.3163 9.7068 14.3185 9.70898C14.6961 10.0872 14.9169 10.5897 14.9406 11.124C14.9641 11.6581 14.7888 12.1784 14.4464 12.5889C14.2921 12.7739 14.1272 12.9547 13.9562 13.126C12.7529 14.3313 11.2977 14.9501 9.69644 14.9502C9.30721 14.9502 8.90857 14.9135 8.50308 14.8398H8.50406C5.59862 14.2899 2.61978 11.893 1.09488 9.04199C0.332978 7.6174 -0.0641808 6.08302 0.0899963 4.6123C0.244071 3.14286 0.948299 1.73288 2.39664 0.555664H2.39761C2.80844 0.210987 3.32887 0.0326629 3.86246 0.0546875ZM3.77554 1.12305C3.53243 1.12305 3.28782 1.20679 3.08609 1.37598C3.00034 1.44792 2.91607 1.523 2.83316 1.59961L2.59 1.83496C1.53726 2.88932 1.10489 4.11417 1.12222 5.37012C1.13961 6.62458 1.60573 7.90791 2.3439 9.08301C3.81925 11.4314 6.39233 13.3635 8.69449 13.7852C10.4288 14.0998 11.9457 13.623 13.1974 12.3691C13.3461 12.2202 13.4891 12.063 13.6232 11.9023C13.9777 11.4774 13.952 10.8624 13.5636 10.4697L13.5627 10.4688L12.5451 9.48438C12.543 9.48236 12.5414 9.47972 12.5392 9.47754C12.2942 9.23215 11.9578 9.13083 11.6183 9.2002C11.2781 9.26972 11.0078 9.49541 10.8781 9.81836C10.8374 9.91981 10.7461 10.1409 10.6359 10.3652C10.5524 10.5352 10.4601 10.703 10.3722 10.8232L10.2863 10.9258C9.86125 11.3562 9.41634 11.5918 8.96793 11.6826C8.51913 11.7735 8.06271 11.7201 7.61539 11.5684C6.7195 11.2643 5.86409 10.566 5.18277 9.85352L5.18082 9.85156L4.92984 9.60254C4.34442 8.9992 3.76381 8.24301 3.47476 7.44824C3.30982 6.99452 3.24 6.52927 3.31754 6.07422C3.38533 5.67676 3.56616 5.28399 3.89664 4.90918L4.048 4.74902C4.16478 4.63208 4.3939 4.49872 4.62613 4.38281C4.85638 4.2679 5.0829 4.17318 5.18668 4.13086C5.50515 4.00085 5.72761 3.73114 5.79605 3.39258C5.86487 3.05153 5.76311 2.71456 5.51773 2.46875C5.51548 2.4665 5.51325 2.46338 5.51089 2.46094L4.52066 1.43262V1.43164H4.51968C4.31369 1.22709 4.04566 1.12307 3.77554 1.12305Z" fill="#003EEE" stroke="#F9EFFF" stroke-width="0.1"/>
</g>
<defs>
<clipPath id="clip0_2597_2819">
<rect width="15" height="15" fill="white"/>
</clipPath>
</defs>
</svg>
