<svg width="23" height="23" viewBox="0 0 23 23" fill="none" xmlns="http://www.w3.org/2000/svg">
<path d="M2 4.53467C2 2.13972 3.33333 1.87361 4 2.03993L13.5 2.03995L18 7.02944V8.02734V14.0147H14L13.5 14.5137V21H4.5C2.9 21 2.16667 20.0021 2 19.5032V4.53467Z" fill="#BDDCE0"/>
<path d="M16.2917 21.5625H3.83333C3.19815 21.5617 2.5892 21.3091 2.14006 20.8599C1.69092 20.4108 1.43826 19.8018 1.4375 19.1667V3.83333C1.43826 3.19815 1.69092 2.5892 2.14006 2.14006C2.5892 1.69092 3.19815 1.43826 3.83333 1.4375H12.5685C12.9021 1.43834 13.2319 1.50836 13.5371 1.64312C13.8422 1.77789 14.1161 1.97447 14.3415 2.22046L18.0646 6.31925C18.467 6.75907 18.6893 7.33409 18.6875 7.93021V12.4583C18.6875 12.5854 18.637 12.7073 18.5472 12.7972C18.4573 12.887 18.3354 12.9375 18.2083 12.9375C18.0813 12.9375 17.9594 12.887 17.8695 12.7972C17.7796 12.7073 17.7292 12.5854 17.7292 12.4583V7.93021C17.7308 7.57325 17.598 7.22876 17.3573 6.96517L13.6323 2.86637C13.4971 2.71871 13.3328 2.60067 13.1497 2.51968C12.9666 2.43869 12.7687 2.39652 12.5685 2.39583H3.83333C3.45208 2.39583 3.08645 2.54728 2.81687 2.81687C2.54728 3.08645 2.39583 3.45208 2.39583 3.83333V19.1667C2.39583 19.5479 2.54728 19.9135 2.81687 20.1831C3.08645 20.4527 3.45208 20.6042 3.83333 20.6042H16.2917C16.4187 20.6042 16.5406 20.6546 16.6305 20.7445C16.7204 20.8344 16.7708 20.9562 16.7708 21.0833C16.7708 21.2104 16.7204 21.3323 16.6305 21.4222C16.5406 21.512 16.4187 21.5625 16.2917 21.5625Z" fill="#003EEE"/>
<path d="M13 19V16C13 14.8954 13.8954 14 15 14H19C20.1046 14 21 14.8954 21 16V19C21 20.1046 20.1046 21 19 21H15C13.8954 21 13 20.1046 13 19Z" fill="#D2E8EA"/>
<path d="M16.2917 8.14588H14.375C13.9938 8.14588 13.6281 7.99443 13.3585 7.72484C13.089 7.45526 12.9375 7.08963 12.9375 6.70838V2.11796C12.9375 1.99088 12.988 1.869 13.0778 1.77914C13.1677 1.68928 13.2896 1.63879 13.4167 1.63879C13.5437 1.63879 13.6656 1.68928 13.7555 1.77914C13.8454 1.869 13.8958 1.99088 13.8958 2.11796V6.70838C13.8958 6.83546 13.9463 6.95734 14.0362 7.0472C14.126 7.13706 14.2479 7.18754 14.375 7.18754H16.2917C16.4187 7.18754 16.5406 7.23803 16.6305 7.32789C16.7204 7.41775 16.7708 7.53963 16.7708 7.66671C16.7708 7.79379 16.7204 7.91567 16.6305 8.00553C16.5406 8.09539 16.4187 8.14588 16.2917 8.14588Z" fill="#003EEE"/>
<path d="M20.125 21.5625H14.375C13.9938 21.5625 13.6281 21.411 13.3585 21.1414C13.089 20.8718 12.9375 20.5062 12.9375 20.125V14.8541C12.9375 14.4729 13.089 14.1072 13.3585 13.8377C13.6281 13.5681 13.9938 13.4166 14.375 13.4166H20.125C20.5062 13.4166 20.8719 13.5681 21.1415 13.8377C21.411 14.1072 21.5625 14.4729 21.5625 14.8541V20.125C21.5625 20.5062 21.411 20.8718 21.1415 21.1414C20.8719 21.411 20.5062 21.5625 20.125 21.5625ZM14.375 14.375C14.2479 14.375 14.126 14.4254 14.0362 14.5153C13.9463 14.6052 13.8958 14.727 13.8958 14.8541V20.125C13.8958 20.252 13.9463 20.3739 14.0362 20.4638C14.126 20.5536 14.2479 20.6041 14.375 20.6041H20.125C20.2521 20.6041 20.374 20.5536 20.4638 20.4638C20.5537 20.3739 20.6042 20.252 20.6042 20.125V14.8541C20.6042 14.727 20.5537 14.6052 20.4638 14.5153C20.374 14.4254 20.2521 14.375 20.125 14.375H14.375Z" fill="#003EEE"/>
<path d="M18.6875 17.7291C18.5929 17.7291 18.5003 17.7011 18.4216 17.6486L17.25 16.8666L16.0784 17.6477C16.0063 17.6958 15.9226 17.7234 15.836 17.7277C15.7494 17.7319 15.6633 17.7126 15.5869 17.6718C15.5104 17.631 15.4465 17.5702 15.4018 17.4959C15.3572 17.4216 15.3335 17.3366 15.3333 17.25V13.8958C15.3333 13.7687 15.3838 13.6468 15.4737 13.557C15.5635 13.4671 15.6854 13.4166 15.8125 13.4166H18.6875C18.8146 13.4166 18.9365 13.4671 19.0263 13.557C19.1162 13.6468 19.1667 13.7687 19.1667 13.8958V17.25C19.1667 17.377 19.1162 17.4989 19.0263 17.5888C18.9365 17.6786 18.8146 17.7291 18.6875 17.7291ZM17.25 15.8125C17.3447 15.8124 17.4372 15.8404 17.5159 15.893L18.2083 16.3544V14.375H16.2917V16.3544L16.9841 15.893C17.0628 15.8404 17.1554 15.8124 17.25 15.8125Z" fill="#003EEE"/>
<path d="M4.5 12.5V10.5H7V12.5H4.5Z" fill="#D2E8EA"/>
<path d="M4.5 8V6H7V8H4.5Z" fill="#D2E8EA"/>
<path d="M4.5 17V15H7V17H4.5Z" fill="#D2E8EA"/>
<path d="M6.46875 8.38542H5.03125C4.77709 8.38542 4.53333 8.28445 4.35361 8.10473C4.17389 7.925 4.07292 7.68125 4.07292 7.42708V5.98958C4.07292 5.73542 4.17389 5.49166 4.35361 5.31194C4.53333 5.13222 4.77709 5.03125 5.03125 5.03125H6.46875C6.72292 5.03125 6.96667 5.13222 7.1464 5.31194C7.32612 5.49166 7.42708 5.73542 7.42708 5.98958V7.42708C7.42708 7.68125 7.32612 7.925 7.1464 8.10473C6.96667 8.28445 6.72292 8.38542 6.46875 8.38542ZM5.03125 5.98958V7.42708H6.46875V5.98958H5.03125Z" fill="#003EEE"/>
<path d="M6.46875 13.177H5.03125C4.77709 13.177 4.53333 13.0761 4.35361 12.8964C4.17389 12.7166 4.07292 12.4729 4.07292 12.2187V10.7812C4.07292 10.527 4.17389 10.2833 4.35361 10.1036C4.53333 9.92384 4.77709 9.82288 5.03125 9.82288H6.46875C6.72292 9.82288 6.96667 9.92384 7.1464 10.1036C7.32612 10.2833 7.42708 10.527 7.42708 10.7812V12.2187C7.42708 12.4729 7.32612 12.7166 7.1464 12.8964C6.96667 13.0761 6.72292 13.177 6.46875 13.177ZM5.03125 10.7812V12.2187H6.46875V10.7812H5.03125Z" fill="#003EEE"/>
<path d="M11.9792 12.9375H8.625C8.49792 12.9375 8.37604 12.887 8.28618 12.7971C8.19632 12.7073 8.14584 12.5854 8.14584 12.4583C8.14584 12.3312 8.19632 12.2093 8.28618 12.1195C8.37604 12.0296 8.49792 11.9791 8.625 11.9791H11.9792C12.1063 11.9791 12.2281 12.0296 12.318 12.1195C12.4079 12.2093 12.4583 12.3312 12.4583 12.4583C12.4583 12.5854 12.4079 12.7073 12.318 12.7971C12.2281 12.887 12.1063 12.9375 11.9792 12.9375Z" fill="#003EEE"/>
<path d="M11.0208 11.0208H8.625C8.49792 11.0208 8.37604 10.9704 8.28618 10.8805C8.19632 10.7906 8.14584 10.6687 8.14584 10.5417C8.14584 10.4146 8.19632 10.2927 8.28618 10.2028C8.37604 10.113 8.49792 10.0625 8.625 10.0625H11.0208C11.1479 10.0625 11.2698 10.113 11.3597 10.2028C11.4495 10.2927 11.5 10.4146 11.5 10.5417C11.5 10.6687 11.4495 10.7906 11.3597 10.8805C11.2698 10.9704 11.1479 11.0208 11.0208 11.0208Z" fill="#003EEE"/>
<path d="M6.46875 17.9688H5.03125C4.77709 17.9688 4.53333 17.8678 4.35361 17.6881C4.17389 17.5084 4.07292 17.2646 4.07292 17.0105V15.573C4.07292 15.3188 4.17389 15.075 4.35361 14.8953C4.53333 14.7156 4.77709 14.6146 5.03125 14.6146H6.46875C6.72292 14.6146 6.96667 14.7156 7.1464 14.8953C7.32612 15.075 7.42708 15.3188 7.42708 15.573V17.0105C7.42708 17.2646 7.32612 17.5084 7.1464 17.6881C6.96667 17.8678 6.72292 17.9688 6.46875 17.9688ZM5.03125 15.573V17.0105H6.46875V15.573H5.03125Z" fill="#003EEE"/>
<path d="M11.9792 17.7292H8.625C8.49792 17.7292 8.37604 17.6787 8.28618 17.5889C8.19632 17.499 8.14584 17.3771 8.14584 17.25C8.14584 17.123 8.19632 17.0011 8.28618 16.9112C8.37604 16.8214 8.49792 16.7709 8.625 16.7709H11.9792C12.1063 16.7709 12.2281 16.8214 12.318 16.9112C12.4079 17.0011 12.4583 17.123 12.4583 17.25C12.4583 17.3771 12.4079 17.499 12.318 17.5889C12.2281 17.6787 12.1063 17.7292 11.9792 17.7292Z" fill="#003EEE"/>
<path d="M11.0208 15.8125H8.625C8.49792 15.8125 8.37604 15.762 8.28618 15.6721C8.19632 15.5823 8.14584 15.4604 8.14584 15.3333C8.14584 15.2062 8.19632 15.0843 8.28618 14.9945C8.37604 14.9046 8.49792 14.8541 8.625 14.8541H11.0208C11.1479 14.8541 11.2698 14.9046 11.3597 14.9945C11.4495 15.0843 11.5 15.2062 11.5 15.3333C11.5 15.4604 11.4495 15.5823 11.3597 15.6721C11.2698 15.762 11.1479 15.8125 11.0208 15.8125Z" fill="#003EEE"/>
<path d="M11.9792 8.14583H8.625C8.49792 8.14583 8.37604 8.09535 8.28618 8.00549C8.19632 7.91563 8.14584 7.79375 8.14584 7.66667C8.14584 7.53958 8.19632 7.41771 8.28618 7.32784C8.37604 7.23798 8.49792 7.1875 8.625 7.1875H11.9792C12.1063 7.1875 12.2281 7.23798 12.318 7.32784C12.4079 7.41771 12.4583 7.53958 12.4583 7.66667C12.4583 7.79375 12.4079 7.91563 12.318 8.00549C12.2281 8.09535 12.1063 8.14583 11.9792 8.14583Z" fill="#003EEE"/>
<path d="M11.0208 6.22921H8.625C8.49792 6.22921 8.37604 6.17872 8.28618 6.08886C8.19632 5.999 8.14584 5.87712 8.14584 5.75004C8.14584 5.62296 8.19632 5.50108 8.28618 5.41122C8.37604 5.32136 8.49792 5.27087 8.625 5.27087H11.0208C11.1479 5.27087 11.2698 5.32136 11.3597 5.41122C11.4495 5.50108 11.5 5.62296 11.5 5.75004C11.5 5.87712 11.4495 5.999 11.3597 6.08886C11.2698 6.17872 11.1479 6.22921 11.0208 6.22921Z" fill="#003EEE"/>
</svg>
