<svg width="22" height="22" viewBox="0 0 22 22" fill="none" xmlns="http://www.w3.org/2000/svg">
<path d="M19.7387 16.9466C21.1578 14.7191 20.8298 11.7443 18.9588 9.87336C17.6003 8.51482 15.6452 7.93865 13.7778 8.32468C13.7234 9.9703 13.0702 11.5994 11.8174 12.8525C11.8171 12.8528 11.8174 12.8525 11.8173 12.8526C11.0978 13.5725 10.2238 14.1164 9.2724 14.4481C9.3983 15.7589 9.97227 16.98 10.9123 17.92C12.783 19.7907 15.7578 20.1191 17.9857 18.701C18.0942 18.6319 18.2246 18.6059 18.3513 18.628L19.9448 18.9062L19.6658 17.3126C19.6436 17.1858 19.6696 17.0552 19.7388 16.9467L19.7387 16.9466Z" fill="#D2E8EA"/>
<path d="M11.088 4.07677C8.86909 1.85902 5.25937 1.85898 3.04145 4.07685C1.17089 5.94741 0.842484 8.92278 2.2605 11.1516C2.3295 11.2601 2.3555 11.3904 2.33341 11.5171L2.05528 13.1097L3.64783 12.8315C3.6773 12.8264 3.707 12.8238 3.73652 12.8238C3.83397 12.8238 3.93005 12.8515 4.01328 12.9044C4.94093 13.4946 5.99809 13.7824 7.05061 13.7824C8.5277 13.7825 9.99607 13.216 11.0879 12.1235L11.088 12.1234C13.3059 9.90552 13.3059 6.2958 11.0879 4.07672L11.088 4.07677Z" fill="#BDDCE0"/>
<path d="M20.7152 17.3273C21.4483 16.0937 21.7692 14.6358 21.6202 13.1988C21.4619 11.6718 20.7756 10.2318 19.688 9.14413C18.123 7.57912 15.8879 6.89381 13.7325 7.28384C13.5578 5.84413 12.9195 4.4504 11.8171 3.34752C9.19596 0.727712 4.93208 0.727755 2.31219 3.3476C1.22461 4.43518 0.538355 5.8752 0.379844 7.40239C0.230656 8.83953 0.55116 10.2977 1.28391 11.5319L0.913129 13.6551C0.884254 13.8205 0.937707 13.9896 1.05647 14.1084C1.17524 14.2271 1.34432 14.2806 1.50979 14.2517L3.63296 13.881C4.66963 14.4964 5.86412 14.8212 7.07132 14.8212C7.30155 14.8212 7.53229 14.8093 7.76243 14.7855C7.93079 14.7681 8.09802 14.7438 8.26392 14.7137C8.44383 16.1993 9.11251 17.5786 10.1831 18.6492C11.2707 19.7368 12.7106 20.423 14.2377 20.5816C14.4682 20.6055 14.699 20.6173 14.9297 20.6173C16.1364 20.6173 17.3305 20.2926 18.3663 19.6775L20.4906 20.0483C20.656 20.0771 20.8252 20.0237 20.944 19.9049C21.0627 19.7861 21.1161 19.6169 21.0872 19.4514L20.7153 17.3273L20.7152 17.3273ZM7.05061 13.7824C5.99809 13.7823 4.94093 13.4945 4.01328 12.9044C3.93005 12.8514 3.83393 12.8238 3.73652 12.8238C3.70696 12.8238 3.67731 12.8263 3.64783 12.8315L2.05528 13.1096L2.33342 11.5171C2.35555 11.3904 2.32955 11.2601 2.2605 11.1516C0.842488 8.92276 1.17094 5.94738 3.04146 4.07683C5.25937 1.85895 8.86909 1.85899 11.088 4.07674C13.3059 6.29582 13.306 9.90554 11.088 12.1234C11.088 12.1234 11.088 12.1235 11.088 12.1235C9.99612 13.216 8.52775 13.7826 7.05066 13.7824L7.05061 13.7824ZM19.7387 16.9466C19.6695 17.0552 19.6435 17.1857 19.6657 17.3126L19.9447 18.9061L18.3512 18.628C18.2245 18.6059 18.0941 18.6319 17.9856 18.7009C15.7577 20.1191 12.7829 19.7906 10.9122 17.9199C9.97219 16.9799 9.39821 15.7589 9.27231 14.448C10.2237 14.1164 11.0977 13.5725 11.8172 12.8526C11.8173 12.8524 11.8171 12.8527 11.8173 12.8525C13.0701 11.5994 13.7233 9.97025 13.7777 8.32463C15.6451 7.9386 17.6002 8.51477 18.9588 9.87331C20.8297 11.7443 21.1577 14.719 19.7386 16.9466L19.7387 16.9466ZM17.0839 12.7401C17.0839 13.6271 16.5274 14.4346 15.6991 14.7495C15.5433 14.8086 15.4505 14.9429 15.4505 15.1092V15.3869C15.4505 15.6716 15.2197 15.9025 14.9349 15.9025C14.6502 15.9025 14.4193 15.6716 14.4193 15.3869V15.1092C14.4193 14.5153 14.778 13.9957 15.3333 13.7854C15.7633 13.6219 16.0527 13.2017 16.0527 12.7401C16.0527 12.1238 15.5513 11.6224 14.9349 11.6224C14.3186 11.6224 13.8172 12.1238 13.8172 12.7401C13.8172 13.0249 13.5863 13.2558 13.3015 13.2558C13.0168 13.2558 12.7859 13.0249 12.7859 12.7401C12.7859 11.5552 13.75 10.5911 14.9349 10.5911C16.1199 10.5911 17.0839 11.5552 17.0839 12.7401ZM15.4501 16.6865C15.4501 16.9703 15.2187 17.2018 14.9349 17.2018C14.6511 17.2018 14.4197 16.9703 14.4197 16.6865C14.4197 16.4027 14.6511 16.1701 14.9349 16.1701C15.2187 16.1701 15.4501 16.4015 15.4501 16.6865ZM10.6759 8.10072C10.6759 8.38547 10.4451 8.61635 10.1603 8.61635H3.98252C3.69776 8.61635 3.46689 8.38547 3.46689 8.10072C3.46689 7.81597 3.69776 7.5851 3.98252 7.5851H10.1603C10.4451 7.5851 10.6759 7.81597 10.6759 8.10072ZM10.6759 6.22496C10.6759 6.50972 10.4451 6.74059 10.1603 6.74059H3.96791C3.68315 6.74059 3.45228 6.50972 3.45228 6.22496C3.45228 5.94021 3.68315 5.70934 3.96791 5.70934H10.1603C10.4451 5.70934 10.6759 5.94021 10.6759 6.22496ZM10.6759 9.97643C10.6759 10.2612 10.4451 10.4921 10.1603 10.4921H9.60489C9.32014 10.4921 9.08927 10.2612 9.08927 9.97643C9.08927 9.69168 9.32014 9.46081 9.60489 9.46081H10.1603C10.4451 9.46081 10.6759 9.69168 10.6759 9.97643ZM8.10348 9.97643C8.10348 10.2612 7.87261 10.4921 7.58785 10.4921H3.98252C3.69776 10.4921 3.46689 10.2612 3.46689 9.97643C3.46689 9.69168 3.69776 9.46081 3.98252 9.46081H7.58785C7.87261 9.46081 8.10348 9.69168 8.10348 9.97643Z" fill="#2E58FF"/>
</svg>
