<svg width="22" height="24" viewBox="0 0 22 24" fill="none" xmlns="http://www.w3.org/2000/svg">
<g clip-path="url(#clip0_2598_2939)">
<path d="M2.85742 4.45532H17.1426C18.4753 4.45532 19.5 5.46075 19.5 6.63403V21.3665C19.4998 22.5396 18.4751 23.5442 17.1426 23.5442H2.85742C1.52488 23.5442 0.500244 22.5396 0.5 21.3665V6.63403C0.5 5.46075 1.52472 4.45532 2.85742 4.45532Z" fill="#D2E8EA" stroke="#2E58FF"/>
<path d="M14.8638 13.2859C14.9292 13.2849 14.9878 13.3081 15.0269 13.3425L19.5005 17.2839V21.366C19.4991 21.7374 19.3935 22.1045 19.1929 22.4304C19.0512 22.6605 18.8642 22.8643 18.6421 23.033L11.6245 16.4529C11.5876 16.4182 11.5737 16.3777 11.5737 16.3435C11.5738 16.3094 11.5878 16.2696 11.6245 16.2351L14.7046 13.3464C14.7418 13.3116 14.7985 13.287 14.8638 13.2859Z" fill="#BDDCE0" stroke="#2E58FF"/>
<path d="M7.85742 12.4989C7.92685 12.499 7.98828 12.5242 8.03027 12.5614V12.5604L18.9248 22.7753C18.7544 22.9614 18.5509 23.1226 18.3193 23.2479C17.9631 23.4406 17.5569 23.5437 17.1416 23.5448H2.85742C2.22223 23.5448 1.61865 23.3078 1.17871 22.8954C0.739888 22.484 0.5 21.9331 0.5 21.3661V19.2968L7.68359 12.5614C7.72565 12.5241 7.78781 12.4989 7.85742 12.4989Z" fill="#D2E8EA" stroke="#2E58FF"/>
<g clip-path="url(#clip1_2598_2939)">
<path d="M10.25 8.15625C12.2693 8.15625 13.9062 6.51929 13.9062 4.5C13.9062 2.48071 12.2693 0.84375 10.25 0.84375C8.23071 0.84375 6.59375 2.48071 6.59375 4.5C6.59375 6.51929 8.23071 8.15625 10.25 8.15625Z" fill="#D2E8EA"/>
<path d="M10.25 0.632812C9.48514 0.632812 8.73746 0.859619 8.10151 1.28455C7.46555 1.70948 6.96988 2.31346 6.67719 3.02009C6.38449 3.72673 6.3079 4.50429 6.45712 5.25445C6.60634 6.00461 6.97465 6.69368 7.51549 7.23451C8.05632 7.77535 8.74539 8.14366 9.49555 8.29288C10.2457 8.4421 11.0233 8.36551 11.7299 8.07282C12.4365 7.78012 13.0405 7.28445 13.4655 6.64849C13.8904 6.01254 14.1172 5.26486 14.1172 4.5C14.1157 3.47481 13.7078 2.49204 12.9829 1.76713C12.258 1.04221 11.2752 0.6343 10.25 0.632812ZM10.25 7.94531C9.56858 7.94531 8.90247 7.74325 8.33589 7.36467C7.76931 6.9861 7.32772 6.44801 7.06695 5.81846C6.80618 5.18892 6.73795 4.49618 6.87089 3.82785C7.00383 3.15953 7.33196 2.54563 7.8138 2.0638C8.29563 1.58196 8.90953 1.25383 9.57785 1.12089C10.2462 0.98795 10.9389 1.05618 11.5685 1.31695C12.198 1.57771 12.7361 2.01931 13.1147 2.58589C13.4932 3.15247 13.6953 3.81858 13.6953 4.5C13.6946 5.41353 13.3313 6.28942 12.6854 6.93538C12.0394 7.58134 11.1635 7.94457 10.25 7.94531Z" fill="#2E58FF" stroke="#2E58FF" stroke-width="0.5"/>
<path d="M12.2187 3.30465L11.1641 3.15277L10.6916 2.19652C10.651 2.11406 10.5881 2.04461 10.51 1.99605C10.432 1.94749 10.3419 1.92175 10.25 1.92175C10.1581 1.92175 10.068 1.94749 9.98995 1.99605C9.91191 2.04461 9.84903 2.11406 9.80843 2.19652L9.33593 3.15277L8.28124 3.30465C8.18878 3.3159 8.10142 3.35316 8.0293 3.4121C7.95717 3.47103 7.90325 3.54922 7.8738 3.63758C7.84435 3.72594 7.84057 3.82085 7.86291 3.91127C7.88524 4.00169 7.93278 4.08392 7.99999 4.1484L8.76218 4.8909L8.58218 5.93996C8.56266 6.03278 8.57038 6.12927 8.6044 6.21781C8.63843 6.30635 8.69731 6.38317 8.77397 6.43903C8.85063 6.49489 8.9418 6.52741 9.03651 6.53267C9.13121 6.53794 9.22542 6.51573 9.3078 6.46871L10.25 5.96246L11.1922 6.46871C11.2736 6.51164 11.3654 6.53088 11.4572 6.52425C11.549 6.51762 11.6371 6.48538 11.7115 6.43119C11.7859 6.377 11.8436 6.30304 11.8781 6.2177C11.9126 6.13235 11.9224 6.03906 11.9066 5.9484L11.7266 4.89933L12.5 4.14558C12.5672 4.0811 12.6147 3.99888 12.6371 3.90846C12.6594 3.81803 12.6556 3.72313 12.6262 3.63477C12.5967 3.54641 12.5428 3.46822 12.4707 3.40929C12.3986 3.35035 12.3112 3.31309 12.2187 3.30183V3.30465ZM12.1962 3.84183L11.3525 4.66308C11.328 4.68673 11.3095 4.71596 11.2987 4.74829C11.288 4.78062 11.2852 4.81507 11.2906 4.84871L11.4903 6.00746C11.4922 6.02021 11.4906 6.03324 11.4856 6.04512C11.4806 6.057 11.4724 6.06728 11.4619 6.07483C11.4515 6.08238 11.4391 6.08691 11.4263 6.08792C11.4134 6.08894 11.4006 6.0864 11.3891 6.08058L10.3484 5.53215C10.3181 5.51614 10.2843 5.50777 10.25 5.50777C10.2157 5.50777 10.1819 5.51614 10.1516 5.53215L9.11093 6.08058C9.09942 6.0864 9.08654 6.08894 9.07368 6.08792C9.06083 6.08691 9.04851 6.08238 9.03806 6.07483C9.0276 6.06728 9.01943 6.057 9.01442 6.04512C9.00942 6.03324 9.00778 6.02021 9.00968 6.00746L9.20937 4.84871C9.21481 4.81507 9.21203 4.78062 9.20125 4.74829C9.19048 4.71596 9.17203 4.68673 9.14749 4.66308L8.30374 3.84183C8.29404 3.83269 8.28713 3.82098 8.28383 3.80807C8.28053 3.79515 8.28097 3.78156 8.28509 3.76888C8.28922 3.75621 8.29687 3.74497 8.30714 3.73647C8.31741 3.72797 8.32989 3.72257 8.34312 3.7209L9.50749 3.55215C9.54109 3.54704 9.57296 3.53388 9.60038 3.5138C9.6278 3.49373 9.64997 3.46732 9.66499 3.43683L10.1853 2.38215C10.2191 2.31465 10.2781 2.31465 10.3119 2.38215L10.8322 3.43683C10.8472 3.46732 10.8694 3.49373 10.8968 3.5138C10.9242 3.53388 10.9561 3.54704 10.9897 3.55215L12.1541 3.7209C12.1673 3.72257 12.1798 3.72797 12.19 3.73647C12.2003 3.74497 12.2079 3.75621 12.2121 3.76888C12.2162 3.78156 12.2166 3.79515 12.2133 3.80807C12.21 3.82098 12.2031 3.83269 12.1934 3.84183H12.1962Z" fill="#2E58FF" stroke="#2E58FF" stroke-width="0.5"/>
</g>
</g>
<defs>
<clipPath id="clip0_2598_2939">
<rect width="22" height="24" fill="white"/>
</clipPath>
<clipPath id="clip1_2598_2939">
<rect width="9" height="9" fill="white" transform="translate(5.75)"/>
</clipPath>
</defs>
</svg>
