<svg width="23" height="23" viewBox="0 0 23 23" fill="none" xmlns="http://www.w3.org/2000/svg">
<path d="M9.13227 5.74991L2.0291 5.74991C1.70117 5.74991 1.43717 5.48554 1.43717 5.15715V2.98852C1.43717 2.66013 1.70117 2.39575 2.0291 2.39575H9.13227" fill="#BDDCE0"/>
<path d="M13.8677 2.39575H20.9709C21.2988 2.39575 21.5628 2.66013 21.5628 2.98852V5.15715C21.5628 5.48554 21.2988 5.74991 20.9709 5.74991H13.8677" fill="#BDDCE0"/>
<path d="M9.13227 5.75L2.39583 5.75V19.4557C2.39583 20.0919 3.14903 20.6042 3.80489 20.6042H19.4203C20.0762 20.6042 20.6042 20.0919 20.6042 19.4557V5.75H13.8677" fill="#D2E8EA"/>
<path d="M9.13228 2.39575V13.4661L11.5 11.1558L13.8677 13.4661V2.39575" fill="#D2E8EA"/>
<path d="M2.39583 5.75V19.4559C2.39583 20.0921 3.1494 20.6042 3.80526 20.6042H19.4203C20.0761 20.6042 20.6042 20.0921 20.6042 19.4559V16.5219C18.9339 17.8175 16.8801 18.5208 14.7662 18.5209C12.2397 18.5209 9.81664 17.5173 8.03013 15.7307C6.24361 13.9442 5.23995 11.5212 5.23995 8.99467C5.24006 7.88822 5.43293 6.79025 5.80989 5.75H2.39583Z" fill="#BDDCE0"/>
<path d="M2.02897 1.91663C1.4435 1.91663 0.958332 2.403 0.958332 2.9882V5.15755C0.958332 5.70441 1.38339 6.15895 1.91667 6.21696V19.4558C1.91667 20.4678 2.78353 21.0833 3.80526 21.0833H19.4203C20.3256 21.0833 21.0833 20.3572 21.0833 19.4558V6.21696C21.6166 6.15895 22.0417 5.70441 22.0417 5.15755V2.9882C22.0417 2.403 21.5565 1.91663 20.971 1.91663H2.02897ZM2.02897 2.87496H8.65307V5.27079C6.44504 5.27079 4.23701 5.27079 2.02897 5.27079C1.95857 5.27079 1.91667 5.22914 1.91667 5.15755V2.9882C1.91667 2.91662 1.95857 2.87496 2.02897 2.87496ZM9.61141 2.87496H13.3886V12.3282L11.835 10.813C11.6488 10.6309 11.3512 10.6309 11.165 10.813L9.61141 12.3282V2.87496ZM14.3469 2.87496H20.971C21.0414 2.87496 21.0833 2.9166 21.0833 2.9882V5.15755C21.0833 5.22914 21.0414 5.27079 20.971 5.27079H14.3469V2.87496ZM2.875 6.22913H8.65307V13.4662C8.65321 13.8905 9.16391 14.1053 9.46728 13.8088L11.5 11.8256L13.5327 13.8088C13.8361 14.1053 14.3468 13.8905 14.3469 13.4662V6.22913H20.125V19.4558C20.125 19.827 19.8267 20.125 19.4203 20.125H3.80526C3.31944 20.125 2.875 19.8226 2.875 19.4558V6.22913Z" fill="#003EEE"/>
<path d="M4.79167 15.8125C4.66458 15.8125 4.54271 15.863 4.45284 15.9528C4.36298 16.0427 4.3125 16.1646 4.3125 16.2917C4.3125 16.4187 4.36298 16.5406 4.45284 16.6305C4.54271 16.7204 4.66458 16.7708 4.79167 16.7708H8.14583C8.27292 16.7708 8.39479 16.7204 8.48466 16.6305C8.57452 16.5406 8.625 16.4187 8.625 16.2917C8.625 16.1646 8.57452 16.0427 8.48466 15.9528C8.39479 15.863 8.27292 15.8125 8.14583 15.8125H4.79167Z" fill="#003EEE"/>
<path d="M4.79167 17.7291C4.66458 17.7291 4.54271 17.7796 4.45284 17.8695C4.36298 17.9593 4.3125 18.0812 4.3125 18.2083C4.3125 18.3354 4.36298 18.4573 4.45284 18.5471C4.54271 18.637 4.66458 18.6875 4.79167 18.6875H8.14583C8.27292 18.6875 8.39479 18.637 8.48466 18.5471C8.57452 18.4573 8.625 18.3354 8.625 18.2083C8.625 18.0812 8.57452 17.9593 8.48466 17.8695C8.39479 17.7796 8.27292 17.7291 8.14583 17.7291H4.79167Z" fill="#003EEE"/>
</svg>
