<?xml version="1.0" encoding="UTF-8"?>
<svg id="Layer_1" xmlns="http://www.w3.org/2000/svg" version="1.1" viewBox="0 0 21 21">
  <!-- Generator: Adobe Illustrator 30.0.0, SVG Export Plug-In . SVG Version: 2.1.1 Build 123)  -->
  <defs>
    <style>
      .st0 {
        fill: #bddce0;
      }

      .st0, .st1 {
        fill-rule: evenodd;
      }

      .st1 {
        fill: #003eee;
      }
    </style>
  </defs>
  <g id="Headphone_question">
    <g>
      <path class="st0" d="M9.6,16.6c1.3,0,2.6-.4,3.7-1h.1c0,0,2.6,2.5,2.6,2.5.6.6,1.6.6,2.1,0,.6-.6.6-1.5,0-2.1l-2.6-2.6h0c2-3.5,1-7.8-2.4-9.8-2.8-1.7-6.3-1.3-8.6,1-2.8,2.7-2.8,7.2,0,10,1.3,1.3,3.1,2.1,5,2.1h0Z"/>
      <path class="st1" d="M10.2,13.2c0,.4-.3.7-.7.7-.4,0-.7-.3-.7-.7,0-.4.3-.7.7-.7h0c.4,0,.7.3.7.7,0,0,0,0,0,0h0ZM6.8,7.9c0-1.5,1.2-2.7,2.7-2.7,1.5,0,2.7,1.2,2.7,2.7,0,1.2-.8,2.2-1.9,2.6-.1,0-.2.1-.2.2v.6c0,.4-.3.7-.7.7s-.7-.3-.7-.7v-.6c0-.7.4-1.3,1.1-1.5.2,0,.4-.2.6-.3.5-.5.5-1.4,0-2s-1.4-.5-2,0c-.3.3-.4.6-.4,1,0,.4-.3.7-.7.7s-.7-.3-.7-.7h0ZM5.4,5.4c-2.3,2.3-2.3,6,0,8.3,2.3,2.3,6,2.3,8.3,0s2.3-6,0-8.3c-2.3-2.3-6-2.3-8.3,0,0,0,0,0,0,0ZM17.2,16.7c.1.1.1.4,0,.5-.1.1-.4.1-.5,0l-2.3-2.3c0,0,.2-.2.3-.3,0,0,.2-.2.3-.3l2.3,2.3h0ZM9.6,16.8c1.3,0,2.6-.4,3.8-1.1l2.4,2.5c.7.7,1.8.7,2.4,0,.7-.7.7-1.7,0-2.4l-2.4-2.4c2.1-3.4,1-7.9-2.4-9.9-2.9-1.7-6.5-1.3-8.9,1.1-2.8,2.8-2.8,7.4,0,10.2,1.4,1.4,3.2,2.1,5.1,2.1Z"/>
    </g>
  </g>
</svg>