<?xml version="1.0" encoding="UTF-8"?>
<svg id="Layer_1" xmlns="http://www.w3.org/2000/svg" version="1.1" viewBox="0 0 21 21">
  <!-- Generator: Adobe Illustrator 30.0.0, SVG Export Plug-In . SVG Version: 2.1.1 Build 123)  -->
  <defs>
    <style>
      .st0 {
        fill: #003eee;
      }

      .st1 {
        fill: #a6c7c9;
      }

      .st2 {
        fill: #bddce0;
      }
    </style>
  </defs>
  <g id="Headphone_question">
    <circle class="st2" cx="10.5" cy="11.7" r="5.2"/>
    <path class="st1" d="M15.7,15.1h-.6v-6.9h.6c1.9,0,3.4,1.5,3.4,3.4s-1.5,3.4-3.4,3.4Z"/>
    <path class="st1" d="M5.3,15.1h.6v-6.9h-.6c-1.9,0-3.4,1.5-3.4,3.4s1.5,3.4,3.4,3.4Z"/>
    <g>
      <circle class="st0" cx="10.8" cy="14.5" r=".6"/>
      <path class="st0" d="M17.1,7.9c0-3.6-3-6.6-6.6-6.6S3.9,4.3,3.9,7.9c-2.1.8-3.1,3.1-2.3,5.2.6,1.6,2.1,2.6,3.8,2.6.6,0,.7,0,.9-.1,2.1,2.3,5.8,2.5,8.1.3.1-.1.2-.2.3-.3.2.2.4.1.9.1h.3v1.7c0,.6-.5,1.1-1.1,1.1h-4c-.3,0-.6.3-.6.6s.3.6.6.6h4c1.3,0,2.3-1,2.3-2.3v-2c3.4-1.3,3.4-6.2,0-7.5ZM10.5,2.5c2.9,0,5.3,2.3,5.5,5.2h-.3c-.6,0-.7,0-.9.1-2.1-2.3-5.8-2.5-8.1-.3-.1.1-.2.2-.3.3-.2-.2-.4-.1-.9-.1h-.3c.2-2.9,2.5-5.2,5.5-5.2ZM5.3,14.5c-1.6,0-2.9-1.3-2.9-2.9s1.3-2.9,2.9-2.9v5.7ZM6.5,13.9v-4.4c1.2-2.2,4-3,6.2-1.8.8.4,1.4,1,1.8,1.8v4.4c-1.2,2.2-4,3-6.2,1.8-.8-.4-1.4-1-1.8-1.8ZM15.7,14.5v-5.7c1.6,0,2.9,1.3,2.9,2.9s-1.3,2.9-2.9,2.9Z"/>
      <path class="st0" d="M10.9,8.3c-1.1-.2-2.2.5-2.4,1.5,0,.3,0,.6,0,.8,0,.3.3.5.7.5s.5-.3.5-.7c0,0,0,0,0,0,0-.5.2-.9.7-1,.5,0,.9.2,1,.7,0,.3,0,.7-.3.9-.5.4-.8,1-.8,1.6,0,.3.3.6.6.6s.6-.3.6-.6c0-.3.1-.5.3-.7.9-.7,1.1-1.9.4-2.8-.3-.4-.7-.7-1.2-.8Z"/>
    </g>
  </g>
</svg>