<svg width="21" height="21" viewBox="0 0 21 21" fill="none" xmlns="http://www.w3.org/2000/svg">
<g clip-path="url(#clip0_2597_2770)">
<rect x="1" y="1" width="19" height="14" fill="#BDDCE0"/>
<path fill-rule="evenodd" clip-rule="evenodd" d="M8.20284 5.37878L12.3872 7.79428L8.20284 10.2097V5.37878Z" fill="#D2E8EA"/>
<path fill-rule="evenodd" clip-rule="evenodd" d="M21 18.4595C21 18.5901 20.9481 18.7153 20.8558 18.8076C20.7635 18.8999 20.6383 18.9517 20.5078 18.9517H5.26981V20.0452C5.26981 20.1757 5.21796 20.3009 5.12565 20.3932C5.03335 20.4855 4.90816 20.5374 4.77762 20.5374C4.64709 20.5374 4.5219 20.4855 4.42959 20.3932C4.33729 20.3009 4.28544 20.1757 4.28544 20.0452V18.9517H0.492188C0.361651 18.9517 0.236461 18.8999 0.144158 18.8076C0.0518553 18.7153 0 18.5901 0 18.4595C0 18.329 0.0518553 18.2038 0.144158 18.1115C0.236461 18.0192 0.361651 17.9673 0.492188 17.9673H4.28544V16.8738C4.28544 16.7433 4.33729 16.6181 4.42959 16.5258C4.5219 16.4335 4.64709 16.3816 4.77762 16.3816C4.90816 16.3816 5.03335 16.4335 5.12565 16.5258C5.21796 16.6181 5.26981 16.7433 5.26981 16.8738V17.9673H20.5078C20.6383 17.9673 20.7635 18.0192 20.8558 18.1115C20.9481 18.2038 21 18.329 21 18.4595ZM8.28487 5.5207L12.2231 7.79411L8.28487 10.0677V5.5207ZM7.54659 11.347C7.62145 11.39 7.70631 11.4127 7.79268 11.4127C7.87905 11.4127 7.96391 11.39 8.03878 11.347L13.4535 8.2208C13.5284 8.17754 13.5905 8.11535 13.6337 8.04048C13.6769 7.96561 13.6997 7.88068 13.6997 7.79424C13.6997 7.70779 13.6769 7.62286 13.6337 7.54799C13.5905 7.47312 13.5284 7.41093 13.4535 7.36767L8.03882 4.24228C7.96405 4.19911 7.87924 4.17637 7.7929 4.17634C7.70656 4.17631 7.62174 4.19899 7.54694 4.2421C7.47213 4.28522 7.40999 4.34725 7.36674 4.42197C7.32349 4.4967 7.30066 4.58148 7.30054 4.66782V10.9207C7.30058 11.0071 7.32334 11.092 7.36653 11.1669C7.40972 11.2418 7.47179 11.3037 7.54659 11.347ZM0.99143 2.07604V13.5135C0.99168 13.6802 1.05805 13.84 1.17597 13.9578C1.2939 14.0756 1.45375 14.1418 1.62045 14.1419H19.3795C19.5462 14.1419 19.7061 14.0756 19.824 13.9578C19.942 13.84 20.0084 13.6802 20.0086 13.5135V2.07604C20.0085 1.90918 19.9422 1.74917 19.8243 1.63116C19.7063 1.51315 19.5463 1.44679 19.3795 1.44666H1.62045C1.4536 1.44681 1.29364 1.51318 1.1757 1.63119C1.05776 1.7492 0.991484 1.9092 0.99143 2.07604ZM1.62045 15.1266H19.3795C19.8072 15.1262 20.2173 14.9561 20.5198 14.6537C20.8223 14.3513 20.9925 13.9413 20.993 13.5136V2.07604C20.9927 1.64818 20.8226 1.23793 20.5201 0.935353C20.2175 0.632776 19.8073 0.462593 19.3795 0.462158H1.62045C1.19259 0.462593 0.782393 0.63278 0.479897 0.935361C0.177401 1.23794 0.00732855 1.64819 0.00701367 2.07604V13.5135C0.00750235 13.9412 0.177657 14.3513 0.480139 14.6537C0.782621 14.9561 1.19272 15.1262 1.62045 15.1266Z" fill="#003EEE"/>
</g>
<defs>
<clipPath id="clip0_2597_2770">
<rect width="21" height="21" fill="white"/>
</clipPath>
</defs>
</svg>
