<?xml version="1.0" encoding="UTF-8"?>
<svg xmlns="http://www.w3.org/2000/svg" viewBox="0 0 762.69 762.71">
  <defs>
    <style>
      .cls-1 {
        fill: #ffc414;
      }

      .cls-2 {
        fill: #ffd900;
      }

      .cls-3 {
        isolation: isolate;
      }

      .cls-4 {
        fill: #fff;
      }

      .cls-5 {
        fill: #db9b11;
      }

      .cls-6 {
        fill: #ffe75e;
      }

      .cls-7 {
        fill: #ffe885;
      }

      .cls-7, .cls-8 {
        font-family: UntitledSans-Bold, 'Untitled Sans';
        font-size: 506.74px;
        font-weight: 700;
      }

      .cls-8 {
        fill: #ffb024;
      }

      .cls-9 {
        opacity: .2;
      }

      .cls-9, .cls-10 {
        mix-blend-mode: screen;
      }

      .cls-10 {
        opacity: .6;
      }
    </style>
  </defs>
  <g class="cls-3">
    <g id="Layer_1" data-name="Layer 1">
      <g id="Coin_1" data-name="Coin 1">
        <g>
          <path class="cls-1" d="M762.69,381.15c0,210.71-170.83,381.56-381.49,381.56-16.75,0-33.25-1.09-49.44-3.19-43.16-5.6-84.05-18.43-121.44-37.27-10.47-5.26-20.64-10.98-30.52-17.14-18.6-11.61-36.1-24.78-52.36-39.31-8.37-7.47-16.43-15.33-24.12-23.54-35.58-37.95-63.56-83.18-81.35-133.25-4.26-11.98-7.93-24.19-11-36.68-3.31-13.54-5.92-27.36-7.74-41.43-2.12-16.29-3.21-32.89-3.21-49.76,0-25.07,2.51-49.73,7.08-73.78,4.89-25.29,12.63-50.07,22.59-73.68C87.51,96.32,223.09,0,381.2,0c16.84,0,33.45,1.09,49.71,3.21,14.07,1.8,27.9,4.41,41.43,7.74,12.49,3.04,24.75,6.69,36.73,10.95,50.07,17.79,95.3,45.74,133.22,81.35,8.2,7.72,16.07,15.77,23.54,24.17,14.53,16.26,27.7,33.76,39.29,52.36,6.16,9.88,11.9,20.06,17.16,30.52,3.85,7.64,7.45,15.43,10.78,23.37,9.83,23.61,17.62,48.39,22.59,73.68,1.53,8.06,2.82,16.19,3.87,24.39,2.07,16.24,3.17,32.71,3.17,49.39Z"/>
          <g class="cls-10">
            <path class="cls-2" d="M642.29,103.26L103.31,642.27c-35.58-37.95-63.56-83.18-81.35-133.25L509.07,21.91c50.07,17.79,95.3,45.74,133.22,81.35Z"/>
            <path class="cls-2" d="M759.52,331.76l-427.76,427.76c-43.16-5.6-84.05-18.43-121.44-37.27l511.96-511.94c3.85,7.64,7.45,15.43,10.78,23.37,9.83,23.61,17.62,48.39,22.59,73.68,1.53,8.06,2.82,16.19,3.87,24.39Z"/>
            <path class="cls-2" d="M705.12,179.79L179.79,705.12c-18.6-11.61-36.1-24.78-52.36-39.31L665.83,127.43c14.53,16.26,27.7,33.76,39.29,52.36Z"/>
            <path class="cls-2" d="M472.34,10.95L10.96,472.34c-3.31-13.54-5.92-27.36-7.74-41.43L430.9,3.21c14.07,1.8,27.9,4.41,41.43,7.74Z"/>
          </g>
          <path class="cls-6" d="M657.24,118.08C588.76,52.58,495.97,12.36,393.56,12.36,235.46,12.36,99.85,108.69,42.04,246.05c-9.95,23.61-17.7,48.37-22.59,73.68-4.58,24.05-7.11,48.71-7.11,73.76,0,102.07,40.09,194.81,105.33,263.26C45.18,587.33,0,489.5,0,381.15c0-25.07,2.51-49.73,7.08-73.78,4.89-25.29,12.63-50.07,22.59-73.68C87.51,96.32,223.09,0,381.2,0c108.69,0,206.59,45.3,276.04,118.08Z"/>
          <path class="cls-5" d="M762.69,381.13c0,210.73-170.86,381.59-381.49,381.59-108.18,0-205.91-45.18-275.31-117.74,68.42,65.28,161.05,105.37,262.94,105.37,210.66,0,381.49-170.86,381.49-381.56,0-25.07-2.46-49.73-7.04-73.78-4.97-25.29-12.76-50.07-22.59-73.68-18.18-43.16-44.01-82.25-75.82-115.6,37.51,35.88,67.72,79.35,88.19,127.97,9.83,23.61,17.62,48.37,22.57,73.69,4.6,24.05,7.06,48.71,7.06,73.76Z"/>
          <path class="cls-1" d="M693.41,380.41v.74c0,172.21-140.04,312.29-312.18,312.29h-.86c-3.91-.01-7.8-.08-11.68-.24-39.85-1.59-77.78-10.68-112.42-25.92-1.42-.62-2.84-1.26-4.26-1.9-8.8-4.03-17.38-8.46-25.73-13.25-.94-.55-1.87-1.08-2.8-1.63-17.03-10.02-33.01-21.62-47.78-34.58-.2-.17-.39-.35-.59-.52-7.67-6.8-15.01-13.93-21.97-21.42-.11-.11-.2-.23-.31-.33-32.42-34.87-56.93-77.15-70.8-123.96-.64-2.18-1.26-4.36-1.85-6.57-2.56-9.39-4.68-18.95-6.36-28.65-.51-2.9-.96-5.82-1.38-8.77-1.5-10.41-2.48-20.99-2.9-31.73-.16-3.87-.25-7.75-.28-11.65v-1.18c0-19.88,1.98-40.28,5.85-60.63,3.87-19.91,10.06-40.12,18.4-59.96,48.93-116.18,161.85-191.25,287.71-191.25h1.07c3.89.01,7.77.11,11.65.25,10.7.43,21.29,1.39,31.74,2.9,2.93.4,5.86.87,8.77,1.36,9.71,1.66,19.28,3.77,28.7,6.33,2.2.59,4.38,1.2,6.56,1.85,46.47,13.66,88.9,37.92,124.11,70.64.11.09.21.2.32.29,7.48,6.97,14.64,14.32,21.42,22.04.17.2.35.39.51.59,12.87,14.68,24.46,30.67,34.52,47.82.55.94,1.08,1.87,1.62,2.81,4.76,8.34,9.18,16.94,13.21,25.8.66,1.4,1.28,2.81,1.91,4.23.63,1.44,1.24,2.89,1.86,4.33,8.35,20.02,14.58,40.32,18.45,60.15,3.04,15.88,4.9,32.02,5.5,48.04.19,3.91.25,7.8.27,11.67Z"/>
          <g class="cls-9">
            <path class="cls-2" d="M593.82,152.64l-440.98,441c-32.42-34.87-56.93-77.15-70.8-123.96-.64-2.18-1.26-4.36-1.85-6.57L463.16,80.16c2.2.59,4.38,1.2,6.56,1.85,46.47,13.66,88.9,37.92,124.11,70.64Z"/>
            <path class="cls-2" d="M693.41,380.41l-313.04,313.03c-3.91-.01-7.8-.08-11.68-.24-39.85-1.59-77.78-10.68-112.42-25.92l411.07-411.05c.63,1.44,1.24,2.89,1.86,4.33,8.35,20.02,14.58,40.32,18.45,60.15,3.04,15.88,4.9,32.02,5.5,48.04.19,3.91.25,7.8.27,11.67Z"/>
            <path class="cls-2" d="M652.21,226.19l-425.93,425.93c-.94-.55-1.87-1.08-2.8-1.63-17.03-10.02-33.01-21.62-47.78-34.58l440.37-440.36c12.87,14.68,24.46,30.67,34.52,47.82.55.94,1.08,1.87,1.62,2.81Z"/>
            <path class="cls-2" d="M425.69,72.47L72.46,425.7c-1.5-10.41-2.48-20.99-2.9-31.73-.16-3.87-.25-7.75-.28-11.65L382.3,69.31c3.89.01,7.77.11,11.65.25,10.7.43,21.29,1.39,31.74,2.9Z"/>
          </g>
          <path class="cls-5" d="M608.16,166.88c-56.83-53.85-133.06-85.36-214.71-85.36-125.85,0-238.76,75.08-287.67,191.29-8.36,19.82-14.55,40.03-18.41,59.94-3.88,20.37-5.87,40.76-5.87,60.65,0,82.98,32.5,158.52,85.45,214.49-60.1-56.95-97.67-137.54-97.67-226.73,0-19.89,1.97-40.28,5.85-60.65,3.86-19.91,10.05-40.12,18.41-59.94,48.91-116.2,161.83-191.29,287.67-191.29,87.69,0,169.09,36.35,226.95,97.59Z"/>
          <path class="cls-6" d="M154.52,595.84c56.84,53.85,133.06,85.36,214.71,85.36,125.84,0,238.76-75.08,287.68-191.29,8.35-19.82,14.55-40.03,18.4-59.94,3.88-20.37,5.87-40.76,5.87-60.65,0-82.98-32.5-158.52-85.45-214.49,60.1,56.95,97.67,137.53,97.67,226.73,0,19.89-1.96,40.28-5.84,60.65-3.86,19.91-10.05,40.12-18.4,59.94-48.91,116.21-161.83,191.29-287.67,191.29-87.68,0-169.09-36.35-226.96-97.6Z"/>
          <path class="cls-4" d="M599.28,563.53c-23.73-23.77-25.5-69.22-25.5-69.22,0,0-1.76,45.45-25.51,69.22-24.06,24.04-70.12,26.42-70.12,26.42,0,0,46.06,2.36,70.12,26.42,23.75,23.77,25.51,69.2,25.51,69.2,0,0,1.76-45.43,25.5-69.2,24.04-24.06,70.1-26.42,70.1-26.42,0,0-46.06-2.38-70.1-26.42Z"/>
        </g>
      </g>
      <text class="cls-8" transform="translate(200.64 563.37)"><tspan x="0" y="0">C</tspan></text>
      <text class="cls-7" transform="translate(193.87 556.21)"><tspan x="0" y="0">C</tspan></text>
    </g>
  </g>
</svg>