<svg width="14" height="15" viewBox="0 0 14 15" fill="none" xmlns="http://www.w3.org/2000/svg">
<path fill-rule="evenodd" clip-rule="evenodd" d="M11.7882 9.69441L11.7813 9.6875C11.4642 9.38914 10.7576 8.21252 10.7126 6.8375V5.3C10.7126 3.37385 9.1488 1.8125 7.00005 1.8125C4.8513 1.8125 3.28755 3.37385 3.28755 5.3V6.74592C3.26505 7.94194 2.68116 9.25228 2.2188 9.68758L2.21189 9.69449C2.14521 9.76117 2.06874 9.81683 1.99233 9.87231L1.94557 9.90653C1.66777 10.1114 1.48755 10.4408 1.48755 10.8126C1.48755 11.4339 1.99122 11.9376 2.61255 11.9376H11.3875C12.0089 11.9376 12.5125 11.4339 12.5125 10.8126C12.5125 10.4408 12.3323 10.1113 12.0546 9.90653L12.0078 9.87231C11.9314 9.81677 11.8549 9.76116 11.7882 9.69449L11.7882 9.69441ZM4.41236 6.76701L4.41253 6.74586V5.29994C4.41253 4.04135 5.42538 2.93744 7.00003 2.93744C8.57469 2.93744 9.58753 4.04135 9.58753 5.29994V6.83744C9.58753 6.8433 9.58753 6.8491 9.58765 6.8549C9.58777 6.86134 9.58788 6.86785 9.58812 6.87429C9.61642 7.73778 9.85009 8.51814 10.1155 9.12009C10.3634 9.68241 10.687 10.1956 10.9951 10.4923C11.1333 10.6299 11.2989 10.7486 11.3654 10.7963L11.3868 10.8119L2.61259 10.8125L2.6348 10.7963C2.70107 10.7488 2.86625 10.6304 3.00423 10.4931C3.40782 10.1063 3.73883 9.4959 3.96675 8.90951C4.20927 8.28548 4.39812 7.52669 4.41242 6.76691L4.41236 6.76701Z" fill="#BEC7E2"/>
<path d="M5.65736 13.5527C5.5782 13.3616 5.53748 13.1568 5.53748 12.95H8.68748C8.68748 13.1568 8.64675 13.3616 8.56759 13.5527C8.48843 13.7438 8.37241 13.9175 8.22616 14.0637C8.07991 14.21 7.9063 14.326 7.71523 14.405C7.5241 14.4842 7.31931 14.525 7.11247 14.525C6.90564 14.525 6.70086 14.4842 6.50971 14.405C6.31864 14.326 6.14503 14.21 5.99878 14.0637C5.85253 13.9175 5.73653 13.7438 5.65736 13.5527Z" fill="#BEC7E2"/>
<circle cx="10" cy="3" r="2.6" fill="#FF624A" stroke="white" stroke-width="0.8"/>
</svg>
