<svg width="14" height="13" viewBox="0 0 14 13" fill="none" xmlns="http://www.w3.org/2000/svg">
<path d="M12.2985 4.12605L7.942 1.27747C7.38077 0.907511 6.62599 0.907511 6.06482 1.27747L1.70154 4.11953C1.26057 4.40833 1 4.87887 1 5.3871V10.4566C1 11.3101 1.73473 12 2.6436 12H11.3564C12.2653 12 13 11.3101 13 10.4566V5.3871C13 4.88539 12.7394 4.40838 12.2985 4.12605ZM5.20921 11.3724V8.21034C5.20921 8.10388 5.30254 8.00977 5.4228 8.00977H8.58278C8.69616 8.00977 8.79637 8.09741 8.79637 8.21034V11.3724H5.20921ZM12.3317 10.4566C12.3317 10.9583 11.8977 11.3724 11.3565 11.3724H9.45926V8.21034C9.45926 7.75214 9.06528 7.38219 8.57733 7.38219H5.4235C4.93555 7.38219 4.54157 7.75214 4.54157 8.21034V11.3724H2.64368C2.10939 11.3724 1.66842 10.9648 1.66842 10.4566V5.38705C1.66842 5.0859 1.82188 4.81005 2.08245 4.63418L6.43892 1.7856C6.60616 1.67914 6.79971 1.62268 6.99325 1.62268C7.1868 1.62268 7.38098 1.67915 7.54759 1.7856L11.9041 4.63418C12.1646 4.80358 12.3181 5.0859 12.3181 5.38705L12.3187 10.4566H12.3317Z" fill="#003EEE" stroke="#003EEE" stroke-width="0.5"/>
</svg>
