<svg width="10" height="14" viewBox="0 0 10 14" fill="none" xmlns="http://www.w3.org/2000/svg">
<path d="M9.99997 6.59518C9.99997 4.32809 8.54673 2.3996 6.54673 1.73714L7.41004 0.64775C7.49641 0.52996 7.52517 0.368033 7.45323 0.22082C7.38128 0.0883157 7.25178 0 7.09351 0H2.90646C2.76257 0 2.61869 0.0883181 2.54675 0.22082C2.4748 0.353322 2.50356 0.529955 2.58993 0.64775L3.45324 1.73714C1.45324 2.3996 0 4.32809 0 6.59518C0 8.47951 1.0072 10.1283 2.48921 11.0116L1.82735 13.4848C1.79859 13.6025 1.81297 13.735 1.89929 13.8381C1.97124 13.9411 2.08637 14 2.20144 14H7.7554C7.87053 14 7.99999 13.9411 8.07193 13.8381C8.14387 13.735 8.17263 13.6173 8.14387 13.4848L7.48201 11.0116C8.9928 10.1283 10 8.47951 10 6.59518H9.99997ZM9.19423 6.19768H6.48919C6.44601 6.06517 6.40287 5.93267 6.33093 5.80022L8.2446 3.84229C8.77691 4.49004 9.12224 5.2997 9.19418 6.1977L9.19423 6.19768ZM5.00717 7.37538C4.58989 7.37538 4.24456 7.02206 4.24456 6.59513C4.24456 6.16825 4.58989 5.81492 5.00717 5.81492C5.42445 5.81492 5.76979 6.16825 5.76979 6.59518C5.76979 7.02206 5.42445 7.37538 5.00717 7.37538ZM7.69782 3.28285L5.78415 5.24079C5.66903 5.16718 5.53957 5.10829 5.39569 5.07887L5.39564 3.19454L6.01437 2.42905C6.6331 2.57627 7.20864 2.87069 7.69783 3.28292L7.69782 3.28285ZM6.28775 0.794951L5.00717 2.42902L3.7266 0.809673H6.28775V0.794951ZM3.99998 2.42902L4.61871 3.20927V5.07888C4.47482 5.12306 4.35969 5.1672 4.23024 5.2408L2.31657 3.28287C2.80574 2.87065 3.38128 2.57622 4.00003 2.42901L3.99998 2.42902ZM1.76976 3.84226L3.68343 5.8002C3.61149 5.91799 3.55392 6.05044 3.52517 6.19765H0.82013C0.892073 5.29966 1.23741 4.48998 1.76976 3.84224V3.84226ZM0.82013 6.99263H3.52517C3.56835 7.13984 3.61149 7.25764 3.68343 7.39008L1.76976 9.34801C1.23741 8.70026 0.892073 7.87588 0.82013 6.9926V6.99263ZM4.23021 7.94951C4.34533 8.02312 4.47479 8.08202 4.61867 8.11144V10.879C3.75536 10.7907 2.96399 10.4521 2.31651 9.90745L4.23021 7.94951ZM7.26618 13.1903H2.7338L3.22302 11.3649C3.78419 11.5857 4.3741 11.7035 5.0072 11.7035C5.64029 11.7035 6.23022 11.5857 6.79137 11.3649L7.26618 13.1903ZM5.39568 10.8791V8.11145C5.52518 8.06726 5.65469 8.02313 5.78414 7.94953L7.69781 9.90746C7.06475 10.4521 6.27335 10.8054 5.39565 10.8791H5.39568ZM6.33093 7.3901C6.40287 7.27231 6.46044 7.13987 6.48919 6.99265H9.19423C9.10791 7.87593 8.77695 8.6856 8.2446 9.34806L6.33093 7.3901Z" fill="#BEC7E2"/>
</svg>
