<svg width="13" height="13" viewBox="0 0 13 13" fill="none" xmlns="http://www.w3.org/2000/svg">
<g clip-path="url(#clip0_2597_2910)">
<path d="M10.9774 4.43255H10.9807C11.0386 4.43133 11.0959 4.42032 11.1502 4.40005C11.1637 4.39519 11.1762 4.38977 11.1892 4.3838C11.2022 4.37784 11.2228 4.37242 11.2385 4.36324C11.2541 4.35092 11.2689 4.33772 11.2829 4.32371C11.3373 4.28461 11.3827 4.23438 11.4162 4.17636C11.4311 4.15181 11.4436 4.12587 11.4535 4.09892C11.467 4.06396 11.4765 4.02761 11.4817 3.99058C11.4861 3.97687 11.4897 3.96295 11.4926 3.94886L11.6258 1.8824C11.6354 1.74584 11.5897 1.61119 11.499 1.50865C11.4086 1.40565 11.2811 1.34277 11.1443 1.33383C11.0076 1.3249 10.8729 1.37069 10.7699 1.46104C10.6669 1.55143 10.6039 1.67901 10.595 1.81578L10.5501 2.51343C9.62534 1.57613 8.40387 0.988963 7.09422 0.852246C5.78469 0.715562 4.46833 1.03785 3.36994 1.76402C2.27166 2.49015 1.45948 3.57514 1.07241 4.83365C0.685246 6.09205 0.747072 7.446 1.24731 8.66388C1.7476 9.88188 2.65521 10.8883 3.81514 11.5113C4.97506 12.1344 6.31536 12.3353 7.60702 12.0798C8.89868 11.8243 10.0615 11.1283 10.897 10.1106C11.7324 9.09295 12.1885 7.81668 12.1875 6.5C12.192 6.35997 12.1396 6.22409 12.0421 6.12345C11.9446 6.02278 11.8105 5.96595 11.6704 5.96595C11.5303 5.96595 11.3962 6.02278 11.2988 6.12345C11.2013 6.22409 11.1489 6.35997 11.1534 6.5C11.1593 7.59428 10.7815 8.65605 10.0857 9.50062C9.38984 10.3452 8.42004 10.9191 7.34483 11.1227C6.26962 11.3262 5.15704 11.1464 4.20067 10.6146C3.24434 10.0828 2.50461 9.23262 2.11017 8.21191C1.71572 7.19116 1.69155 6.06441 2.04182 5.02777C2.39209 3.99108 3.09465 3.10984 4.02736 2.53751C4.96004 1.96517 6.06381 1.73784 7.14681 1.89504C8.22982 2.05224 9.22335 2.58406 9.95481 3.39795H9.08544C8.94545 3.39342 8.80957 3.4459 8.70889 3.54336C8.60826 3.64077 8.55143 3.77487 8.55143 3.91499C8.55143 4.05511 8.60826 4.18921 8.70889 4.28663C8.80957 4.38409 8.94545 4.43656 9.08544 4.43203L10.9774 4.43255Z" fill="#BEC7E2"/>
<path d="M6.49999 3.39795C6.36288 3.39795 6.2314 3.45241 6.13441 3.54928C6.03741 3.64619 5.98283 3.77763 5.9827 3.91473V6.50011C5.9832 6.66265 6.05976 6.81558 6.18963 6.91338L8.25772 8.46417C8.34676 8.53196 8.45564 8.56857 8.56757 8.56819C8.71318 8.56831 8.85212 8.50704 8.95021 8.39938C9.04834 8.29177 9.0965 8.14776 9.08296 8.00278C9.06942 7.85776 8.99536 7.72522 8.87903 7.63762L7.01732 6.24175V3.91258C7.0166 3.77585 6.9618 3.64501 6.86485 3.54856C6.76795 3.45212 6.63672 3.39795 6.49999 3.39795Z" fill="#BEC7E2"/>
</g>
<defs>
<clipPath id="clip0_2597_2910">
<rect width="13" height="13" fill="white"/>
</clipPath>
</defs>
</svg>
