<svg width="24" height="24" viewBox="0 0 24 24"  xmlns="http://www.w3.org/2000/svg">
<path d="M11 8C11 7.44772 11.4477 7 12 7C12.5523 7 13 7.44772 13 8C13 8.55229 12.5523 9 12 9C11.4477 9 11 8.55229 11 8Z"  stroke="#EFF6FF" stroke-width="0.2"/>
<path d="M12 17.4239C11.5858 17.4239 11.25 17.0881 11.25 16.6739V10.75C11.25 10.3358 11.5858 10 12 10C12.4142 10 12.75 10.3358 12.75 10.75V16.6739C12.75 17.0881 12.4142 17.4239 12 17.4239Z"  stroke="#EFF6FF" stroke-width="0.2"/>
<path fill-rule="evenodd" clip-rule="evenodd" d="M21 15C21 18.3137 18.3137 21 15 21H9C5.68629 21 3 18.3137 3 15V9C3 5.68629 5.68629 3 9 3H15C18.3137 3 21 5.68629 21 9V15ZM19.5 15C19.5 17.4853 17.4853 19.5 15 19.5H9C6.51472 19.5 4.5 17.4853 4.5 15V9C4.5 6.51472 6.51472 4.5 9 4.5H15C17.4853 4.5 19.5 6.51472 19.5 9V15Z"  stroke="#EFF6FF" stroke-width="0.2"/>
</svg>
