<?xml version="1.0" encoding="UTF-8"?>
<svg width="1200pt" height="1200pt" version="1.1" viewBox="0 0 1200 1200" xmlns="http://www.w3.org/2000/svg">
 <path d="m352.2 862.08h495.72c69.602 0 135.48-27.48 184.92-76.922 49.68-49.68 77.16-115.56 77.16-185.28 0-144.48-117.72-262.08-262.08-262.08l-495.72 0.003906c-69.961 0-135.6 27.238-185.28 76.922-49.68 49.676-76.918 115.44-76.918 185.16 0 144.48 117.48 262.2 262.2 262.2zm333.12-262.2c0-85.801 69.719-155.52 155.76-155.52 85.801 0 155.52 69.719 155.52 155.52 0 85.801-69.719 155.76-155.52 155.76-86.043 0-155.76-69.961-155.76-155.76z"/>
</svg>
