<?xml version="1.0" encoding="UTF-8"?>
<svg width="1200pt" height="1200pt" version="1.1" viewBox="0 0 1200 1200" xmlns="http://www.w3.org/2000/svg">
 <path d="m349.08 996.61 133.22-1.7812 7.0781-192.14 311.16-51 12.938 33.375 44.766-17.297-51.375-132.61-140.39-363-9.2344-24-44.766 17.297 12.938 33.375-449.72 292.18-6.6094-17.062-44.766 17.297 94.688 244.55 4.0781 10.453 10.219 26.391 44.766-17.297-6.6094-17.062 54.469-8.8594 23.156 167.06zm87-49.078-45.234 0.60938-17.531-126.37 67.922-11.156-5.0625 136.78zm207.14-602.9 139.87 361.4-529.31 86.766-60.375-156 449.76-292.08z"/>
 <path d="m835.13 456.14 172.5-65.953 17.156 44.812-172.5 65.953z"/>
 <path d="m766.78 381.71 110.11-167.29 40.078 26.391-110.11 167.29z"/>
 <path d="m851.21 599.68 12.562-46.312 195.94 53.203-12.562 46.312z"/>
</svg>
