<?xml version="1.0" encoding="UTF-8"?>
<svg width="1200pt" height="1200pt" version="1.1" viewBox="0 0 1200 1200" xmlns="http://www.w3.org/2000/svg">
 <path d="m1068.7 187.5h-937.5c-31.031 0-56.25 25.219-56.25 56.25v712.5c0 31.031 25.219 56.25 56.25 56.25h937.5c31.031 0 56.25-25.219 56.25-56.25v-712.5c0-31.031-25.219-56.25-56.25-56.25zm-937.5 37.5h937.5c10.359 0 18.75 8.3906 18.75 18.75v37.5h-975v-37.5c0-10.359 8.3906-18.75 18.75-18.75zm937.5 750h-937.5c-10.359 0-18.75-8.3906-18.75-18.75v-37.5h900c24.375-0.375 24.844-37.031 0-37.5h-900v-562.5h975v637.5c0 10.359-8.3906 18.75-18.75 18.75z"/>
 <path d="m843.74 600c-10.359 0-18.75 8.3906-18.75 18.75v56.25c0 10.359 8.3906 18.75 18.75 18.75 10.359 0 18.75-8.3906 18.75-18.75v-56.25c0-10.359-8.3906-18.75-18.75-18.75z"/>
 <path d="m843.74 506.26c-62.016 0-112.5 50.484-112.5 112.5v56.25c0 10.359 8.3906 18.75 18.75 18.75 10.359 0 18.75-8.3906 18.75-18.75v-56.25c0-41.344 33.656-75 75-75s75 33.656 75 75v56.25c0 10.359 8.3906 18.75 18.75 18.75 10.359 0 18.75-8.3906 18.75-18.75v-56.25c0-62.016-50.484-112.5-112.5-112.5z"/>
 <path d="m975 412.5h-262.5c-31.031 0-56.25 25.219-56.25 56.25v262.5c0 31.031 25.219 56.25 56.25 56.25h262.5c31.031 0 56.25-25.219 56.25-56.25v-262.5c0-31.031-25.219-56.25-56.25-56.25zm18.75 318.74c0 10.359-8.3906 18.75-18.75 18.75h-262.5c-10.359 0-18.75-8.3906-18.75-18.75v-262.5c0-10.359 8.3906-18.75 18.75-18.75h262.5c10.359 0 18.75 8.3906 18.75 18.75z"/>
 <path d="m543.74 375h-356.26c-10.359 0-18.75 8.3906-18.75 18.75v112.5c0.46875 24.656 37.031 24.656 37.5 0v-93.75h318.74v75h-243.74c-10.359 0-18.75 8.3906-18.75 18.75s8.3906 18.75 18.75 18.75h262.5c10.359 0 18.75-8.3906 18.75-18.75v-112.5c0-10.359-8.3906-18.75-18.75-18.75z"/>
 <path d="m262.5 600h-37.5c-24.656 0.42188-24.656 37.078 0 37.5h37.5c24.656-0.42188 24.656-37.078 0-37.5z"/>
 <path d="m384.37 600h-37.5c-24.656 0.42188-24.656 37.078 0 37.5h37.5c24.656-0.42188 24.656-37.078 0-37.5z"/>
 <path d="m506.26 600h-37.5c-24.656 0.42188-24.656 37.078 0 37.5h37.5c24.656-0.42188 24.656-37.078 0-37.5z"/>
 <path d="m262.5 693.74h-37.5c-24.656 0.42187-24.656 37.078 0 37.5h37.5c24.656-0.42188 24.656-37.078 0-37.5z"/>
 <path d="m384.37 693.74h-37.5c-24.656 0.42187-24.656 37.078 0 37.5h37.5c24.656-0.42188 24.656-37.078 0-37.5z"/>
 <path d="m506.26 693.74h-37.5c-24.656 0.42187-24.656 37.078 0 37.5h37.5c24.656-0.42188 24.656-37.078 0-37.5z"/>
 <path d="m262.5 787.5h-37.5c-24.656 0.42188-24.656 37.078 0 37.5h37.5c24.656-0.42188 24.656-37.078 0-37.5z"/>
 <path d="m384.37 787.5h-37.5c-24.656 0.42188-24.656 37.078 0 37.5h37.5c24.656-0.42188 24.656-37.078 0-37.5z"/>
 <path d="m506.26 787.5h-37.5c-24.656 0.42188-24.656 37.078 0 37.5h37.5c24.656-0.42188 24.656-37.078 0-37.5z"/>
</svg>
