<?xml version="1.0" encoding="UTF-8"?>
<svg width="1200pt" height="1200pt" version="1.1" viewBox="0 0 1200 1200" xmlns="http://www.w3.org/2000/svg">
 <path d="m500.48 877.5h0.98438c14.016-0.51562 24.516-12.516 23.484-26.016l-12.984-267.52c-0.51562-14.016-10.5-24.984-26.016-23.484-14.016 0.51562-24.516 12.516-23.484 26.016l12.984 267.52c0.5625 12.984 11.531 23.484 25.031 23.484z"/>
 <path d="m698.48 877.5h0.98438c13.5 0 24.516-10.5 24.984-24l12.984-267.52c0.51562-14.016-9.9844-25.5-23.484-26.016-15-1.5-25.5 9.9844-26.016 23.484l-12.984 267.52c-0.9375 14.016 9.5625 26.016 23.531 26.531z"/>
 <path d="m716.48 150.98h-232.97c-39.516 0-72 32.016-72 72v53.016h-62.531c-57 0-102.98 46.5-102.98 102.98v57.516c0 27.984 22.5 50.484 50.484 51l30.516 485.02c2.4844 42.984 38.484 76.5 81.516 76.5h382.5c42.984 0 78.984-33.516 81.516-76.5l30.516-485.02c27.984 0 50.484-23.016 50.484-51l-0.046875-57.516c0-57-46.5-102.98-102.98-102.98h-63v-53.016c0.98438-39.984-31.5-72-71.016-72zm-255 72c0-12 9.9844-21.984 21.984-21.984h233.02c12 0 21.984 9.9844 21.984 21.984v53.016h-276.98zm361.5 746.02c-0.98438 16.5-15 30-32.016 30h-382.45c-16.5 0-30.516-12.984-32.016-30l-30-481.5h507.52zm81.516-590.02v57.516c0 0.51562-0.51562 0.98438-0.98438 0.98438l-608.02-0.98438v-57.516c0-29.484 24-53.016 53.016-53.016h502.97c29.016-0.46875 53.016 23.531 53.016 53.016z"/>
</svg>
