<?xml version="1.0" encoding="UTF-8"?>
<svg width="1200pt" height="1200pt" version="1.1" viewBox="0 0 1200 1200" xmlns="http://www.w3.org/2000/svg">
 <path d="m246.47 278.9c26.156-26.156 68.578-26.156 94.688 0l93.562 93.562c36.609 36.609 36.609 95.953 0 132.56l-18.844 18.844 274.6 274.6 18.844-18.844c36.609-36.609 96-36.609 132.61 0l93.516 93.562c26.156 26.156 26.156 68.531 0 94.688-101.44 101.44-265.87 101.44-367.31 0l-321.61-321.61c-98.812-101.3-101.06-266.29-0.046876-367.36zm68.203 26.531c-11.531-11.484-30.188-11.484-41.672 0-86.438 86.438-84.516 227.63 0 314.29l321.61 321.61c86.812 86.812 227.53 86.812 314.29 0 11.531-11.484 11.531-30.141 0-41.625l-93.516-93.562c-21.984-21.984-57.562-21.984-79.547 0l-18.844 18.844c-14.625 14.625-38.391 14.625-53.016 0l-274.6-274.6c-14.672-14.672-14.672-38.391 0-53.062l18.797-18.797c21.984-21.984 21.984-57.609 0-79.547zm401.06-22.875c10.406-19.969 39.375-19.969 49.781 0 25.828 54.844 62.203 101.02 114.84 132.56l35.203 21.188c16.031 11.109 16.031 35.016 0 46.125l-35.203 21.188c-50.859 30.469-90.094 76.406-113.91 130.5-10.125 21.562-41.859 22.969-51.656 0-23.016-52.406-60.562-97.172-109.17-127.6l-38.297-23.062c-18.234-10.875-18.234-37.312 0-48.234l33.609-20.109c52.688-31.594 88.734-77.766 114.8-132.56zm24.891 35.297c-31.594 62.484-81.609 106.17-140.63 141.52 59.016 35.344 109.03 79.031 140.63 141.52 31.594-62.484 81.609-106.17 140.63-141.52-59.016-35.344-109.03-79.031-140.63-141.52z"/>
</svg>
