<svg width="11" height="11" viewBox="0 0 11 11" fill="none" xmlns="http://www.w3.org/2000/svg">
<path d="M9.45358 2.40626H7.83108L7.6489 1.68095C7.55522 1.29809 7.21104 1.02954 6.81702 1.03126H4.1838C3.78978 1.02954 3.4456 1.29809 3.35193 1.68095L3.16974 2.40626H1.54724C1.07244 2.40626 0.687866 2.79083 0.687866 3.26563V9.10938C0.687866 9.33712 0.77853 9.55583 0.939665 9.71696C1.1008 9.87809 1.31951 9.96876 1.54724 9.96876H9.45349C9.68123 9.96876 9.89994 9.8781 10.0611 9.71696C10.2222 9.55582 10.3129 9.33711 10.3129 9.10938V3.26563C10.3129 3.0379 10.2222 2.81919 10.0611 2.65806C9.89993 2.49693 9.68122 2.40626 9.45349 2.40626H9.45358ZM9.62546 9.10948C9.62546 9.15502 9.60741 9.19885 9.57518 9.23108C9.54296 9.26331 9.49913 9.28135 9.45358 9.28135H1.54733C1.45237 9.28135 1.37545 9.20444 1.37545 9.10948V3.26573C1.37545 3.17077 1.45237 3.09385 1.54733 3.09385H3.43805C3.60004 3.09858 3.74312 2.98987 3.7818 2.8326L4.0293 1.84948C4.04605 1.77643 4.10922 1.72315 4.18398 1.71885H6.8172C6.89583 1.71842 6.96458 1.77256 6.9822 1.84948L7.21939 2.8326C7.25806 2.98987 7.40114 3.09858 7.56314 3.09385H9.45385C9.4994 3.09385 9.54323 3.1119 9.57546 3.14413C9.60769 3.17635 9.62573 3.22018 9.62573 3.26573L9.62546 9.10948ZM5.50046 3.78126C4.86238 3.78126 4.25012 4.03477 3.79885 4.48595C3.34764 4.93712 3.09416 5.54946 3.09416 6.18755C3.09416 6.82567 3.34768 7.43789 3.79885 7.88916C4.25002 8.34037 4.86237 8.59385 5.50046 8.59385C6.13858 8.59385 6.75079 8.34034 7.20207 7.88916C7.65328 7.43799 7.90675 6.82565 7.90675 6.18755C7.90675 5.54944 7.65324 4.93722 7.20207 4.48595C6.75089 4.03473 6.13855 3.78126 5.50046 3.78126ZM5.50046 7.90626C5.04456 7.90626 4.60757 7.72536 4.28532 7.40266C3.96263 7.0804 3.78173 6.6434 3.78173 6.18753C3.78173 5.7316 3.96262 5.29464 4.28532 4.97239C4.60759 4.6497 5.04458 4.4688 5.50046 4.4688C5.95639 4.4688 6.39335 4.64969 6.71559 4.97239C7.03829 5.29466 7.21919 5.73165 7.21919 6.18753C7.21919 6.64346 7.03829 7.08042 6.71559 7.40266C6.39333 7.72535 5.95633 7.90626 5.50046 7.90626ZM4.46921 2.75001C4.46921 2.56008 4.62303 2.40626 4.81296 2.40626H6.18796C6.37788 2.40626 6.53171 2.56008 6.53171 2.75001C6.53171 2.93993 6.37788 3.09376 6.18796 3.09376H4.81296C4.62303 3.09376 4.46921 2.93993 4.46921 2.75001ZM8.93796 4.29679C8.93796 4.50519 8.81248 4.6934 8.61956 4.77331C8.42706 4.8528 8.20534 4.80898 8.05754 4.66159C7.91015 4.51378 7.86633 4.29206 7.94581 4.09956C8.02573 3.90663 8.21394 3.78117 8.42233 3.78117C8.70721 3.78117 8.93796 4.01191 8.93796 4.29679Z" fill="black"/>
</svg>
