<?xml version="1.0" encoding="UTF-8"?>
<svg width="1200pt" height="1200pt" version="1.1" viewBox="0 0 1200 1200" xmlns="http://www.w3.org/2000/svg">
 <path d="m600 89.969c-169.64 0-307.85 138.16-307.85 307.62 0 47.371 19.359 100.1 46.289 156.56 26.93 56.465 62.27 115.74 97.441 170.1 0.51172 0.79297 1.0117 1.5547 1.5234 2.3438-64.082 12.496-119.23 32.004-162.07 57.422-52.934 31.41-90.352 74.527-90.352 126.68 0 32.598 15.285 62.637 38.555 86.836 23.27 24.199 54.695 44.012 92.109 60.469 74.828 32.914 174.46 52.031 284.36 52.031s209.53-19.117 284.36-52.031c37.414-16.457 68.84-36.27 92.109-60.469 23.27-24.199 38.555-54.238 38.555-86.836 0-52.148-37.422-95.27-90.352-126.68-42.871-25.441-97.965-44.984-162.07-57.48 0.49609-0.76953 0.96875-1.5156 1.4648-2.2852 35.172-54.355 70.512-113.63 97.441-170.1 26.93-56.465 46.289-109.19 46.289-156.56 0-169.45-138.15-307.62-307.79-307.62zm0 60.059c137.27 0 247.79 110.59 247.79 247.56 0 29.234-15.32 77.891-40.488 130.66-25.168 52.773-59.168 110.43-93.457 163.42-56.867 87.883-96.047 137.3-113.85 160.37-14.738-19.098-44.355-56.664-86.309-118.77-0.45703-0.74219-0.94531-1.4648-1.4648-2.168-8.2773-12.281-16.848-25.176-26.074-39.434-34.289-52.988-68.289-110.64-93.457-163.41-25.168-52.777-40.488-101.43-40.488-130.66 0-136.97 110.53-247.56 247.79-247.56zm0 64.629c-100.67 0-182.93 82.34-182.93 182.93 0 100.59 82.258 182.7 182.93 182.7s182.93-82.105 182.93-182.7c0-100.59-82.258-182.93-182.93-182.93zm0 60c68.297 0 122.93 54.816 122.93 122.93 0 68.113-54.633 122.7-122.93 122.7s-122.93-54.582-122.93-122.7c0-68.113 54.633-122.93 122.93-122.93zm-126.15 506.48c55.633 81.215 102.66 140.86 102.66 140.86v0.003906c5.6914 7.1445 14.332 11.305 23.465 11.305 9.1367 0 17.777-4.1602 23.469-11.305 0 0 47.082-59.645 102.71-140.86 69.961 11.133 128.26 30.953 167.93 54.492 43.047 25.547 60.879 52.648 60.879 75.059 0 14.168-6.2148 28.852-21.914 45.176-15.699 16.324-40.566 32.977-72.832 47.168-64.531 28.383-157.45 47.168-260.21 47.168s-195.68-18.785-260.21-47.168c-32.266-14.191-57.191-30.844-72.891-47.168-15.699-16.324-21.914-31.008-21.914-45.176 0-22.414 17.883-49.512 60.938-75.059 39.68-23.547 97.945-43.363 167.93-54.492z" fill-rule="evenodd"/>
</svg>
