<svg width="21" height="21" viewBox="0 0 21 21"  xmlns="http://www.w3.org/2000/svg">
<path d="M16.9095 13.1619C15.9104 11.7346 14.2755 11.3228 13.0054 12.2106L11.858 13.0162C11.2305 12.3385 10.6515 11.6181 10.0972 10.8271C9.54418 10.038 9.06564 9.24765 8.64309 8.4242L9.79173 7.62047C11.0702 6.72447 11.2515 5.08202 10.2327 3.62792L8.90909 1.73474C7.90873 0.308015 6.272 -0.10244 5.00691 0.785287L3.26646 2.00392C2.205 2.7472 1.848 4.49529 2.28836 6.79956C2.72618 9.09047 3.87991 11.6544 5.53636 14.0204C8.28291 17.9423 12.0025 20.6818 14.5842 20.6818C15.162 20.6818 15.6558 20.5406 16.051 20.2637L17.7908 19.0451C18.4558 18.5812 18.8459 17.9016 18.8911 17.1335C18.9318 16.4443 18.7046 15.7252 18.2337 15.0526L16.9095 13.1619ZM17.1035 18.0632L15.3637 19.2812C15.1735 19.4155 14.9113 19.4829 14.5842 19.4829C12.7623 19.4829 9.31446 17.3276 6.51827 13.3331C4.95664 11.1027 3.87227 8.70229 3.46564 6.57429C3.12836 4.80838 3.31546 3.43256 3.95373 2.9852L5.69418 1.76656C5.94682 1.58965 6.20964 1.49992 6.47373 1.49992C6.98664 1.49992 7.51673 1.83592 7.92718 2.42201L9.25145 4.31329C9.75609 5.03365 9.982 6.02256 9.10509 6.63665L7.11709 8.02838L7.33791 8.48783C7.84318 9.5372 8.42482 10.5274 9.11591 11.5131C9.79936 12.4893 10.5503 13.3999 11.3515 14.2202L11.7072 14.5848L13.6945 13.1925C14.4378 12.6726 15.3052 12.9596 15.9282 13.8486L17.2518 15.7398C17.5611 16.1821 17.7189 16.6524 17.6941 17.0628C17.6705 17.4695 17.4714 17.8055 17.1035 18.0632Z" />
</svg>
