<?xml version="1.0" encoding="UTF-8"?>
<svg width="1200pt" height="1200pt" version="1.1" viewBox="0 0 1200 1200" xmlns="http://www.w3.org/2000/svg">
 <path d="m578.02 375 123.49 123.49c7.0312 7.0312 10.98 16.566 10.98 26.512s-3.9492 19.48-10.98 26.512l-123.49 123.49 59.477 59.477 123.49-123.49c7.0312-7.0312 16.566-10.98 26.512-10.98s19.48 3.9492 26.512 10.98l348.49 348.49v-734.48c0-9.9453-3.9492-19.484-10.984-26.516-7.0312-7.0352-16.57-10.984-26.516-10.984h-359.48z"/>
 <path d="m337.5 765.52-246.98 246.98h343.95l75-75z"/>
 <path d="m310.99 685.99c7.0312-7.0312 16.566-10.98 26.512-10.98s19.48 3.9492 26.512 10.98l198.49 198.49 59.477-59.477-123.49-123.49c-7.0312-7.0312-10.98-16.566-10.98-26.512s3.9492-19.48 10.98-26.512l123.49-123.49-123.49-123.49c-7.0312-7.0312-10.98-16.566-10.98-26.512s3.9492-19.48 10.98-26.512l160.99-160.99h-584.48c-9.9453 0-19.484 3.9492-26.516 10.984-7.0352 7.0312-10.984 16.57-10.984 26.516v734.48z"/>
 <path d="m540.52 1012.5h568.95l-321.98-321.98-96.977 96.977 10.988 10.988c7.0312 7.0312 10.98 16.566 10.98 26.512s-3.9492 19.48-10.98 26.512z"/>
</svg>
