<svg width="148" height="92" viewBox="0 0 148 92" fill="none" xmlns="http://www.w3.org/2000/svg">
<g clip-path="url(#clip0_2602_3167)">
<path opacity="0.2" d="M129.939 93.978C130.925 92.1794 136.69 80.9107 132.52 70.1426C127.974 58.3984 122.159 59.0331 110.634 56.2816C99.1096 53.5301 111.692 38.8234 108.732 27.0792C105.771 15.3349 92.6604 8.66812 77.754 16.1806C62.8457 23.693 68.4499 45.0665 44.1323 49.6166C20.6221 54.0146 29.526 91.5465 30.1441 94.0316C23.1214 94.2354 19 94.4821 19 94.7485C19 95.4404 46.7584 96 81 96C115.242 96 143 95.4386 143 94.7485C143 94.4553 138.125 94.1889 129.939 93.978Z" fill="#D6ABFF"/>
<path d="M85.1619 35.0845C85.1619 35.0845 86.3296 30.3416 84.8864 30.4859C83.4432 30.6302 82.9627 31.5634 82.4133 33.5757C81.8639 35.5879 82.551 37.6707 82.551 37.6707L85.1619 35.0845Z" fill="#F9C5A2"/>
<path d="M104.944 136.113L105.481 136.092L108.378 135.971L109.339 77.9114L97.7997 78.4854L104.944 136.113Z" fill="#231638"/>
<path d="M114.285 77.9114L126.098 135.971L122.664 136.402L109.065 99.7545L101.921 78.0541L114.285 77.9114Z" fill="#35234F"/>
<path d="M117.444 54.3429L114.285 77.9114L97.7981 78.4854L100.547 51.6123C100.547 51.6123 103.505 50.4479 106.449 49.8149C107.297 49.6279 108.142 49.4869 108.916 49.4328C109.468 49.3918 109.985 49.3967 110.438 49.4557C111.043 49.5377 111.659 49.7509 112.269 50.0527C112.688 50.2577 113.101 50.4988 113.501 50.7677C115.677 52.2224 117.444 54.3429 117.444 54.3429Z" fill="#003EEE"/>
<path d="M100.548 51.6123L99.8137 62.6757C99.8137 62.6757 99.6874 62.6216 99.4529 62.5068C98.4082 62.0066 95.2463 60.3535 91.9269 57.2375C87.7154 53.2785 83.253 46.9662 82.5527 37.6739L85.1619 35.0844C85.1619 35.0844 89.6949 51.468 100.548 51.6123Z" fill="#003EEE"/>
<path d="M113.324 83.9465L110.301 80.9289C110.301 80.9289 116.757 75.4677 117.309 71.7318C117.362 71.3727 117.391 71.0168 117.396 70.6806C117.465 68.0598 116.338 66.0886 115.935 65.4703C115.848 65.3391 115.795 65.2653 115.795 65.2653L116.287 61.9935L116.548 60.2961L117.444 54.3429C117.444 54.3429 122.664 59.3711 124.173 66.4117C125.686 73.4571 113.324 83.9465 113.324 83.9465Z" fill="#003EEE"/>
<path d="M110.782 81.4324L109.819 82.5099L111.881 84.6648L112.98 83.6595L110.782 81.4324Z" fill="#F9C5A2"/>
<path d="M99.6562 60.3781L99.4512 62.5085C98.4065 62.0083 95.2446 60.3551 91.9253 57.2391C95.2577 59.2268 99.6562 60.3781 99.6562 60.3781Z" fill="#193B9B"/>
<path d="M117.396 70.6805C117.465 68.0598 116.338 66.0885 115.935 65.4703L116.287 61.9935L116.483 60.0911C116.483 60.0911 116.504 60.1632 116.548 60.2961C116.929 61.5589 117.575 64.3616 117.719 66.9905C117.826 68.9241 117.622 70.0491 117.396 70.6805Z" fill="#193B9B"/>
<path d="M113.503 50.7661C112.955 51.7763 111.407 54.1199 109.065 54.0067C106.872 53.8968 106.493 51.2171 106.451 49.8149C107.299 49.6279 108.143 49.4869 108.917 49.4327L112.271 50.051C112.689 50.256 113.103 50.4987 113.503 50.7661Z" fill="#7297FF"/>
<path d="M108.511 44.4176L107.509 50.1756C107.509 50.1756 107.184 52.6717 109.055 52.8882C110.928 53.1047 111.953 51.2384 111.953 51.2384L112.704 44.8112L108.511 44.4176Z" fill="#F9C5A2"/>
<path d="M113.368 42.3939C113.176 45.1048 110.921 47.14 108.33 46.94C105.739 46.7399 104.478 44.8014 104.67 42.0905C104.862 39.3796 106.431 36.9212 109.022 37.1213C111.613 37.323 113.559 39.683 113.368 42.3939Z" fill="#F9C5A2"/>
<path d="M102.582 34.512C102.582 34.512 103.397 39.2336 107.059 40.0454C110.721 40.8572 112.837 40.1553 112.837 40.1553L112.939 43.9092C112.939 43.9092 115.866 40.8211 115.628 37.6805C115.39 34.5399 113.757 35.5666 113.757 35.5666C113.757 35.5666 113.396 33.5215 109.145 33.241C104.894 32.9606 102.52 30.1841 102.52 30.1841C102.52 30.1841 102.142 32.9409 102.582 34.512Z" fill="#231638"/>
<path d="M114.916 43.2238C114.843 44.2078 113.965 44.9458 112.957 44.8736C111.948 44.8014 111.192 43.9454 111.266 42.9614C111.34 41.9774 112.217 41.2394 113.226 41.3115C114.233 41.3837 114.99 42.2398 114.916 43.2238Z" fill="#F9C5A2"/>
<path d="M108.058 46.8695C108.058 46.8695 110.485 46.917 111.812 45.0491C111.812 45.0491 111.217 48.8358 107.507 50.1757L108.058 46.8695Z" fill="#C09F89"/>
<path d="M101.921 79.1316C101.921 79.1316 103.845 93.311 105.675 98.1015C107.507 102.892 108.789 104.52 108.789 104.52L109.065 100.306L101.921 79.1316Z" fill="#7D6E94"/>
<path d="M108.881 82.0522L114.239 87.7529L113.414 88.4712L108.286 82.8198L108.881 82.0522Z" fill="#7D6E94"/>
<path d="M92.8163 15.4746C93.8471 8.85182 89.3147 2.64745 82.6928 1.61674C76.0709 0.586034 69.8672 5.11929 68.8363 11.7421C67.8055 18.3648 72.3379 24.5692 78.9598 25.5999C85.5817 26.6306 91.7854 22.0974 92.8163 15.4746Z" fill="#FFC417"/>
<path opacity="0.3" d="M71.3794 14.3974C71.3761 14.2924 71.3744 14.1858 71.3744 14.0792C71.3744 8.46223 75.9271 3.90959 81.5441 3.90959C83.4498 3.90959 85.2308 4.43439 86.756 5.34459C85.0881 4.14575 83.0414 3.44055 80.829 3.44055C75.212 3.44055 70.6594 7.99319 70.6594 13.6102C70.6594 13.7168 70.661 13.8234 70.6643 13.9284C70.7742 17.5101 72.7356 20.6245 75.6237 22.3481C73.1309 20.5605 71.4794 17.6741 71.3794 14.3974Z" fill="#AA9B5C"/>
<path d="M90.9938 13.9283C90.997 13.8233 90.9987 13.7167 90.9987 13.6101C90.9987 10.2055 89.3242 7.19118 86.7544 5.34454C85.2308 4.4327 83.4481 3.90955 81.5424 3.90955C75.9254 3.90955 71.3728 8.46219 71.3728 14.0792C71.3728 14.1858 71.3744 14.2924 71.3777 14.3973C71.4778 17.6741 73.1292 20.5605 75.622 22.3481C77.1456 23.2566 78.925 23.7798 80.8274 23.7798C86.3394 23.7798 90.8248 19.3977 90.9938 13.9283Z" fill="#FFD717"/>
<path d="M46.0578 78.0376L42.7318 105.55L42.6449 106.273L41.1705 108.219L39.3928 110.565L27.9653 126.731L29.7857 129.494L50.243 110.923L55.5566 94.0112L46.0578 78.0376Z" fill="#231638"/>
<path d="M57.8198 49.8296L58.6234 61.3998C58.6234 61.3998 58.7612 61.3424 59.0187 61.2243C60.1617 60.7012 63.6205 58.9726 67.2531 55.7123C71.8599 51.5713 76.7438 44.9703 77.5097 35.25L74.6544 32.5424C74.6544 32.5424 69.6951 49.6771 57.8198 49.8296Z" fill="#CE90FF"/>
<path d="M74.6544 32.5423C74.6544 32.5423 73.3769 27.5829 74.9546 27.7322C76.5322 27.8831 77.0587 28.8589 77.6606 30.963C78.2624 33.0671 77.5097 35.2467 77.5097 35.2467L74.6544 32.5423Z" fill="#F9C5A2"/>
<path d="M58.7956 58.9972L59.0187 61.2243C60.1617 60.7012 63.6205 58.9726 67.2531 55.7123C63.6074 57.7918 58.7956 58.9972 58.7956 58.9972Z" fill="#9C71BE"/>
<path d="M77.3358 37.2524L73.9279 34.4972L74.6544 32.5424L77.5868 35.0975L77.3358 37.2524Z" fill="#231638"/>
<path d="M45.3821 79.5152L70.9333 136.905L73.4884 135.252L58.7087 78.0114L45.3821 79.5152Z" fill="#35234F"/>
<path d="M60.5127 62.8806L58.7087 78.0113L45.3821 79.5135L43.378 57.9705L50.9942 45.8459L57.1064 48.3502C57.1048 48.3519 62.3167 54.9644 60.5127 62.8806Z" fill="#CE90FF"/>
<path d="M50.717 45.8214L53.8494 38.0806L56.4537 42.4397L57.1048 48.3519L50.717 45.8214Z" fill="#F9C5A2"/>
<path d="M60.3269 39.841C61.3816 37.6467 60.4577 35.0128 58.2633 33.9581C56.069 32.9034 53.4351 33.8273 52.3804 36.0217C51.3257 38.216 52.2496 40.8499 54.444 41.9046C56.6383 42.9592 59.2722 42.0354 60.3269 39.841Z" fill="#F9C5A2"/>
<path d="M51.9011 42.9186C51.9011 42.9186 48.3882 36.1274 51.2434 33.7215C54.0987 31.3172 58.9777 31.9929 60.1306 33.7969C61.2835 35.6009 60.3126 37.9297 57.4557 37.5296C54.5989 37.1294 51.9011 42.9186 51.9011 42.9186Z" fill="#231638"/>
<path d="M54.7514 39.9354C55.6925 39.9354 56.4553 39.1725 56.4553 38.2314C56.4553 37.2904 55.6925 36.5275 54.7514 36.5275C53.8103 36.5275 53.0474 37.2904 53.0474 38.2314C53.0474 39.1725 53.8103 39.9354 54.7514 39.9354Z" fill="#F9C5A2"/>
<path d="M56.3848 48.201L55.9453 46.2297L51.2254 44.3453L49.8232 45.9968L56.3848 48.201Z" fill="#231638"/>
<path d="M54.2496 40.0355C54.2496 40.0355 55.3024 41.8641 56.4537 42.3397L56.8801 46.1724C56.8801 46.1724 54.4496 42.0888 54.2496 40.0355Z" fill="#C09F89"/>
<path d="M44.6162 67.9023C44.6162 67.9023 50.1528 58.2821 50.243 54.3756C50.243 54.3756 49.0819 64.396 47.0286 68.5042C44.9754 72.6124 45.3312 74.4164 45.3312 74.4164L44.7064 67.5022" fill="#9C71BE"/>
<path d="M38.3924 84.3992C38.3924 84.3992 38.1415 86.3032 36.4884 88.6074C34.8352 90.9116 38.2415 90.8116 39.2436 89.3585C40.2456 87.9055 41.0968 84.8994 41.0968 84.8994L38.3924 84.3992Z" fill="#F9C5A2"/>
<path d="M50.617 55.5416C50.617 55.5416 44.6047 67.1659 43.8028 74.5804C43.0008 81.9948 41.0968 84.9009 41.0968 84.9009L38.3908 84.3991C38.3908 84.3991 37.2887 70.5706 39.3928 63.0561C41.4969 55.5416 48.011 45.1194 50.5153 46.3215C53.0228 47.5253 50.617 55.5416 50.617 55.5416Z" fill="#CE90FF"/>
<path d="M109.34 20.1489V24.1817C109.34 24.4769 109.688 24.6343 109.91 24.4392L114.782 20.1489H109.34Z" fill="#EAD4FF"/>
<path d="M124.825 21.5757H110.67C109.936 21.5757 109.34 20.9803 109.34 20.2456V13.0296C109.34 12.2949 109.936 11.6996 110.67 11.6996H124.825C125.56 11.6996 126.155 12.2949 126.155 13.0296V20.2456C126.154 20.9803 125.56 21.5757 124.825 21.5757Z" fill="#CE90FF"/>
<g opacity="0.4">
<path d="M121.414 15.0895H113.367C112.971 15.0895 112.65 14.768 112.65 14.3728C112.65 13.9776 112.971 13.6561 113.367 13.6561H121.414C121.809 13.6561 122.131 13.9776 122.131 14.3728C122.131 14.768 121.809 15.0895 121.414 15.0895Z" fill="white"/>
<path d="M121.414 17.3544H113.367C112.971 17.3544 112.65 17.0329 112.65 16.6377C112.65 16.2425 112.971 15.921 113.367 15.921H121.414C121.809 15.921 122.131 16.2425 122.131 16.6377C122.131 17.0346 121.809 17.3544 121.414 17.3544Z" fill="white"/>
<path d="M121.414 19.6209H113.367C112.971 19.6209 112.65 19.2994 112.65 18.9042C112.65 18.5089 112.971 18.1875 113.367 18.1875H121.414C121.809 18.1875 122.131 18.5089 122.131 18.9042C122.131 19.2994 121.809 19.6209 121.414 19.6209Z" fill="white"/>
</g>
<path d="M131.425 53.9607C131.211 52.1797 129.837 50.7595 128.064 50.4872L127.93 50.4659C129.711 50.2527 131.131 48.8784 131.403 47.1056L131.425 46.9711L131.453 47.1088C131.799 48.839 133.179 50.1756 134.92 50.4659L134.782 50.4938C133.052 50.8398 131.715 52.2191 131.425 53.9607Z" fill="white"/>
<path d="M39.8832 38.5217C39.5174 35.4746 37.1673 33.0458 34.1333 32.5784L33.9037 32.5423C36.9508 32.1766 39.3813 29.8265 39.8471 26.7925L39.8832 26.5629L39.9307 26.7974C40.5228 29.7576 42.8844 32.0437 45.8626 32.5407L45.6281 32.5882C42.6662 33.1819 40.3801 35.5419 39.8832 38.5217Z" fill="white"/>
</g>
<defs>
<clipPath id="clip0_2602_3167">
<rect width="148" height="92" fill="white"/>
</clipPath>
</defs>
</svg>
