<svg width="22" height="22" viewBox="0 0 22 22"  xmlns="http://www.w3.org/2000/svg">
<path d="M2.524 18.822V3.17796C2.52743 2.81831 2.81833 2.52742 3.17798 2.52398H12.302V6.43499C12.302 6.79593 12.5946 7.08898 12.9559 7.08898H16.867V9.69847H17.7874C17.9979 9.69847 18.1685 9.52788 18.1685 9.31734V6.43499C18.1681 6.26312 18.0997 6.09855 17.979 5.97652L13.4445 1.41152C13.3152 1.28304 13.1377 1.21429 12.9555 1.22202H3.17798C2.10204 1.23191 1.23236 2.10159 1.22247 3.17753V18.822C1.22247 19.9023 2.09818 20.7775 3.17798 20.7775H9.69849V19.476H3.17798C2.81704 19.476 2.524 19.1834 2.524 18.822ZM13.6095 3.44652L15.944 5.78702H13.6095V3.44652Z"  stroke="#EFF6FF" stroke-width="0.1"/>
<path d="M20.2035 11.5745C19.8365 11.2088 19.3402 11.0021 18.8225 11H12.9559C11.8757 11 11.0004 11.8757 11.0004 12.9555V18.822C11.0026 19.3402 11.2093 19.8365 11.5749 20.203C11.9402 20.5713 12.4373 20.778 12.9559 20.7775H18.8225C19.9027 20.7775 20.778 19.9018 20.778 18.822V12.9555C20.7784 12.4369 20.5717 11.9397 20.2035 11.5745ZM16.5365 12.308V13.6095H15.235V12.3015L16.5365 12.308ZM19.47 18.8285C19.47 19.1894 19.1774 19.4825 18.816 19.4825H12.9555C12.5946 19.4825 12.3015 19.1898 12.3015 18.8285V12.9555C12.3015 12.5946 12.5941 12.3015 12.9555 12.3015H13.9335V14.257C13.9335 14.618 14.2261 14.911 14.5875 14.911H17.197C17.5579 14.911 17.8509 14.6184 17.8509 14.257V12.3015H18.8289C19.1898 12.3015 19.4829 12.5941 19.4829 12.9555L19.47 18.8285Z"  stroke="#EFF6FF" stroke-width="0.1"/>
<path d="M3.83151 5.78702H5.13304V7.08854H3.83151V5.78702Z"  stroke="#EFF6FF" stroke-width="0.1"/>
<path d="M6.435 5.78702H11V7.08854H6.435V5.78702Z"  stroke="#EFF6FF" stroke-width="0.1"/>
<path d="M3.83151 9.69849H5.13304V11H3.83151V9.69849Z"  stroke="#EFF6FF" stroke-width="0.1"/>
<path d="M6.435 9.69849H9.69203V11H6.435V9.69849Z"  stroke="#EFF6FF" stroke-width="0.1"/>
<path d="M3.83151 13.6095H5.13304V14.911H3.83151V13.6095Z"  stroke="#EFF6FF" stroke-width="0.1"/>
<path d="M6.435 13.6095H9.69203V14.911H6.435V13.6095Z"  stroke="#EFF6FF" stroke-width="0.1"/>
</svg>
