<?xml version="1.0" encoding="UTF-8"?>
<svg width="1200pt" height="1200pt" version="1.1" viewBox="0 0 1200 1200" xmlns="http://www.w3.org/2000/svg">
 <path d="m660.52 99.984c7.3594 47.484 13.359 53.484 60.844 60.844-47.484 7.3594-53.484 13.359-60.844 60.844-7.3594-47.484-13.359-53.484-60.844-60.844 47.484-7.3594 53.484-13.359 60.844-60.844zm-384.79 691.26-95.766 53.156 141.89 255.56 95.766-53.156zm462.94-0.60938c48.281-16.172 89.859-46.969 119.48-87.141 30.047-40.734 47.812-91.078 47.812-145.64 0-67.781-27.469-129.14-71.906-173.53-44.391-44.391-105.8-71.906-173.53-71.906-67.781 0-129.14 27.469-173.53 71.906-44.391 44.391-71.906 105.75-71.906 173.53 0 34.078 6.9375 66.516 19.453 95.953 12.703 29.906 31.172 56.766 54 79.172 24.328 2.7188 49.688 9.0469 75.75 15.609 44.156 11.062 90.609 22.734 137.21 17.344 3.8906-0.46875 7.5469-0.23438 11.016 0.5625 9.6094 2.1562 17.062 8.5781 22.359 16.969 1.4062 2.25 2.6719 4.6406 3.7969 7.1719zm-66.938-305.26 14.391 44.531 46.781-0.09375c5.2031 0 9.6094 3.1875 11.203 8.1094s-0.09375 10.125-4.3125 13.172l-37.922 27.422 14.531 44.484c1.5938 4.9219-0.046875 10.125-4.2656 13.172s-9.6562 3.0469-13.828 0l-37.781-27.562-37.781 27.562c-4.1719 3.0469-9.6562 3.0469-13.828 0-4.2188-3.0469-5.8594-8.25-4.2656-13.172l14.531-44.484-37.922-27.422c-4.2188-3.0469-5.9062-8.25-4.3125-13.172s6-8.1562 11.203-8.1094l46.781 0.09375 14.391-44.531c1.5938-4.9219 6-8.1562 11.203-8.1562s9.6094 3.2344 11.203 8.1562zm-11.203-108.52c49.969 0 95.203 20.25 127.97 53.016s53.016 78 53.016 127.97-20.25 95.203-53.016 127.97-78 53.016-127.97 53.016-95.203-20.25-127.97-53.016-53.016-78-53.016-127.97 20.25-95.203 53.016-127.97 78-53.016 127.97-53.016zm118.55 62.438c30.328 30.328 49.125 72.234 49.125 118.55s-18.75 88.219-49.125 118.55c-30.328 30.328-72.234 49.125-118.55 49.125s-88.219-18.75-118.55-49.125c-30.328-30.328-49.125-72.234-49.125-118.55s18.75-88.219 49.125-118.55c30.328-30.328 72.234-49.125 118.55-49.125 46.312 0.046875 88.219 18.797 118.55 49.125zm-373.13 559.18-94.969-171.05 86.109-61.922c46.547-33.469 103.03-19.312 163.97-4.0312 45.328 11.344 92.953 23.297 141.94 17.672 2.3906-0.28125 4.5938-0.14063 6.6094 0.28125 5.8125 1.3125 10.5 5.4844 14.016 11.062 3.8438 6.0938 6.2344 13.734 7.0781 21.281 0.60938 5.4844 0.46875 10.734-0.5625 15.188-2.25 9.9844-8.3438 18.609-16.594 24.281l-0.14062 0.09375c-0.23438 0.14062-0.42188 0.28125-0.60938 0.42187-7.875 5.2031-17.578 7.6875-27.75 6.2812l-93.234-13.078c-3.6562-0.51563-6.9844 2.0156-7.5 5.6719s2.0156 6.9844 5.6719 7.5l93.234 13.078c13.406 1.875 26.25-1.4062 36.703-8.25l239.26-105.94c17.812-7.9219 34.688-5.9531 46.219 1.2188 4.5938 2.8594 8.3438 6.5156 10.875 10.734 2.4375 4.0312 3.7969 8.5312 3.75 13.125-0.09375 9.4219-5.9531 19.781-19.875 28.875l-256.26 168.19c-11.859 7.7812-24.188 12.844-37.031 15.609-13.031 2.8125-26.625 3.3281-40.875 1.9688l-182.53-17.203c-8.2969-0.79688-16.078-0.65625-23.719 0.42188s-15.141 3.1406-22.922 6.2344zm-19.734-755.72c7.3594 47.484 13.359 53.484 60.844 60.844-47.484 7.3594-53.484 13.359-60.844 60.844-7.3594-47.484-13.359-53.484-60.844-60.844 47.484-7.3594 53.438-13.359 60.844-60.844zm609.52 60.844c-47.484 7.3594-53.484 13.359-60.844 60.844-7.3594-47.484-13.359-53.484-60.844-60.844 47.484-7.3594 53.484-13.359 60.844-60.844 7.3594 47.484 13.359 53.484 60.844 60.844z" fill-rule="evenodd"/>
</svg>
