<svg width="13" height="13" viewBox="0 0 13 13" fill="none" xmlns="http://www.w3.org/2000/svg">
<path d="M4.16006 8.80078H6.50006L10.9718 4.32899C11.1409 4.15989 11.2318 3.9522 11.2318 3.71809C11.2318 3.48398 11.1409 3.26309 10.9718 3.10719L9.86684 2.00219C9.69774 1.83309 9.49005 1.74219 9.25594 1.74219C9.02183 1.74219 8.80094 1.83309 8.64503 2.00219L4.16003 6.46075L4.16006 8.80078ZM8.99595 2.36578C9.12595 2.23578 9.36005 2.22257 9.49005 2.36578L10.595 3.47078C10.7383 3.61398 10.7383 3.83487 10.595 3.96487L9.93184 4.62808L8.33327 3.02897L8.99595 2.36578ZM4.68006 6.68167L7.96916 3.39256L9.56827 4.99167L6.27916 8.28078H4.68006V6.68167Z" fill="black" stroke="black" stroke-width="0.2"/>
<path d="M1.78088 4.05599V9.2951C1.78088 10.3742 2.66498 11.2583 3.7441 11.2583H8.83999C9.91909 11.2583 10.8032 10.3742 10.8032 9.2951V6.5001H10.2832V9.2951C10.2832 10.0883 9.63321 10.7383 8.83999 10.7383H3.73088C2.93768 10.7383 2.28767 10.0883 2.28767 9.2951L2.28817 4.05599C2.28817 3.26278 2.93818 2.61277 3.73139 2.61277H6.38317V2.09277L3.73096 2.09328C2.65186 2.10598 1.78096 2.97687 1.78096 4.05606L1.78088 4.05599Z" fill="black" stroke="black" stroke-width="0.2"/>
</svg>
