<?xml version="1.0" encoding="UTF-8"?>
<svg width="1200pt" height="1200pt" version="1.1" viewBox="0 0 1200 1200" xmlns="http://www.w3.org/2000/svg">
 <path d="m430.2 965.16h82.68c13.199 0 24-10.801 24-24 0-13.199-10.801-24-24-24h-82.68c-72.961 0-132.24-59.281-132.24-132.24v-390.24c0-72.961 59.281-132.24 132.24-132.24h234.96c72.961 0 132.24 59.281 132.24 132.24v88.801c0 13.199 10.801 24 24 24 13.199 0 24-10.801 24-24v-88.801c0-99.359-80.879-180.24-180.24-180.24h-234.96c-99.359 0-180.24 80.879-180.24 180.24v390.12c0 99.48 80.879 180.36 180.24 180.36z"/>
 <path d="m731.04 459.12c0-13.199-10.801-24-24-24h-316.68c-13.199 0-24 10.801-24 24 0 13.199 10.801 24 24 24h316.56c13.32 0 24.121-10.801 24.121-24z"/>
 <path d="m539.04 567.12h-148.68c-13.199 0-24 10.801-24 24 0 13.199 10.801 24 24 24h148.56c13.199 0 24-10.801 24-24 0.003906-13.199-10.68-24-23.879-24z"/>
 <path d="m390.36 711.12c-13.199 0-24 10.801-24 24 0 13.199 10.801 24 24 24h100.56c13.199 0 24-10.801 24-24 0-13.199-10.801-24-24-24z"/>
 <path d="m874.8 828.36c20.039-27 32.16-60.238 32.16-96.359 0-89.281-72.602-161.88-161.88-161.88-89.281 0-161.88 72.598-161.88 161.88s72.602 161.88 161.88 161.88c35.879 0 68.879-11.879 95.762-31.68l100.2 103.68c4.6797 4.9219 11.039 7.3203 17.281 7.3203 6 0 12-2.2812 16.68-6.7188 9.4805-9.2383 9.8398-24.359 0.60156-33.961zm-243.6-96.359c0-62.762 51.121-113.88 113.88-113.88 62.762 0 113.88 51.121 113.88 113.88 0 62.762-51.121 113.88-113.88 113.88s-113.88-51.117-113.88-113.88z"/>
</svg>
