<?xml version="1.0" encoding="UTF-8"?>
<svg width="1200pt" height="1200pt" version="1.1" viewBox="0 0 1200 1200" xmlns="http://www.w3.org/2000/svg">
 <path d="m1063.2 548.4c22.801-25.199 36-58.801 36-94.801 0-79.199-64.801-144-144-144s-144 64.801-144 144c0 36 13.199 69.602 36 94.801-38.398 22.801-68.398 56.398-86.398 96-15.602-16.801-33.602-32.398-54-43.199 22.801-25.199 36-58.801 36-94.801 0-79.199-64.801-144-144-144s-144 64.801-144 144c0 36 13.199 69.602 36 94.801-20.398 12-38.398 26.398-54 43.199-18-40.801-49.199-74.398-86.398-96 22.801-25.199 36-58.801 36-94.801 0-79.199-64.801-144-144-144-79.199 0-144 64.801-144 144 0 36 13.199 69.602 36 94.801-63.602 37.199-106.8 105.6-106.8 184.8v84c0 12 9.6016 21.602 21.602 21.602h333.6v30c0 12 9.6016 21.602 21.602 21.602h385.2c12 0 21.602-9.6016 21.602-21.602v-30h333.6c12 0 21.602-9.6016 21.602-21.602v-84c3.5898-79.199-39.609-147.6-103.21-184.8zm-108-195.6c55.199 0 100.8 44.398 100.8 100.8 0 56.398-44.398 100.8-100.8 100.8-55.199 0-100.8-44.398-100.8-100.8 0-56.402 45.602-100.8 100.8-100.8zm-355.2 51.598c55.199 0 100.8 44.398 100.8 100.8 0 56.398-44.398 100.8-100.8 100.8-56.398 0-100.8-44.398-100.8-100.8 0-56.398 45.602-100.8 100.8-100.8zm-355.2-51.598c55.199 0 100.8 44.398 100.8 100.8 0 56.398-44.398 100.8-100.8 100.8-56.402-0.003906-100.8-46.801-100.8-102 0-55.199 45.602-99.598 100.8-99.598zm-171.6 442.8v-62.398c0-68.398 40.801-128.4 99.602-154.8 20.398 12 45.602 19.199 70.801 19.199 26.398 0 50.398-7.1992 70.801-19.199 45.602 20.398 80.398 61.199 93.602 110.4-14.398 28.801-24 62.398-24 97.199v10.801h-310.8zm697.2 51.598h-340.8v-62.398c0-68.398 40.801-128.4 99.602-154.8 20.398 12 45.602 19.199 70.801 19.199 26.398 0 50.398-7.1992 70.801-19.199 58.801 26.398 99.602 86.398 99.602 154.8zm356.4-51.598h-312v-10.801c0-34.801-8.3984-67.199-24-97.199 13.199-49.199 48-90 93.602-110.4 20.398 12 45.602 19.199 70.801 19.199 26.398 0 50.398-7.1992 70.801-19.199 58.801 27.602 99.602 86.398 99.602 154.8l-0.003907 63.598z"/>
</svg>
