<?xml version="1.0" encoding="UTF-8"?>
<svg width="1200pt" height="1200pt" version="1.1" viewBox="0 0 1200 1200" xmlns="http://www.w3.org/2000/svg">
 <path d="m996.97 181.46h-793.98c-34.727 0.039062-68.02 13.848-92.574 38.398-24.559 24.555-38.375 57.844-38.418 92.57v575.13c0.039062 34.73 13.852 68.027 38.41 92.586 24.555 24.555 57.852 38.371 92.582 38.406h793.98c34.742-0.035156 68.051-13.855 92.617-38.426 24.562-24.57 38.379-57.883 38.41-92.625v-575.02c-0.039062-34.738-13.855-68.043-38.418-92.609-24.566-24.562-57.871-38.379-92.609-38.418zm0 36c25.195 0.027344 49.348 10.047 67.164 27.863 17.812 17.816 27.836 41.969 27.863 67.164v98.242h-84.938v-98.301c-0.007812-35.961-14.855-70.32-41.039-94.969zm95.027 535.8h-249.67c-27.441-0.035156-53.746-10.949-73.152-30.352-19.402-19.402-30.316-45.711-30.348-73.148v-99.531c0.03125-27.438 10.945-53.746 30.348-73.148 19.406-19.402 45.711-30.316 73.152-30.352h249.67zm-984 134.3v-575.13c0.027344-25.188 10.047-49.332 27.855-67.141 17.809-17.809 41.953-27.824 67.137-27.852h673.54c25.102 0.14453 49.129 10.211 66.84 28 17.711 17.793 27.664 41.863 27.695 66.965v98.305h-128.73c-36.988 0.042968-72.453 14.758-98.605 40.914s-40.859 61.621-40.895 98.609v99.531c0.042969 36.984 14.75 72.441 40.902 98.594 26.152 26.152 61.613 40.863 98.598 40.906h128.73v98.305-0.003906c-0.03125 25.105-9.9844 49.176-27.695 66.969-17.711 17.789-41.738 27.855-66.84 28h-673.54c-25.18-0.027344-49.32-10.043-67.129-27.844-17.809-17.805-27.828-41.941-27.863-67.125zm888.97 94.969h-30.973c26.184-24.648 41.031-59.008 41.039-94.969v-98.301h84.961v98.242c-0.027344 25.195-10.051 49.348-27.863 67.164-17.816 17.816-41.969 27.836-67.164 27.863z"/>
 <path d="m915.42 671c18.828-0.003906 36.887-7.4883 50.199-20.805 13.316-13.316 20.793-31.375 20.789-50.207 0-18.832-7.4844-36.891-20.801-50.203-13.316-13.316-31.375-20.793-50.207-20.793-18.828 0-36.887 7.4805-50.203 20.797-13.316 13.316-20.797 31.375-20.797 50.207 0.019531 18.828 7.5078 36.879 20.824 50.191 13.312 13.312 31.367 20.797 50.195 20.812zm0-106.01c9.2812 0.003906 18.184 3.6953 24.746 10.258 6.5625 6.5664 10.246 15.473 10.242 24.754 0 9.2812-3.6914 18.184-10.254 24.746-6.5664 6.5664-15.469 10.25-24.754 10.25-9.2812 0-18.184-3.6875-24.746-10.254-6.5664-6.5625-10.254-15.469-10.254-24.75 0.011718-9.2812 3.7031-18.184 10.27-24.746 6.5625-6.5625 15.465-10.25 24.75-10.258z"/>
</svg>
