<svg width="24" height="24" viewBox="0 0 24 24"  xmlns="http://www.w3.org/2000/svg">
<path d="M20.2499 7.51825H18.2857V3.85195C18.2857 2.27942 17.0521 1 15.5355 1H3.75014C2.23375 1 1 2.27921 1 3.85195V12.8145C1 14.3871 2.23354 15.6665 3.75014 15.6665V18.5184C3.75014 18.6732 3.83656 18.8158 3.97407 18.8851C4.02907 18.9136 4.08799 18.9258 4.14299 18.9258C4.22942 18.9258 4.31585 18.8973 4.38656 18.8362L8.20901 15.6668H8.85722V17.2964C8.85722 18.8689 10.0908 20.1483 11.6074 20.1483H16.5652L19.5977 22.8982C19.6724 22.9633 19.7627 23 19.857 23C19.912 23 19.967 22.9878 20.0181 22.9633C20.1595 22.8982 20.2499 22.7515 20.2499 22.5926V20.1483C21.7663 20.1483 23 18.8691 23 17.2963V10.3709C23 8.79839 21.7665 7.51825 20.2499 7.51825ZM8.07145 14.8513C7.98109 14.8513 7.89467 14.8839 7.82788 14.9409L4.53572 17.6705V15.2588C4.53572 15.0347 4.35894 14.8514 4.14288 14.8514H3.75003C2.66577 14.8514 1.7858 13.9388 1.7858 12.8144V3.85184C1.7858 2.72744 2.66577 1.81489 3.75003 1.81489H15.5354C16.6197 1.81489 17.4997 2.72744 17.4997 3.85184V12.8144C17.4997 13.9388 16.6197 14.8514 15.5354 14.8514L8.07145 14.8513ZM22.2139 17.2956C22.2139 18.42 21.334 19.3326 20.2497 19.3326H19.8568C19.6408 19.3326 19.464 19.5159 19.464 19.74V21.6954L16.9733 19.4345C16.9025 19.3693 16.8083 19.3326 16.714 19.3326H11.6072C10.5229 19.3326 9.64294 18.4201 9.64294 17.2957V15.6661H15.5359C17.0522 15.6661 18.286 14.3869 18.286 12.8142V8.33265H20.2502C21.3345 8.33265 22.2145 9.2452 22.2145 10.3696L22.2139 17.2956Z"  stroke="#364559" stroke-width="0.4"/>
<path d="M9.5 5.74994C9.93333 5.74994 10.35 5.90744 10.6708 6.19618C10.9917 6.48492 11.1667 6.85994 11.1667 7.24994C11.1667 7.76744 10.875 8.23995 10.3917 8.51745C9.575 8.98621 9.08333 9.74369 9.08333 10.5462V10.625C9.08333 10.8312 9.27083 11 9.5 11C9.72917 11 9.91667 10.8312 9.91667 10.625V10.5462C9.91667 10.0025 10.2625 9.48125 10.8375 9.15125C11.5667 8.73501 12 8.02625 12 7.25C12 6.66124 11.7375 6.09876 11.2583 5.6675C10.7792 5.23624 10.1542 5 9.5 5C8.12084 5 7 6.00876 7 7.25C7 7.45624 7.1875 7.625 7.41667 7.625C7.64583 7.625 7.83333 7.45625 7.83333 7.25C7.83333 6.42124 8.57916 5.74994 9.5 5.74994Z"  stroke="#364559" stroke-width="0.4"/>
<circle cx="9.5" cy="12.5" r="0.5" />
</svg>
