<svg width="10" height="10" viewBox="0 0 10 10" fill="none" xmlns="http://www.w3.org/2000/svg">
<path d="M8.94187 5.64343C8.94187 8.07781 7.2169 9.71305 5.07494 9.75C5.8403 9.72677 6.44943 9.33407 6.44943 8.20449C6.44943 7.03903 4.99998 5.52837 4.99998 5.52837C4.99998 5.52837 3.55055 7.03903 3.55055 8.20449C3.55055 9.33407 4.15967 9.72677 4.92504 9.75C2.78307 9.71305 1.05811 8.07781 1.05811 5.64343C1.05811 4.77673 1.54583 3.85196 2.17923 3.01797C1.98345 3.90455 2.67263 4.75437 3.31936 4.77144C3.44814 3.30195 3.44814 2.36135 4.99998 0.25C6.15173 2.62526 8.84791 2.86595 8.94187 5.64343Z" fill="url(#paint0_linear_2651_134)"/>
<defs>
<linearGradient id="paint0_linear_2651_134" x1="-0.921912" y1="-0.0487001" x2="9.97539" y2="10.7423" gradientUnits="userSpaceOnUse">
<stop offset="0.150754" stop-color="#003EEE"/>
<stop offset="0.854271" stop-color="#CE90FF"/>
</linearGradient>
</defs>
</svg>
