<?xml version="1.0" encoding="UTF-8"?>
<svg width="1200pt" height="1200pt" version="1.1" viewBox="0 0 1200 1200" xmlns="http://www.w3.org/2000/svg">
 <path d="m954.37 922.31-176.81-101.06c-31.125-17.812-70.688-12.375-96.375 13.312l-69.938 69.938s-1.5 0.75-1.875 0.5625c-28.875-14.062-104.44-54.938-181.87-132.37s-118.31-153-132.37-181.69c-0.1875-0.5625 0-1.3125 0.5625-2.0625l69.938-69.938c25.688-25.688 31.125-65.25 13.312-96.375l-101.06-176.81c-10.688-18.75-28.312-32.062-49.312-37.125-21.188-5.25-43.875-1.3125-62.438 10.5l-61.5 39.562c-37.5 24-62.062 63.938-65.625 107.06-8.4375 96.375 13.688 294.37 257.44 537.94 218.26 218.26 399.94 258.74 504.56 258.74 12.188 0 23.25-0.5625 33.375-1.5 43.125-3.5625 83.25-28.125 107.06-65.438l39.75-61.688c11.812-18.562 15.75-41.25 10.5-62.438-5.25-21-18.375-38.625-37.125-49.312zm-5.0625 91.312-39.75 61.688c-17.625 27.75-47.062 45.75-78.75 48.375-89.812 7.875-275.26-13.688-508.13-246.56-232.69-232.87-254.26-418.31-246.37-508.31 2.625-31.5 20.625-60.938 48.375-78.562l61.5-39.562c7.125-4.5 15-6.9375 23.062-6.9375 3.375 0 6.75 0.375 10.125 1.125 11.062 2.625 20.062 9.5625 25.688 19.312l101.25 176.81c9.375 16.5 6.375 37.5-7.3125 51.188l-69.938 69.938c-11.812 11.812-15 29.812-7.875 44.812 14.812 30.562 58.125 110.44 139.69 192s161.44 124.87 192.19 139.69c14.812 7.125 32.812 3.9375 44.625-7.875l69.938-69.938c13.688-13.688 34.875-16.688 51.188-7.3125l176.81 101.06c9.75 5.625 16.688 14.812 19.312 25.688 2.8125 11.438 0.75 23.25-5.625 33.188z"/>
 <path d="m825.19 37.5c-185.81 0-337.13 151.31-337.13 337.31 0 83.438 30.188 162.56 85.688 224.63l-80.625 80.438c-5.4375 5.4375-6.9375 13.5-4.125 20.438s9.75 11.625 17.25 11.625h318.94c186 0 337.31-151.31 337.31-337.13 0-185.82-151.31-337.31-337.31-337.31zm0 636.94h-273.56l61.5-61.312c7.3125-7.3125 7.3125-19.125 0-26.438-56.438-56.812-87.562-132-87.562-211.69 0-165.37 134.44-299.81 299.63-299.81 165.19 0 299.81 134.44 299.81 299.81s-134.44 299.63-299.81 299.63z"/>
 <path d="m993.74 309.37h-103.12v-103.12c0-10.312-8.4375-18.75-18.75-18.75h-93.75c-10.312 0-18.75 8.4375-18.75 18.75v103.12h-103.12c-10.312 0-18.75 8.4375-18.75 18.75v93.75c0 10.312 8.4375 18.75 18.75 18.75h103.12v103.12c0 10.312 8.4375 18.75 18.75 18.75h93.75c10.312 0 18.75-8.4375 18.75-18.75v-103.12h103.12c10.312 0 18.75-8.4375 18.75-18.75v-93.75c0-10.312-8.4375-18.75-18.75-18.75zm-18.75 93.75h-103.12c-10.312 0-18.75 8.4375-18.75 18.75v103.12h-56.25v-103.12c0-10.312-8.4375-18.75-18.75-18.75h-103.12v-56.25h103.12c10.312 0 18.75-8.4375 18.75-18.75v-103.12h56.25v103.12c0 10.312 8.4375 18.75 18.75 18.75h103.12z"/>
</svg>
