<?xml version="1.0" encoding="UTF-8"?>
<svg width="1200pt" height="1200pt" version="1.1" viewBox="0 0 1200 1200" xmlns="http://www.w3.org/2000/svg">
 <path d="m1141.5 816.14c-259.18-193.55-421.55 213.14-580.87-61.266-49.266-84.844-111.61-122.06-191.34-122.86-82.312-0.79688-184.82 34.781-310.64 96.047v237.28c0 96.75 79.312 176.06 176.06 176.06h730.74c96.75 0 176.06-79.312 176.06-176.06zm-1082.9-164.53v-417c0-96.75 79.312-176.06 176.06-176.06h730.74c96.75 0 176.06 79.312 176.06 176.06v498.61c-262.13-154.36-415.4 169.26-521.21-12.938-131.76-226.97-345.47-169.69-561.66-68.672zm713.95-299.48c-42.047 0-76.406 34.359-76.406 76.406 0 67.312 81.984 102.28 130.36 54.047 48.234-48.188 13.734-130.45-53.953-130.45z" fill-rule="evenodd"/>
</svg>
