<svg width="18" height="19" viewBox="0 0 18 19"  xmlns="http://www.w3.org/2000/svg">
<path d="M2.33333 18.3333V9.16668H0.666668V4.16668H5C4.93056 4.04168 4.88542 3.90973 4.86458 3.77084C4.84375 3.63195 4.83333 3.48612 4.83333 3.33334C4.83333 2.6389 5.07639 2.04862 5.5625 1.56251C6.04861 1.0764 6.63889 0.833344 7.33333 0.833344C7.65278 0.833344 7.95139 0.892371 8.22917 1.01043C8.50695 1.12848 8.76389 1.29168 9 1.50001C9.23611 1.27779 9.49306 1.11112 9.77083 1.00001C10.0486 0.888899 10.3472 0.833344 10.6667 0.833344C11.3611 0.833344 11.9514 1.0764 12.4375 1.56251C12.9236 2.04862 13.1667 2.6389 13.1667 3.33334C13.1667 3.48612 13.1528 3.62848 13.125 3.76043C13.0972 3.89237 13.0556 4.02779 13 4.16668H17.3333V9.16668H15.6667V18.3333H2.33333ZM10.6667 2.50001C10.4306 2.50001 10.2326 2.57987 10.0729 2.73959C9.9132 2.89932 9.83333 3.09723 9.83333 3.33334C9.83333 3.56945 9.9132 3.76737 10.0729 3.92709C10.2326 4.08682 10.4306 4.16668 10.6667 4.16668C10.9028 4.16668 11.1007 4.08682 11.2604 3.92709C11.4201 3.76737 11.5 3.56945 11.5 3.33334C11.5 3.09723 11.4201 2.89932 11.2604 2.73959C11.1007 2.57987 10.9028 2.50001 10.6667 2.50001ZM6.5 3.33334C6.5 3.56945 6.57986 3.76737 6.73958 3.92709C6.89931 4.08682 7.09722 4.16668 7.33333 4.16668C7.56945 4.16668 7.76736 4.08682 7.92708 3.92709C8.08681 3.76737 8.16667 3.56945 8.16667 3.33334C8.16667 3.09723 8.08681 2.89932 7.92708 2.73959C7.76736 2.57987 7.56945 2.50001 7.33333 2.50001C7.09722 2.50001 6.89931 2.57987 6.73958 2.73959C6.57986 2.89932 6.5 3.09723 6.5 3.33334ZM2.33333 5.83334V7.50001H8.16667V5.83334H2.33333ZM8.16667 16.6667V9.16668H4V16.6667H8.16667ZM9.83333 16.6667H14V9.16668H9.83333V16.6667ZM15.6667 7.50001V5.83334H9.83333V7.50001H15.6667Z" />
</svg>
