<svg width="34" height="34" viewBox="0 0 34 34" fill="none" xmlns="http://www.w3.org/2000/svg">
<path d="M15.9194 12.4227V8.84685C15.9194 7.90548 15.5432 6.9641 14.8531 6.33723V6.27454C14.2263 5.70929 13.3476 5.3337 12.4062 5.3337C11.4021 5.3337 10.524 5.70982 9.89711 6.33776L9.83443 6.40045C9.20649 7.02732 8.83036 7.90548 8.83036 8.84738C8.83036 9.85144 9.20649 10.7291 9.89711 11.3565C10.524 11.9844 11.4021 12.4232 12.4062 12.4232L15.9194 12.4227ZM18.0523 8.84685V13.4894C18.0523 14.0536 17.5503 14.5562 16.9856 14.5562H12.4051C10.8374 14.5562 9.39349 13.865 8.39049 12.862C7.32374 11.8574 6.6958 10.4151 6.6958 8.84685C6.6958 7.34129 7.32374 5.96004 8.3278 4.89435L8.39102 4.8306C9.39349 3.8276 10.8374 3.2002 12.4057 3.2002C13.9112 3.2002 15.2914 3.76491 16.2955 4.76845L16.3582 4.83113C17.4249 5.89788 18.0523 7.2786 18.0523 8.84685Z" fill="#8F8FF9"/>
<path d="M18.0524 12.4227H21.6288C22.5702 12.4227 23.4473 11.9839 24.0752 11.3559L24.1379 11.2933C24.7659 10.6653 25.142 9.7877 25.142 8.84685C25.142 7.90548 24.7659 6.9641 24.0752 6.33723V6.27454C23.4473 5.70929 22.5702 5.3337 21.6288 5.3337C20.6248 5.3337 19.7461 5.70982 19.1192 6.33776C18.4286 6.96463 18.0524 7.90601 18.0524 8.84738V12.4227ZM21.6288 14.5562H16.9857C16.4204 14.5562 15.9189 14.0536 15.9189 13.4894V8.84685C15.9189 7.2786 16.5469 5.89735 17.6126 4.8306C18.6166 3.8276 20.06 3.2002 21.6288 3.2002C23.1344 3.2002 24.5146 3.76491 25.5186 4.76845L25.5813 4.83113C26.6481 5.89788 27.276 7.27913 27.276 8.84738C27.276 10.3524 26.6481 11.7953 25.644 12.7994L25.5813 12.8626C24.5773 13.8656 23.1344 14.5562 21.6288 14.5562Z" fill="#746BF9"/>
<path d="M6.13222 19.1993H27.8396C28.4043 19.1993 28.9064 19.6382 28.9064 20.2661V26.2889C28.9064 27.5437 28.4049 28.6731 27.5889 29.4886C26.7729 30.3035 25.6434 30.8061 24.3886 30.8061H9.58269C8.39057 30.8061 7.26113 30.3035 6.44513 29.5513L6.38244 29.4886C5.56644 28.6726 5.06494 27.5432 5.06494 26.2889V20.2656C5.066 19.6382 5.56697 19.1993 6.13222 19.1993Z" fill="#746BF9"/>
<path d="M6.13214 19.1993H27.8395C28.4043 19.1993 28.9063 19.6382 28.9063 20.2661V23.3399H27.8395H6.13214H5.06592V20.2661C5.06592 19.6382 5.56689 19.1993 6.13214 19.1993Z" fill="#5858F4"/>
<path d="M16.9861 19.1993H27.8401C28.4048 19.1993 28.9068 19.6382 28.9068 20.2661V26.2889C28.9068 27.5437 28.4053 28.6731 27.5893 29.4886C26.7733 30.3035 25.6439 30.8061 24.3891 30.8061H16.9861V19.1993Z" fill="#5858F4"/>
<path d="M12.4058 12.4227H16.9863H21.6294H29.723C30.3499 12.4227 30.7898 12.8621 30.7898 13.4895V20.2656C30.7898 20.8298 30.3499 21.2696 29.723 21.2696H27.8408H6.13232H4.2501C3.62322 21.2696 3.18335 20.8292 3.18335 20.2656V13.4895C3.18335 12.8621 3.62322 12.4227 4.2501 12.4227H12.4058Z" fill="#8F8FF9"/>
<path d="M16.9861 12.4227H21.6292H29.7228C30.3497 12.4227 30.7896 12.8621 30.7896 13.4895V20.2656C30.7896 20.8298 30.3497 21.2696 29.7228 21.2696H27.8406H16.9861V12.4227Z" fill="#746BF9"/>
</svg>
