<?xml version="1.0" encoding="UTF-8"?>
<svg width="1200pt" height="1200pt" version="1.1" viewBox="0 0 1200 1200" xmlns="http://www.w3.org/2000/svg">
 <path d="m1067.7 683.39c4.8047-27.078 7.3086-54.945 7.3086-83.395 0-53.141-8.7422-104.25-24.867-151.97h-135.14c5.5273 34.184 9.2227 69.656 10.918 106.05-12.5-33.457-32.125-64.172-58.023-90.137l-64.914-64.852c-9.5352-9.5625-19.707-18.262-30.422-26.066h49.168c-35.086-123.38-97.289-214.23-168.43-245.07-5.2344-0.58594-10.496-1.0859-15.781-1.5v198.88c-4.3984-0.22656-8.8164-0.33984-13.25-0.33984-21.09 0-41.797 2.5703-61.75 7.5625v-206.1c-5.3516 0.41797-10.676 0.92578-15.977 1.5195-71.082 30.918-133.22 121.74-168.28 245.05h97.691c-10.707 7.7891-20.875 16.469-30.41 26.004l-46.555 46.555c-0.80859 0.80859-1.6094 1.6211-2.4062 2.4414h-35.492c-3.5117 19.816-6.3633 40.223-8.4961 61.129-18.031 35.188-27.578 74.41-27.578 115.09 0 67.551 26.277 131.09 74.031 178.66l24.066 24.062h-44.844c35.059 123.3 97.203 214.13 168.28 245.05 5.2969 0.59375 10.617 1.1016 15.965 1.5195v-144.63c23.457 7.8242 48.145 12.195 73.387 12.828 0.53906 0.019531 1.0742 0.03125 1.6133 0.046875v131.76c5.3906-0.42187 10.758-0.93359 16.098-1.5352 8.6016-3.7539 17.074-8.3828 25.383-13.844 12.488 28.719 30.363 55.094 53.016 77.773l19.008 19.008c-48.125 13.078-98.754 20.059-151 20.059-317.41 0-575-257.59-575-575s257.59-575 575-575 575 257.59 575 575c0 52.266-6.9844 102.91-20.07 151.05l-18.996-18.992c-20.148-20.148-43.211-36.508-68.242-48.664zm-252.87-507.09c36.262 53.68 65.215 120.84 84.613 196.73h117.86c-45.973-84.289-116.74-153.14-202.48-196.73zm-529.84 271.73h-135.11c-16.125 47.723-24.867 98.832-24.867 151.97s8.7422 104.25 24.867 151.97h135.11c-7.8242-48.418-11.977-99.414-11.977-151.97s4.1523-103.55 11.977-151.97zm100.13 575.64c-36.246-53.68-65.184-120.83-84.574-196.69h-117.83c45.957 84.266 116.7 153.1 202.41 196.69zm-0.019531-847.32c-85.699 43.594-156.43 112.43-202.39 196.68h117.82c19.391-75.863 48.324-143 84.562-196.68zm687.9 615.9 64.336 64.336c31.113 31.105 48.613 73.32 48.613 117.32 0 44.035-17.5 86.246-48.613 117.36l-46.062 46.062c-31.113 31.113-73.324 48.613-117.36 48.613-43.992 0-86.203-17.5-117.32-48.613l-64.336-64.336c-29.98-30.02-47.32-70.414-48.453-112.87-1.1328-42.457 14.098-83.699 42.457-115.3l-31.113-31.113c-31.598 28.398-72.84 43.59-115.3 42.457-42.418-1.0938-82.809-18.477-112.87-48.453l-64.297-64.293c-31.152-31.109-48.613-73.324-48.613-117.36 0-43.992 17.461-86.203 48.574-117.32l46.062-46.062c31.148-31.152 73.363-48.613 117.36-48.613 44.035 0 86.25 17.461 117.36 48.613l64.293 64.293c29.98 30.062 47.359 70.457 48.453 112.87 1.1328 42.457-14.059 83.695-42.457 115.3l31.113 31.113c31.598-28.359 72.836-43.59 115.3-42.457 42.457 1.1328 82.848 18.473 112.87 48.453zm-480.8-38.809 0.44922 0.03125c29.512 29.383 76.402 31.902 108.88 5.8398l-89.27-89.543c-15.977-16.027-15.977-41.93 0-57.922 15.977-16.027 41.898-16.027 57.875 0h0.039062l89.348 89.422c25.922-32.613 23.246-79.543-6.2695-108.96v-0.039062l-63.387-63.438c-31.957-31.938-83.719-31.938-115.63 0l-45.414 45.449c-31.91 31.984-31.91 83.789 0 115.73zm478.88 272.37 0.007812 0.003906c15.379-15.34 24.047-36.156 24.047-57.887 0.039063-21.691-8.5898-42.543-23.926-57.887v-0.039062l-63.391-63.395c-29.562-29.484-76.613-32-109.13-5.8359l89.273 89.484c15.98 16.02 15.98 41.906 0 57.887-15.977 16.02-41.898 16.02-57.879 0h-0.039063l-89.355-89.363c-26.082 32.516-23.527 79.492 5.9531 109.02l63.391 63.398c31.949 31.918 83.719 31.918 115.67 0l-0.039063 0.039063z"/>
</svg>
