<?xml version="1.0" encoding="UTF-8"?>
<svg width="1200pt" height="1200pt" version="1.1" viewBox="0 0 1200 1200" xmlns="http://www.w3.org/2000/svg">
 <path d="m622.5 1.875c-17.812-2.8125-35.625-2.8125-53.438 0-331.88 15.938-587.81 298.12-571.88 630s298.12 587.81 630 571.88 587.81-298.12 571.88-630c-15-311.25-265.31-558.75-576.56-571.88zm345.94 174.38c-23.438 22.5-59.062 42.188-103.12 57.188-8.4375-18.75-16.875-36.562-26.25-54.375-24.375-46.875-57.188-88.125-97.5-122.81 83.438 22.5 161.25 63.75 226.88 120zm-396.56-136.88h9.375v235.31c-73.125 0-146.25-10.312-217.5-28.125 49.688-116.25 123.75-194.06 208.12-207.19zm46.875 0h2.8125c83.438 13.125 157.5 90 208.12 205.31-68.438 17.812-139.69 28.125-210.94 29.062zm-263.44 140.62c-9.375 17.812-18.75 36.562-27.188 55.312-37.5-11.25-72.188-29.062-103.12-53.438 63.75-57.188 140.62-99.375 223.12-122.81-37.5 34.688-69.375 75-92.812 120.94zm508.12 787.5c39.375 11.25 75.938 29.062 108.75 53.438-67.5 60-148.12 102.19-235.31 124.69 42.188-35.625 76.875-77.812 102.19-126.56 8.4375-16.875 16.875-33.75 24.375-51.562zm-244.69 192.19v-228.75c70.312 0 140.62 9.375 209.06 25.312-50.625 115.31-124.69 192.19-209.06 203.44zm-37.5 0.9375c-85.312-8.4375-161.25-83.438-213.75-198.75 69.375-18.75 141.56-29.062 213.75-30zm-225.94-141.56c24.375 46.875 58.125 89.062 98.438 123.75-80.625-21.562-155.62-61.875-219.38-116.25 29.062-24.375 61.875-42.188 98.438-54.375 6.5625 16.875 14.062 31.875 22.5 46.875zm644.06-23.438c-36.562-28.125-77.812-49.688-121.88-62.812 2.8125-7.5 5.625-15.938 8.4375-24.375l-6.5625-6.5625c-10.312 4.6875-21.562 6.5625-32.812 4.6875-1.875 4.6875-3.75 10.312-5.625 15-73.125-18.75-148.12-28.125-223.12-28.125v-116.25h-37.5v117.19c-76.875 0.9375-153.75 12.188-227.81 32.812-18.75-48.75-31.875-98.438-41.25-150h-38.438c9.375 55.312 23.438 108.75 44.062 161.25-41.25 13.125-78.75 34.688-111.56 62.812-102.19-100.31-162.19-237.19-166.88-381.56h111.56v-37.5h-111.56c4.6875-140.62 61.875-273.75 160.31-374.06 34.688 28.125 74.062 48.75 116.25 61.875-15.938 43.125-28.125 87.188-36.562 132.19h38.438c8.4375-41.25 19.688-81.562 33.75-121.88 75.938 19.688 153.75 30 231.56 30v92.812h37.5v-90.938c75.938-0.9375 150.94-11.25 225-31.875 15 40.312 26.25 80.625 34.688 122.81h38.438c-8.4375-45.938-21.562-90.938-37.5-134.06 49.688-17.812 90-40.312 117.19-66.562 102.19 100.31 161.25 236.25 165.94 379.69h-113.44v37.5h111.56c-3.75 140.62-61.875 275.62-162.19 375.94z"/>
 <path d="m225 702.19v-224.06h750v224.06h-20.625l9.375 2.8125c15 3.75 28.125 14.062 35.625 28.125 8.4375-6.5625 14.062-16.875 14.062-28.125v-229.69c0-18.75-15.938-34.688-34.688-34.688h-756.56c-18.75 0-34.688 15.938-34.688 34.688v229.69c0 18.75 15.938 34.688 34.688 34.688h546.56c-2.8125-12.188-1.875-26.25 3.75-37.5z"/>
 <path d="m948.75 785.62 13.125-13.125c7.5-7.5 7.5-18.75 0-26.25-2.8125-2.8125-5.625-3.75-8.4375-4.6875l-125.62-32.812c-10.312-2.8125-20.625 3.75-22.5 13.125-0.9375 2.8125-0.9375 6.5625 0 9.375l32.812 125.62c2.8125 10.312 13.125 15.938 22.5 13.125 2.8125-0.9375 6.5625-2.8125 8.4375-4.6875l13.125-13.125 60.938 60.938c7.5 7.5 18.75 7.5 26.25 0l39.375-39.375c7.5-7.5 7.5-18.75 0-26.25zm8.4375 87.188-60.938-60.938c-7.5-7.5-18.75-7.5-26.25 0l-3.75 3.75-16.875-63.75 63.75 16.875-3.75 3.75c-7.5 7.5-7.5 18.75 0 26.25l60.938 60.938z"/>
</svg>
