<svg width="24" height="24" viewBox="0 0 24 24"  xmlns="http://www.w3.org/2000/svg">
<path d="M20.266 8.18301H20.272C20.379 8.18074 20.4848 8.16043 20.585 8.12301C20.61 8.11402 20.6329 8.10402 20.657 8.09301C20.681 8.08199 20.719 8.07199 20.748 8.05504C20.7768 8.03231 20.804 8.00793 20.83 7.98207C20.9304 7.90988 21.0142 7.81715 21.076 7.71003C21.1036 7.66472 21.1267 7.61683 21.145 7.56706C21.1698 7.50253 21.1873 7.43542 21.197 7.36706C21.2051 7.34175 21.2117 7.31605 21.217 7.29003L21.463 3.47503C21.4808 3.22293 21.3964 2.97433 21.229 2.78503C21.0621 2.59488 20.8265 2.47879 20.574 2.46229C20.3216 2.44581 20.0729 2.53034 19.8828 2.69713C19.6927 2.86401 19.5765 3.09955 19.56 3.35205L19.477 4.64001C17.7698 2.90961 15.5148 1.82561 13.097 1.57321C10.6794 1.32087 8.24922 1.91587 6.22142 3.25649C4.19382 4.59703 2.69442 6.60009 1.97982 8.92349C1.26506 11.2467 1.3792 13.7463 2.30272 15.9947C3.22632 18.2433 4.90192 20.1013 7.04332 21.2515C9.18472 22.4017 11.6591 22.7727 14.0437 22.301C16.4283 21.8294 18.5751 20.5444 20.1175 18.6656C21.6599 16.7868 22.5019 14.4306 22.4999 11.9998C22.5083 11.7413 22.4115 11.4905 22.2316 11.3047C22.0516 11.1188 21.8041 11.0139 21.5454 11.0139C21.2868 11.0139 21.0392 11.1188 20.8593 11.3047C20.6794 11.4905 20.5826 11.7413 20.5909 11.9998C20.6019 14.02 19.9044 15.9802 18.6197 17.5394C17.3351 19.0986 15.5447 20.1582 13.5597 20.534C11.5747 20.9097 9.52068 20.5779 7.75508 19.5961C5.98954 18.6143 4.62388 17.0447 3.89568 15.1603C3.16748 13.2758 3.12286 11.1957 3.76951 9.28187C4.41615 7.36797 5.71319 5.74107 7.43511 4.68447C9.15699 3.62783 11.1947 3.20815 13.1941 3.49837C15.1935 3.78859 17.0277 4.77041 18.3781 6.27297H16.7731C16.5147 6.26461 16.2638 6.36149 16.0779 6.54141C15.8922 6.72126 15.7872 6.96883 15.7872 7.22751C15.7872 7.48619 15.8922 7.73375 16.0779 7.91361C16.2638 8.09353 16.5147 8.19041 16.7731 8.18205L20.266 8.18301Z"  stroke="#EFF6FF" stroke-width="0.5"/>
<path d="M12 6.27301C11.7469 6.27301 11.5041 6.37356 11.3251 6.55239C11.146 6.7313 11.0452 6.97395 11.045 7.22707V12.0001C11.0459 12.3001 11.1873 12.5825 11.427 12.763L15.245 15.626C15.4094 15.7512 15.6104 15.8188 15.8171 15.8181C16.0859 15.8183 16.3424 15.7052 16.5235 15.5064C16.7047 15.3078 16.7936 15.0419 16.7686 14.7742C16.7436 14.5065 16.6068 14.2618 16.3921 14.1001L12.9551 11.5231V7.2231C12.9538 6.97068 12.8526 6.72912 12.6736 6.55106C12.4947 6.37302 12.2524 6.27301 12 6.27301Z"  stroke="#EFF6FF" stroke-width="0.5"/>
</svg>
