<?xml version="1.0" encoding="UTF-8"?>
<svg width="1200pt" height="1200pt" version="1.1" viewBox="0 0 1200 1200" xmlns="http://www.w3.org/2000/svg">
 <path d="m986.16 212.29h-28.594v-35.344c0-17.156-6.7031-33.328-18.891-45.562-12.188-12.188-28.359-18.891-45.562-18.891-35.578 0-64.547 28.922-64.547 64.453v35.344h-66.422v-35.344c0-17.156-6.7031-33.328-18.891-45.562-12.188-12.188-28.359-18.891-45.562-18.891-35.531 0-64.453 28.922-64.453 64.453v35.344h-66.516v-35.344c0-17.156-6.7031-33.328-18.891-45.562-12.188-12.188-28.359-18.891-45.562-18.891-35.531 0-64.453 28.922-64.453 64.453v35.344h-66.422v-35.344c0-17.156-6.7031-33.328-18.984-45.609-12.281-12.141-28.5-18.797-45.562-18.797-35.531 0-64.453 28.922-64.453 64.453v35.344h-28.594c-55.875 0-101.34 45.469-101.34 101.34v672.47c0 55.922 45.469 101.39 101.39 101.39h772.22c55.922 0 101.39-45.469 101.39-101.39l0.046874-672.52c0-55.875-45.469-101.34-101.34-101.34zm-121.08-35.344c0-15.422 12.609-27.938 28.078-27.938 7.4531 0 14.438 2.9062 19.734 8.2031s8.2031 12.328 8.2031 19.734v107.2c0 15.422-12.516 27.938-27.938 27.938-15.469 0-28.078-12.516-28.078-27.938zm-195.32 0c0-15.422 12.516-27.938 27.938-27.938 7.4531 0 14.438 2.9062 19.734 8.2031 5.2969 5.2969 8.2031 12.328 8.2031 19.734v107.2c0 15.422-12.516 27.938-27.938 27.938-15.422 0-27.938-12.516-27.938-27.938zm-195.42 0c0-15.422 12.516-27.938 27.938-27.938 7.4531 0 14.438 2.9062 19.734 8.2031 5.2969 5.2969 8.2031 12.328 8.2031 19.734v107.2c0 15.422-12.516 27.938-27.938 27.938-15.422 0-27.938-12.516-27.938-27.938zm-195.42 0c0-15.422 12.516-27.938 27.938-27.938 7.4531 0 14.531 2.9531 19.828 8.2031 5.2969 5.2969 8.2031 12.328 8.2031 19.734v107.2c0 15.422-12.609 27.938-28.078 27.938-15.422 0-27.938-12.516-27.938-27.938v-107.2zm-65.062 71.859h28.594v35.344c0 35.531 28.922 64.453 64.453 64.453 35.578 0 64.547-28.922 64.547-64.453v-35.344h66.422v35.344c0 35.531 28.922 64.453 64.453 64.453s64.453-28.922 64.453-64.453v-35.344h66.516v35.344c0 35.531 28.922 64.453 64.453 64.453s64.453-28.922 64.453-64.453v-35.344h66.422v35.344c0 35.531 28.969 64.453 64.547 64.453 35.531 0 64.453-28.922 64.453-64.453v-35.344h28.594c35.766 0 64.875 29.109 64.875 64.875v80.297l-902.06-0.046875v-80.297c0-35.766 29.109-64.875 64.875-64.875zm772.26 802.22-772.22-0.046875c-35.766 0-64.875-29.109-64.875-64.875v-555.66h902.02v555.66c0 35.766-29.109 64.875-64.875 64.875zm-386.11-430.55c-66.328 0-120.28 53.953-120.28 120.28 0 66.328 53.953 120.28 120.28 120.28s120.28-53.953 120.28-120.28c0-66.328-53.953-120.28-120.28-120.28zm0 204.05c-46.172 0-83.766-37.594-83.766-83.766s37.594-83.766 83.766-83.766 83.766 37.594 83.766 83.766-37.594 83.766-83.766 83.766zm-18.234-271.45v-44.672c0-10.078 8.1562-18.234 18.234-18.234s18.234 8.1562 18.234 18.234v44.672c0 10.078-8.1562 18.234-18.234 18.234s-18.234-8.1562-18.234-18.234zm36.516 375.37v44.672c0 10.078-8.1562 18.234-18.234 18.234s-18.234-8.1562-18.234-18.234v-44.672c0-10.078 8.1562-18.234 18.234-18.234s18.234 8.1562 18.234 18.234zm101.58-307.5c-7.125-7.125-7.125-18.703 0-25.781l31.594-31.594c7.125-7.125 18.656-7.125 25.781 0s7.125 18.703 0 25.828l-31.594 31.594c-3.5625 3.5625-8.25 5.3438-12.891 5.3438-4.6875 0-9.3281-1.7812-12.891-5.3438zm-239.63 239.63c7.125 7.125 7.125 18.703 0 25.781l-31.594 31.594c-3.5625 3.5625-8.25 5.3438-12.891 5.3438-4.6875 0-9.3281-1.7812-12.891-5.3438-7.125-7.125-7.125-18.703 0-25.781l31.594-31.594c7.125-7.125 18.656-7.125 25.781 0zm370.4-119.81c0 10.078-8.1562 18.234-18.234 18.234h-44.672c-10.078 0-18.234-8.1562-18.234-18.234s8.1562-18.234 18.234-18.234h44.672c10.078 0 18.234 8.1562 18.234 18.234zm-438.28 18.234h-44.672c-10.078 0-18.234-8.1562-18.234-18.234s8.1562-18.234 18.234-18.234h44.672c10.078 0 18.234 8.1562 18.234 18.234s-8.1562 18.234-18.234 18.234zm364.87 133.13c7.125 7.125 7.125 18.656 0 25.781-3.5625 3.5625-8.25 5.3438-12.891 5.3438-4.6875 0-9.3281-1.7812-12.891-5.3438l-31.594-31.594c-7.125-7.125-7.125-18.656 0-25.781s18.656-7.125 25.781 0zm-354.37-302.76c-7.125-7.125-7.125-18.656 0-25.828 7.125-7.125 18.656-7.125 25.781 0l31.594 31.594c7.125 7.125 7.125 18.656 0 25.781-3.5625 3.5625-8.25 5.3438-12.891 5.3438-4.6875 0-9.3281-1.7812-12.891-5.3438l-31.594-31.594z"/>
</svg>
