<?xml version="1.0" encoding="UTF-8"?>
<svg width="1200pt" height="1200pt" version="1.1" viewBox="0 0 1200 1200" xmlns="http://www.w3.org/2000/svg">
 <path d="m1075.9 520.05-457.5-389.25c-10.199-8.6484-25.148-8.6484-35.352 0l-459 390.95c-11.449 9.75-12.852 26.949-3.1016 38.398 5.3984 6.3516 13.051 9.6016 20.75 9.6016 6.25 0 12.551-2.1484 17.648-6.5l3.6016-3.1016v488.3c0 15.051 12.199 27.25 27.25 27.25h817.8c15.051 0 27.25-12.199 27.25-27.25v-491.4l5.3516 4.5508c11.449 9.75 28.648 8.3516 38.398-3.1016 9.75-11.5 8.3516-28.699-3.1016-38.449zm-367.75 499.45h-218.05v-318h218.05zm272.6 1.6992h-218.05v-346.95c0-15.051-12.199-27.25-27.25-27.25h-272.6c-15.051 0-27.25 12.199-27.25 27.25v346.95h-218.05v-507.45l383.2-326.4 380 323.3z"/>
</svg>
