<?xml version="1.0" encoding="UTF-8"?>
<svg width="1200pt" height="1200pt" version="1.1" viewBox="0 0 1200 1200" xmlns="http://www.w3.org/2000/svg">
 <path d="m536.28 600c0 97.887-79.355 177.24-177.24 177.24-97.887 0-177.24-79.352-177.24-177.24s79.352-177.24 177.24-177.24c97.887 0 177.24 79.352 177.24 177.24"/>
 <path d="m847.8 862.2h-495.6c-144.6 0-262.2-117.6-262.2-262.2s117.6-262.2 262.2-262.2h495.6c144.6 0 262.2 117.6 262.2 262.2 0 144.6-117.6 262.2-262.2 262.2zm-495.6-481.2c-120.72 0-219 98.281-219 219s98.281 219 219 219h495.6c120.72 0 219-98.281 219-219s-98.281-219-219-219z"/>
</svg>
