<?xml version="1.0" encoding="UTF-8"?>
<svg width="1200pt" height="1200pt" version="1.1" viewBox="0 0 1200 1200" xmlns="http://www.w3.org/2000/svg">
 <path d="m600 1125c-289.5 0-525-235.5-525-525s235.5-525 525-525 525 235.5 525 525-235.5 525-525 525zm0-975c-248.26 0-450 201.74-450 450s201.74 450 450 450 450-201.74 450-450-201.74-450-450-450zm37.5 675v-300c0-20.625-16.875-37.5-37.5-37.5s-37.5 16.875-37.5 37.5v300c0 20.625 16.875 37.5 37.5 37.5s37.5-16.875 37.5-37.5zm-10.875-423.37c6.75-7.125 10.875-16.875 10.875-26.625s-4.125-19.5-10.875-26.625c-14.25-13.875-39.375-13.875-53.25 0-6.75 7.125-10.875 16.875-10.875 26.625s4.125 19.5 10.875 26.625c7.125 6.75 16.875 10.875 26.625 10.875s19.5-4.125 26.625-10.875z"/>
</svg>
