<?xml version="1.0" encoding="UTF-8"?>
<svg width="1200pt" height="1200pt" version="1.1" viewBox="0 0 1200 1200" xmlns="http://www.w3.org/2000/svg">
 <path d="m900 75h-600c-124.08 0-225 100.92-225 225v600c0 124.08 100.92 225 225 225h600c124.08 0 225-100.92 225-225v-600c0-124.08-100.92-225-225-225zm150 825c0 82.734-67.266 150-150 150h-600c-82.734 0-150-67.266-150-150v-600c0-82.734 67.266-150 150-150h600c82.734 0 150 67.266 150 150zm-450-600c-165.42 0-300 134.58-300 300s134.58 300 300 300 300-134.58 300-300-134.58-300-300-300zm0 525c-124.08 0-225-100.92-225-225s100.92-225 225-225 225 100.92 225 225-100.92 225-225 225zm326.63-551.63c6.75 7.125 10.875 16.875 10.875 26.625s-4.125 19.5-10.875 26.625c-7.125 6.75-16.875 10.875-26.625 10.875s-19.5-4.125-26.625-10.875c-6.75-7.125-10.875-16.875-10.875-26.625s4.125-19.5 10.875-26.625c13.875-13.5 39-13.875 53.25 0z"/>
</svg>
