<?xml version="1.0" encoding="UTF-8"?>
<svg width="1200pt" height="1200pt" version="1.1" viewBox="0 0 1200 1200" xmlns="http://www.w3.org/2000/svg">
 <path d="m779.78 261.44h179.34c-53.809-75.543-159.1-195.25-218.66-247.6v202.47c-0.007813 24.887 17.637 45.133 39.328 45.133z"/>
 <path d="m992.82 479.79v-154.18h-213.05c-52.504 0-95.25-49.027-95.25-109.29v-228.42h-521.64c-37.168 0-67.293 34.566-67.293 77.227v237.69h0.14062v226.21h980.79v463.3l-980.78-0.003906v116.23c1.4766 41.145 30.922 74 67.152 74h762.66c37.164 0 67.285-34.578 67.285-77.227v-63.773h132.93v-561.75z"/>
 <path d="m779.78 261.44h179.34c-53.809-75.543-159.1-195.25-218.66-247.6v202.47c-0.007813 24.887 17.637 45.133 39.328 45.133z"/>
 <path d="m167.59 641.14h56.125v157.3c0 70.891-33.969 95.625-88.609 95.625-12.922 0-29.906-2.2109-40.984-5.9141l6.2773-45.41c7.7539 2.5859 17.723 4.4375 28.801 4.4375 23.629 0 38.398-10.707 38.398-49.477z"/>
 <path d="m270.61 644.47c17.355-2.9492 41.723-5.168 76.055-5.168 34.707 0 59.445 6.6445 76.055 19.934 15.875 12.555 26.586 33.227 26.586 57.586 0 24.375-8.125 45.047-22.891 59.082-19.199 18.094-47.629 26.223-80.863 26.223-7.3828 0-14.031-0.375-19.199-1.1133v88.977h-55.754v-245.52zm55.754 112.97c4.8008 1.1133 10.707 1.4727 18.832 1.4727 29.902 0 48.363-15.133 48.363-40.617 0-22.887-15.875-36.543-43.938-36.543-11.445 0-19.199 1.1133-23.262 2.2031v73.477h0.003906z"/>
 <path d="m692.99 878.55c-17.348 5.9023-50.211 14.02-83.066 14.02-45.414 0-78.277-11.434-101.16-33.594-22.891-21.41-35.445-53.914-35.078-90.461 0.37109-82.703 60.547-129.96 142.14-129.96 32.129 0 56.863 6.2812 69.047 12.184l-11.816 45.035c-13.66-5.9023-30.641-10.707-57.965-10.707-46.891 0-82.332 26.586-82.332 80.492 0 51.328 32.125 81.605 78.27 81.605 12.922 0 23.254-1.4727 27.691-3.6992v-52.066h-38.398v-43.934h92.664z"/>
</svg>
