<?xml version="1.0" encoding="UTF-8"?>
<svg width="1200pt" height="1200pt" version="1.1" viewBox="0 0 1200 1200" xmlns="http://www.w3.org/2000/svg">
 <path d="m423.2 774.8h-80.199c8.8008 17.398 22 41 40.199 64.398 18-23.398 31.402-47 40-64.398z"/>
 <path d="m185 1099h399.8c46.199 0 84-37.602 84-84v-306.6h-53.199c-68.398 0-124-55.602-124-124v-53h-306.6c-46.398 0-84 37.602-84 83.801v399.8c0 46.398 37.602 84 84 84zm61.199-364.2h117v-38.602c0-11 9-20 20-20s20 9 20 20v38.602h117c11 0 20 9 20 20s-9 20-20 20h-52.602c-8.6016 19.602-27.398 57.602-57.398 94.602 23.199 22.602 51.602 41.199 84.801 48.602 10.801 2.3984 17.602 13 15.199 23.801-2 9.3984-10.199 15.602-19.398 15.602-1.3984 0-3 0-4.3984-0.39844-41.398-9-75.602-31.398-103.2-58-27.801 26.602-62 49-103.4 58-1.3984 0.39844-2.8008 0.39844-4.1992 0.39844-9.1992 0-17.602-6.1992-19.602-15.602-2.3984-10.801 4.6016-21.398 15.398-23.801 33.199-7.3984 61.398-26 84.602-48.602-30-37-48.801-75-57.199-94.602h-52.602c-11 0-20-9-20-20-0.003906-11 8.9961-20 19.996-20z"/>
 <path d="m815.4 299.8-49.199 117.6h98.602z"/>
 <path d="m615.6 668.4h399.8c46.199 0 83.801-37.602 83.801-84l-0.003906-399.8c0-46.199-37.602-83.801-83.801-83.801h-399.8c-46.398 0-84 37.602-84 83.801v399.8c0 46.398 37.598 83.996 84 83.996zm67-154.8 35.199-83.801v-0.19922l79.199-189.4c3.1992-7.3984 10.398-12.199 18.398-12.199 8.1992 0 15.398 4.8008 18.602 12.199l79.199 189.4v0.19922l35 83.801c4.3984 10.199-0.39844 21.801-10.602 26-2.6016 1.1992-5.1992 1.6016-7.8008 1.6016-7.8008 0-15.199-4.6016-18.398-12.199l-30-71.602h-132l-29.801 71.602c-4.1992 10.199-16 15-26.199 10.602-10.199-4.207-15-15.805-10.797-26.004z"/>
 <path d="m223.4 489.6c11 0 20-9 20-20v-2c0-78 52.602-143.8 124-164.2l-3.6016 4.3984c-6.8008 8.6016-5.3984 21.199 3.1992 28 3.6016 3 8 4.3984 12.398 4.3984 5.8008 0 11.801-2.6016 15.602-7.6016l34.602-43.602c0.60156-0.60156 0.80078-1.6016 1.1992-2.1992 0.80078-1.1992 1.3984-2.3984 1.8008-3.6016 0.39844-1.1992 0.60156-2.6016 0.80078-3.8008 0.19922-1 0.60156-1.8008 0.60156-2.8008 0-0.39844-0.19922-0.80078-0.19922-1.1992 0-0.39844 0.19922-0.80078 0-1.1992-0.19922-1-0.60156-1.8008-0.80078-2.8008-0.39844-1.1992-0.60156-2.6016-1.1992-3.8008-0.60156-1-1.1992-2-2-3-0.80078-1.1992-1.6016-2.1992-2.6016-3-0.19922-0.19922-0.39844-0.60156-0.80078-0.80078l-43.602-34.602c-8.6016-6.8008-21.199-5.3984-28.199 3.1992-6.8008 8.6016-5.3984 21.199 3.1992 28.199l6.3984 5c-92.398 22.398-161.2 105.6-161.2 204.6v2c0.40234 11.41 9.2031 20.41 20.402 20.41z"/>
 <path d="m831.4 865.8c-8.6016-6.8008-21.199-5.3984-28.199 3.1992l-34.602 43.602c-0.60156 0.60156-0.80078 1.6016-1.1992 2.1992-0.80078 1.1992-1.3984 2.3984-1.8008 3.6016-0.39844 1.3984-0.60156 2.6016-0.80078 4-0.19922 0.80078-0.60156 1.6016-0.60156 2.3984 0 0.39844 0.19922 0.80078 0.19922 1.1992 0 1.3984 0.39844 2.6016 0.80078 4 0.39844 1.1992 0.60156 2.3984 1 3.3984 0.60156 1 1.3984 2 2 3 0.80078 1.1992 1.6016 2.1992 2.6016 3.1992 0.19922 0.19922 0.39844 0.60156 0.80078 0.80078l43.602 34.602c3.6016 3 8 4.3984 12.398 4.3984 5.8008 0 11.801-2.6016 15.602-7.6016 6.8008-8.6016 5.3984-21.199-3.1992-28.199l-6.3984-5c92.398-22.398 161.2-105.6 161.2-204.6v-2c0-11-9-20-20-20s-20 9-20 20v2c0 78-52.602 143.8-124 164.2l3.6016-4.3984c6.9961-8.5977 5.5977-21.195-3.0039-27.996z"/>
</svg>
