<?xml version="1.0" encoding="UTF-8"?>
<svg width="1200pt" height="1200pt" version="1.1" viewBox="0 0 1200 1200" xmlns="http://www.w3.org/2000/svg">
 <path d="m996 228h-144v-60h-24v60h-456v-60h-24v60h-144v744h792zm-24 720h-744v-696h120v72h24v-72h456v72h24v-72h120z"/>
 <path d="m504 624h192v-192h-192zm24-168h144v144h-144z"/>
 <path d="m732 624h192v-192h-192zm24-168h144v144h-144z"/>
 <path d="m276 852h192v-192h-192zm24-168h144v144h-144z"/>
 <path d="m504 852h192v-192h-192zm24-168h144v144h-144z"/>
 <path d="m732 852h192v-192h-192zm24-168h144v144h-144z"/>
 <path d="m276 624h192v-192h-192zm84-144h24v60h-24zm0 72h24v24h-24z"/>
</svg>
