<?xml version="1.0" encoding="UTF-8"?>
<svg width="1200pt" height="1200pt" version="1.1" viewBox="0 0 1200 1200" xmlns="http://www.w3.org/2000/svg">
 <path d="m1099.3 149.28c0-27.613-22.387-50-50-50h-353.55c-27.613 0-50 22.387-50 50s22.387 50 50 50h232.84l-338.91 338.91c-19.531 19.523-19.531 51.184 0 70.711 19.523 19.523 51.18 19.523 70.711 0l338.91-338.91v232.84c0 27.609 22.391 50 50 50 27.613 0 50-22.391 50-50zm-711.34 950.72h424.13c40.246 0 73.465 0 100.52-2.2109 28.105-2.2969 53.941-7.2266 78.211-19.59 37.629-19.172 68.227-49.77 87.398-87.398 12.363-24.27 17.297-50.105 19.59-78.211 2.2109-27.055 2.2109-60.273 2.2109-100.52v-37.066c0-27.613-22.387-50-50-50-27.613 0-50 22.387-50 50v35c0 42.828-0.039063 71.945-1.875 94.449-1.7969 21.922-5.0391 33.129-9.0234 40.949-9.5859 18.816-24.887 34.113-43.699 43.699-7.8203 3.9844-19.031 7.2305-40.949 9.0234-22.504 1.8359-51.621 1.875-94.449 1.875h-420c-42.828 0-71.945-0.039063-94.449-1.875-21.922-1.7969-33.133-5.0391-40.949-9.0234-18.816-9.5859-34.113-24.887-43.703-43.699-3.9844-7.8203-7.2305-19.031-9.0234-40.949-1.8398-22.504-1.8789-51.621-1.8789-94.449v-420c0-42.828 0.039062-71.945 1.8789-94.449 1.7891-21.922 5.0391-33.133 9.0234-40.949 9.5859-18.816 24.887-34.113 43.703-43.703 7.8203-3.9844 19.031-7.2305 40.949-9.0234 22.504-1.8398 51.617-1.8789 94.449-1.8789h35c27.613 0 50-22.387 50-50 0-27.613-22.387-50-50-50h-37.066c-40.246 0-73.465 0-100.52 2.2109-28.105 2.2969-53.941 7.2227-78.207 19.59-37.633 19.176-68.227 49.77-87.402 87.402-12.363 24.266-17.293 50.102-19.59 78.207-2.2109 27.059-2.2109 60.277-2.2109 100.52v424.13c0 40.25 0 73.469 2.2109 100.52 2.2969 28.105 7.2227 53.941 19.59 78.211 19.176 37.629 49.77 68.23 87.402 87.398 24.266 12.363 50.102 17.297 78.207 19.59 27.059 2.2109 60.277 2.2109 100.53 2.2109z" fill-rule="evenodd"/>
</svg>
