<?xml version="1.0" encoding="UTF-8"?>
<svg width="1200pt" height="1200pt" version="1.1" viewBox="0 0 1200 1200" xmlns="http://www.w3.org/2000/svg">
 <path d="m1120.7 220.78c19.875 17.531 32.391 43.172 32.391 71.719v615c0 52.781-42.844 95.625-95.625 95.625h-915c-52.781 0-95.625-42.844-95.625-95.625v-615c0-28.594 12.516-54.234 32.391-71.719 0.28125-0.28125 0.60938-0.5625 0.9375-0.84375 16.734-14.344 38.484-23.062 62.297-23.062h915c23.812 0 45.562 8.7188 62.297 23.062 0.32812 0.28125 0.65625 0.51562 0.9375 0.84375zm-1015.9 60.141c-1.125 3.6562-1.7344 7.5469-1.7344 11.578v615c0 21.75 17.625 39.375 39.375 39.375h915c21.75 0 39.375-17.625 39.375-39.375v-615c0-4.0312-0.60937-7.9688-1.7344-11.578l-478.78 341.95c-9.7969 7.0312-22.922 7.0312-32.719 0zm932.39-27.797h-874.5c122.72 87.656 437.26 312.28 437.26 312.28z" fill-rule="evenodd"/>
</svg>
