<?xml version="1.0" encoding="UTF-8"?>
<svg width="1200pt" height="1200pt" version="1.1" viewBox="0 0 1200 1200" xmlns="http://www.w3.org/2000/svg">
 <path d="m360.68 241.04h478.64c65.977 0 119.64 53.668 119.64 119.68v319.09c0 65.977-53.668 119.64-119.64 119.64h-39.883v119.64c0 15.703-9.2109 29.961-23.559 36.367-5.2266 2.3633-10.805 3.5117-16.324 3.5117-9.5938 0-19.039-3.4844-26.508-10.094l-168.14-149.46h-204.2c-65.977 0-119.64-53.668-119.64-119.64v-319.05c-0.03125-66.008 53.637-119.68 119.61-119.68zm398.88 319.29c22.023 0 40.09-18.066 40.09-40.09 0-22.023-18.066-40.09-40.09-40.09-22.023 0-40.09 18.066-40.09 40.09 0 22.023 18.035 40.09 40.09 40.09zm-159.55 0c22.023 0 40.09-18.066 40.09-40.09 0-22.023-18.066-40.09-40.09-40.09s-40.09 18.066-40.09 40.09c0 22.023 18.066 40.09 40.09 40.09zm-159.55 0c22.051 0 40.09-18.066 40.09-40.09 0-22.023-18.035-40.09-40.09-40.09-22.051 0-40.09 18.066-40.09 40.09 0.03125 22.023 18.066 40.09 40.09 40.09z"/>
</svg>
