<?xml version="1.0" encoding="UTF-8"?>
<svg width="1200pt" height="1200pt" version="1.1" viewBox="0 0 1200 1200" xmlns="http://www.w3.org/2000/svg">
 <path d="m492 1029.6c-2.3984 9.6016-3.6016 18-3.6016 28.801 0 61.199 50.398 111.6 111.6 111.6 61.199 0 111.6-50.398 111.6-111.6 0-9.6016-1.1992-19.199-3.6016-28.801z"/>
 <path d="m1053.6 906c-1.1992-9.6016-4.8008-18-10.801-25.199-1.1992-1.1992-97.199-105.6-97.199-381.6 0-214.8-144-304.8-262.8-332.4v-62.402c0-44.398-37.199-81.602-81.602-81.602-44.398 0.003906-82.801 37.203-82.801 81.602v63.602c-118.8 27.602-262.8 116.4-262.8 332.4 0 276-96 380.4-97.199 380.4-7.1992 7.1992-10.801 15.602-12 25.199v75.602h907.2z"/>
</svg>
