<?xml version="1.0" encoding="UTF-8"?>
<svg width="1200pt" height="1200pt" version="1.1" viewBox="0 0 1200 1200" xmlns="http://www.w3.org/2000/svg">
 <path d="m154.56 197.88h114.72l91.922 546h-6.9609c-60.961 0-110.52 48-110.52 107.04 0 59.039 49.559 107.16 110.52 107.16h141.36c-10.68 12-17.398 27.719-17.398 45 0 37.559 30.602 68.16 68.16 68.16 37.559 0 68.16-30.602 68.16-68.16 0-17.281-6.7188-33-17.398-45h219.48c-10.68 12-17.398 27.719-17.398 45 0 37.559 30.602 68.16 68.16 68.16 37.559 0 68.16-30.602 68.16-68.16 0-17.281-6.7188-33-17.398-45h69.961c19.078 0 34.559-15.48 34.559-34.559s-15.48-34.559-34.559-34.559h-633.85c-22.801 0-41.281-17.039-41.281-37.922 0-20.879 18.48-37.922 41.281-37.922h633.48c19.078 0 34.559-15.48 34.559-34.559 0-12.961-7.1992-24.121-17.762-30l75.238-447.84v-0.96094c0-0.35937 0.23828-0.60156 0.23828-0.96094 0-0.48047-0.23828-0.83984-0.23828-1.3203-0.12109-0.83984-0.23828-1.5586-0.48047-2.2812-0.23828-0.71875-0.48047-1.3203-0.83984-1.9219-0.35938-0.60156-0.71875-1.1992-1.1992-1.8008-0.48047-0.60156-0.96094-1.0781-1.5586-1.4414-0.60156-0.48047-1.1992-0.83984-1.8008-1.1992-0.71875-0.35938-1.4414-0.60156-2.1602-0.83984-0.48047-0.12109-0.83984-0.35938-1.1992-0.48047-0.35938 0-0.60156 0.12109-0.96094 0-0.35938 0-0.60156-0.23828-0.96094-0.23828h-714l-21.84-129.6c-2.8789-16.68-17.16-28.801-34.078-28.801l-144.12 0.007812c-19.078 0-34.559 15.48-34.559 34.559 0 18.961 15.48 34.441 34.559 34.441zm391.68 850.32c-24.84 0-45.121-20.16-45.121-45 0-24.84 20.16-45 45.121-45 24.84 0 45 20.16 45 45 0.12109 24.84-20.16 45-45 45zm320.88 0c-24.84 0-45-20.16-45-45 0-24.84 20.16-45 45-45s45 20.16 45 45c0 24.84-20.16 45-45 45zm140.16-454.68h-141.6l22.199-132.48h141.6zm-3.8398 23.039-21.359 127.32h-141.6l21.359-127.32zm-90.121-306.24h141.6l-21.602 127.68h-141.6zm-195.12 0h171.6l-21.359 127.68h-150.24zm0 150.72h146.28l-22.199 132.48h-124.08zm0 155.52h120.24l-21.359 127.32h-98.762l0.003906-127.32zm-23.039-306.24v127.68h-150.24l-21.48-127.68zm-124.08 283.2-22.199-132.48h146.28v132.48zm124.08 23.039v127.32h-98.762l-21.359-127.32zm-143.64 0 21.359 127.32h-141.6l-21.48-127.32zm-145.44-23.039-22.32-132.48h141.72l22.199 132.48zm93.961-283.2 21.48 127.68h-141.6l-21.48-127.68zm-345.48-158.52h143.88c5.6406 0 10.441 4.0781 11.398 9.6016l101.88 605.52h172.2c0.83984 0.23828 1.6797 0.48047 2.6406 0.48047 0.60156 0 1.3203 0 1.9219-0.12109 0.23828 0 0.48047-0.23828 0.83984-0.35938h234.6c0.23828 0.12109 0.48047 0.23828 0.83984 0.35938 0.60156 0.12109 1.3203 0.12109 1.9219 0.12109 0.83984 0 1.6797-0.23828 2.5195-0.48047h158.4c6.3594 0 11.52 5.1602 11.52 11.52s-5.1602 11.52-11.52 11.52h-633.36c-35.52 0-64.441 27.359-64.441 60.961s28.922 60.961 64.441 60.961h633.48c6.3594 0 11.52 5.1602 11.52 11.52s-5.1602 11.52-11.52 11.52h-633.48c-48.238 0-87.48-37.68-87.48-84s39.238-84 87.48-84h34.199l-99.719-592.08-134.16-0.003906c-6.3594 0-11.52-5.1602-11.52-11.52 0-6.3594 5.1602-11.52 11.52-11.52z"/>
</svg>
