<svg width="36" height="36" viewBox="0 0 36 36"  xmlns="http://www.w3.org/2000/svg">
<path d="M30.1348 14.2999V16.7882L30.211 16.7442L32.2462 15.544L32.9317 16.756L30.8946 17.9571L30.8214 18.0001L30.8946 18.0431L32.9327 19.2433L32.2462 20.4552L30.211 19.256L30.1348 19.212V21.7003H28.7657V19.211L28.6905 19.256L26.6534 20.4552L25.9678 19.2433L28.0059 18.0431L28.0792 18.0001L28.0059 17.9571L25.9678 16.756L26.6534 15.544L28.6905 16.7442L28.7657 16.7892V14.2999H30.1348ZM22.543 14.2999V16.7882L22.6182 16.7442L24.6544 15.544L25.3399 16.756L23.3028 17.9571L23.2296 18.0001L23.3028 18.0431L25.3399 19.2433L24.6544 20.4552L22.6182 19.256L22.543 19.212V21.7003H21.1729V19.211L21.0977 19.256L19.0616 20.4552L18.3751 19.2433L20.4131 18.0431L20.4864 18.0001L20.4131 17.9571L18.376 16.756L19.0616 15.544L21.0977 16.7442L21.1729 16.7892V14.2999H22.543ZM14.8262 14.2999V16.7882L14.9024 16.7442L16.9376 15.544L17.6231 16.756L15.586 17.9571L15.5128 18.0001L15.586 18.0431L17.6241 19.2433L16.9376 20.4552L14.9024 19.256L14.8262 19.212V21.7003H13.4571V19.211L13.3809 19.256L11.3448 20.4552L10.6592 19.2433L12.6973 18.0431L12.7696 18.0001L12.6973 17.9571L10.6592 16.756L11.3448 15.544L13.3809 16.7442L13.4571 16.7892V14.2999H14.8262ZM7.23444 14.2999V16.7882L7.31061 16.7442L9.34576 15.544L10.0313 16.756L7.9942 17.9571L7.92096 18.0001L7.9942 18.0431L10.0323 19.2433L9.34576 20.4552L7.31061 19.256L7.23444 19.212V21.7003H5.8653V19.211L5.78912 19.256L3.75299 20.4552L3.06744 19.2433L5.10553 18.0431L5.1778 18.0001L5.10553 17.9571L3.06744 16.756L3.75299 15.544L5.78912 16.7442L5.8653 16.7892V14.2999H7.23444Z"  stroke="#EFF6FF" stroke-width="0.1"/>
</svg>
