<?xml version="1.0" encoding="UTF-8"?>
<svg width="1200pt" height="1200pt" version="1.1" viewBox="0 0 1200 1200" xmlns="http://www.w3.org/2000/svg">
 <path d="m1144.9 358.02-340.57-340.62c-3.457-3.4414-8.1133-5.3984-12.984-5.3984h-385.78c-89.785 0-162.83 73.066-162.83 162.85v322.27h-142.92c-27.613 0-50.074 22.465-50.074 50.074v287.84c0 27.613 22.465 50.074 50.074 50.074h142.91v140.04c0.011718 89.777 73.047 162.84 162.84 162.84h581.89c89.785 0 162.83-73.066 162.83-162.85l0.003907-654.12c-0.011719-4.8711-1.9453-9.5625-5.3906-13.008zm-929.98 431.63v-197c0-10.152 8.2188-18.371 18.371-18.371h59.195c42.742 0 77.543 34.801 77.543 77.543v2.4844c0 42.77-34.801 77.543-77.543 77.543h-40.836v57.816c0 10.152-8.2188 18.371-18.348 18.371-10.16 0-18.383-8.2305-18.383-18.383zm197.87 0v-197c0-10.152 8.2188-18.371 18.348-18.371h59.195c42.77 0 77.543 34.801 77.543 77.543v78.672c0 42.742-34.777 77.543-77.543 77.543h-59.195c-10.117 0-18.348-8.2305-18.348-18.383zm323.59-127.73c10.152 0 18.371 8.2188 18.371 18.348 0 10.152-8.2188 18.371-18.371 18.371h-85.355v91.008c0 10.152-8.2188 18.371-18.348 18.371-10.152 0-18.371-8.2188-18.371-18.371v-197c0-10.152 8.2188-18.371 18.371-18.371h118.36c10.129 0 18.348 8.2188 18.348 18.371 0 10.129-8.2188 18.348-18.348 18.348h-100.01v50.914h85.355zm377.17 363.23c0 69.551-56.566 126.12-126.1 126.12h-581.89c-69.527 0-126.1-56.566-126.1-126.12v-140.04h604.98c27.613 0 50.074-22.465 50.074-50.074l0.003907-287.84c0-27.613-22.465-50.074-50.074-50.074h-604.99v-322.27c0-69.551 56.566-126.12 126.1-126.12h367.4v285.5c0 30.406 24.719 55.152 55.078 55.152h285.5v635.76zm-821.06-330.04h-40.836v-84.109h40.836c22.512 0 40.812 18.312 40.812 40.812v2.4844c0 22.512-18.312 40.812-40.812 40.812zm197.84 76.188h-40.812v-160.3h40.812c22.512 0 40.812 18.312 40.812 40.812v78.672c0.011719 22.512-18.301 40.812-40.812 40.812z"/>
</svg>
