<?xml version="1.0" encoding="UTF-8"?>
<svg width="1200pt" height="1200pt" version="1.1" viewBox="0 0 1200 1200" xmlns="http://www.w3.org/2000/svg">
 <path d="m118.86 656.57c17.355-2.9492 41.723-5.168 76.055-5.168 34.707 0 59.445 6.6445 76.055 19.934 15.875 12.555 26.586 33.227 26.586 57.586 0 24.375-8.125 45.047-22.891 59.082-19.199 18.094-47.629 26.223-80.863 26.223-7.3828 0-14.031-0.375-19.199-1.1133v88.977h-55.742zm55.754 112.98c4.8008 1.1133 10.707 1.4727 18.832 1.4727 29.906 0 48.371-15.133 48.371-40.617 0-22.887-15.875-36.543-43.938-36.543-11.445 0-19.199 1.1133-23.262 2.2031z"/>
 <path d="m333.38 656.57c20.676-3.3281 47.629-5.168 76.055-5.168 47.262 0 77.906 8.4844 101.91 26.578 25.848 19.188 42.086 49.852 42.086 93.777 0 47.617-17.355 80.48-41.355 100.79-26.215 21.777-66.086 32.125-114.82 32.125-29.168 0-49.848-1.8477-63.871-3.6992v-244.41zm56.492 203.06c4.8008 1.1094 12.555 1.1094 19.57 1.1094 50.953 0.38281 84.184-27.691 84.184-87.125 0.37109-51.68-29.906-79.016-78.277-79.016-12.555 0-20.676 1.1211-25.477 2.2109z"/>
 <path d="m590.36 653.24h152.11v46.152l-95.625 0.003907v56.863h89.348v45.777l-89.348-0.003906v100.05h-56.492z"/>
 <path d="m779.78 273.55h179.34c-53.809-75.543-159.1-195.25-218.66-247.6v202.47c-0.007813 24.887 17.637 45.133 39.328 45.133z"/>
 <path d="m992.82 491.89v-154.18h-213.05c-52.504 0-95.25-49.027-95.25-109.29v-228.42h-521.64c-37.168 0-67.293 34.566-67.293 77.227v237.69h0.14062v226.21h980.79v463.3l-980.78-0.003906v116.23c1.4766 41.145 30.922 74 67.152 74h762.66c37.164 0 67.285-34.578 67.285-77.227v-63.773h132.93v-561.75z"/>
</svg>
