<?xml version="1.0" encoding="UTF-8"?>
<svg width="1200pt" height="1200pt" version="1.1" viewBox="0 0 1200 1200" xmlns="http://www.w3.org/2000/svg">
 <path d="m756 660c-56.016 0.14062-101.34 45.516-101.39 101.53v258.47h-546.61c-41.484-0.14062-75.094-33.75-75.234-75.234v-66.375c-0.09375-115.36 49.781-225.1 136.74-300.89 86.906-75.797 202.45-110.25 316.69-94.406 114.28 15.797 216.1 80.344 279.19 176.9zm410.86 101.53v306.47c-0.046875 37.734-30.656 68.297-68.391 68.297h-342.47c-37.547-0.28125-67.875-30.75-67.922-68.297v-306.37c0.046875-37.547 30.375-68.062 67.922-68.391h342.84c37.734 0.09375 68.344 30.656 68.391 68.391zm-75.703 153.1c0.046875-77.953-54.938-145.13-131.39-160.4-76.453-15.281-153.1 25.594-183 97.594-29.906 72-4.7812 155.11 60 198.47 64.781 43.406 151.22 34.969 206.39-20.062 30.703-30.656 48-72.234 48-115.59zm-71.156-92.25c44.109 44.016 50.953 113.02 16.359 164.86-34.547 51.797-100.92 72-158.48 48.188s-90.281-84.984-78.188-146.06c12.141-61.125 65.719-105.14 128.02-105.14 34.641-0.046875 67.828 13.688 92.297 38.156zm-1.3125 38.766c-5.6719-6.7969-15.609-7.9688-22.688-2.6719l-96 76.453-37.312-44.062c-5.8594-7.0781-16.312-8.1094-23.391-2.25-7.125 5.8125-8.1094 16.312-2.2969 23.391l48 56.156c5.7656 6.8438 15.938 7.8281 22.922 2.2969l108-86.297c6.9375-5.7188 8.1094-15.891 2.625-23.016zm-586.69-415.08c50.672-0.046875 99.234-20.203 135.05-56.062 35.812-35.812 55.875-84.422 55.875-135.1 0-50.625-20.156-99.234-56.016-135.05-35.812-35.812-84.422-55.922-135.05-55.922-50.672 0.046875-99.281 20.156-135.1 55.969-35.812 35.859-55.922 84.422-55.922 135.1 0 50.672 20.156 99.281 56.016 135.14 35.812 35.812 84.469 55.922 135.14 55.922zm348 81.938h58.688c5.9531 0.046875 11.109-4.2656 12-10.219 5.5312-40.359 41.344-69.609 82.031-66.891 40.688 2.6719 72.328 36.328 72.516 77.109v132h82.078v-132c3.5625-88.172-65.062-162.52-153.24-166.08-88.176-3.5625-162.52 65.062-166.08 153.24-0.32812 3.2812 0.84375 6.5156 3.1406 8.9062 2.25 2.4844 5.4844 3.9375 8.8594 3.9375z" fill-rule="evenodd"/>
</svg>
