<?xml version="1.0" encoding="UTF-8"?>
<svg width="1200pt" height="1200pt" version="1.1" viewBox="0 0 1200 1200" xmlns="http://www.w3.org/2000/svg">
 <path d="m118.86 656.57c17.355-2.9492 41.723-5.168 76.055-5.168 34.707 0 59.445 6.6445 76.055 19.934 15.875 12.555 26.586 33.227 26.586 57.586 0 24.375-8.125 45.047-22.891 59.078-19.199 18.098-47.629 26.227-80.863 26.227-7.3828 0-14.031-0.375-19.199-1.1211v88.977h-55.742zm55.754 112.97c4.8008 1.1211 10.707 1.4766 18.832 1.4766 29.906 0 48.371-15.133 48.371-40.617 0-22.887-15.875-36.547-43.938-36.547-11.445 0-19.199 1.1211-23.262 2.2109z"/>
 <path d="m333.38 902.09v-248.85l65.723-0.003906 51.688 91.199c14.77 26.215 29.539 57.227 40.617 85.285h1.1094c-3.6914-32.863-4.8008-66.469-4.8008-103.75v-72.738h51.688v248.85h-59.078l-53.168-95.988c-14.77-26.586-31.016-58.715-43.199-87.883l-1.1094 0.38281c1.4766 32.863 2.2148 67.934 2.2148 108.55v74.953l-51.684 0.003907z"/>
 <path d="m796.01 890.66c-17.355 5.9023-50.215 14.012-83.078 14.012-45.41 0-78.277-11.426-101.16-33.594-22.891-21.41-35.445-53.906-35.078-90.457 0.37109-82.703 60.555-129.96 142.15-129.96 32.117 0 56.848 6.2812 69.039 12.184l-11.816 45.035c-13.668-5.9023-30.645-10.707-57.969-10.707-46.887 0-82.332 26.586-82.332 80.492 0 51.324 32.129 81.602 78.27 81.602 12.934 0 23.27-1.4648 27.691-3.6914v-52.066h-38.395v-43.934h92.676l0.007813 131.09z"/>
 <path d="m779.78 273.55h179.34c-53.809-75.543-159.1-195.25-218.66-247.6v202.47c-0.007813 24.887 17.637 45.133 39.328 45.133z"/>
 <path d="m992.82 491.89v-154.18h-213.05c-52.504 0-95.25-49.027-95.25-109.29v-228.42h-521.64c-37.168 0-67.293 34.566-67.293 77.227v237.69h0.14062v226.21h980.79v463.3l-980.78-0.003906v116.23c1.4766 41.145 30.922 74 67.152 74h762.66c37.164 0 67.285-34.578 67.285-77.227v-63.773h132.93v-561.75z"/>
</svg>
