<?xml version="1.0" encoding="UTF-8"?>
<svg width="1200pt" height="1200pt" version="1.1" viewBox="0 0 1200 1200" xmlns="http://www.w3.org/2000/svg">
 <path d="m1167 555.98-176.53-101.91 176.53-101.91c8.625-4.9688 11.578-15.938 6.6094-24.562-1.5938-2.7656-3.8438-5.0625-6.6094-6.6094l-354.47-204.66c-5.5781-3.2344-12.422-3.2344-18 0l-92.766 53.578-92.766-53.578c-5.5781-3.2344-12.422-3.2344-18 0l-92.766 53.578-92.766-53.578c-5.5781-3.2344-12.422-3.2344-18 0l-354.47 204.66c-8.625 4.9688-11.578 15.938-6.6094 24.562 1.5938 2.7656 3.8438 5.0625 6.6094 6.6094l176.53 101.86-176.53 101.95c-8.625 4.9688-11.578 15.938-6.6094 24.562 1.5469 2.7656 3.8438 5.0625 6.6094 6.6562l194.53 112.31v163.92c0 6.4219 3.4219 12.375 9 15.609l354.47 204.61c5.5781 3.2344 12.422 3.2344 18 0l354.47-204.66c5.5781-3.2344 9-9.1875 9-15.609v-163.92l194.53-112.31c8.625-4.9688 11.578-15.938 6.6094-24.562-1.5938-2.7656-3.8438-5.0625-6.6094-6.6094zm-363.47-403.26 318.47 183.89-167.53 96.703-75.469-43.594v-107.11c0-6.4219-3.4219-12.375-9-15.609l-132.24-76.359zm-725.53 183.89 318.47-183.89 65.766 37.969-132.24 76.359c-5.5781 3.2344-9 9.1875-9 15.609v107.11l-75.469 43.594zm0 234.98 167.53-96.703 318.47 183.89-167.53 96.656zm504 465.32-318.47-183.89v-132.79l123.98 71.578c5.5781 3.2344 12.422 3.2344 18 0l176.48-101.91zm18-624.42-225-129.89 225-129.89 225 129.89zm243-98.719v183.89l-225 129.94v-183.94zm93.469 539.26-318.47 183.89v-347.02l176.53 101.91c5.5781 3.2344 12.422 3.2344 18 0l123.98-71.578zm-132.94-97.594-167.53-96.656 318.47-183.94 167.53 96.75z"/>
</svg>
