<svg width="24" height="24" viewBox="0 0 24 24"  xmlns="http://www.w3.org/2000/svg">
<path d="M4.84961 20.1504H19.1504V8.84961H4.84961V20.1504ZM14.8496 12.1504V13.8496H9.15039V12.1504H14.8496ZM3.84961 7.15039H20.1504V3.84961H3.84961V7.15039ZM3.15039 8.64062L3.07812 8.59668C2.7976 8.42521 2.57304 8.20414 2.40234 7.93262C2.2357 7.6675 2.15039 7.35837 2.15039 7V4C2.15039 3.55385 2.28734 3.1665 2.56543 2.83301L2.69336 2.69336C3.05712 2.3296 3.4901 2.15039 4 2.15039H20C20.4461 2.15039 20.8335 2.28734 21.167 2.56543L21.3066 2.69336C21.6704 3.05712 21.8496 3.4901 21.8496 4V7C21.8496 7.35837 21.7643 7.6675 21.5977 7.93262C21.427 8.20414 21.2024 8.42521 20.9219 8.59668L20.8496 8.64062V20C20.8496 20.5099 20.6704 20.9429 20.3066 21.3066C19.9429 21.6704 19.5099 21.8496 19 21.8496H5C4.4901 21.8496 4.05712 21.6704 3.69336 21.3066C3.3296 20.9429 3.15039 20.5099 3.15039 20V8.64062Z"  stroke="#EFF6FF" stroke-width="0.3"/>
</svg>
