<?xml version="1.0" encoding="UTF-8"?>
<svg width="1200pt" height="1200pt" version="1.1" viewBox="0 0 1200 1200" xmlns="http://www.w3.org/2000/svg">
 <path d="m600.05 79.375c-287.31 0-520.68 233.26-520.68 520.57s233.37 520.68 520.68 520.68 520.57-233.37 520.57-520.68-233.26-520.57-520.57-520.57zm0 37.5c267.04 0 483.07 216.02 483.07 483.07 0 267.05-216.02 483.18-483.07 483.18-267.04 0-483.18-216.13-483.18-483.18 0-267.05 216.13-483.07 483.18-483.07zm-0.035157 146.41c-89.285 0.003907-174.91 35.473-238.05 98.609-63.133 63.133-98.602 148.76-98.609 238.05-0.003906 59.098 15.551 117.16 45.098 168.34s72.047 93.688 123.23 123.24c51.18 29.555 109.23 45.113 168.34 45.117 59.102 0.003906 117.16-15.555 168.35-45.105 51.184-29.551 93.688-72.055 123.24-123.24 29.551-51.188 45.105-109.25 45.102-168.35 0-59.098-15.562-117.16-45.113-168.34-29.551-51.18-72.055-93.68-123.24-123.23-51.184-29.547-109.24-45.098-168.34-45.094z"/>
</svg>
