<svg width="24" height="24" viewBox="0 0 24 24"  xmlns="http://www.w3.org/2000/svg">
<path d="M14 1.2002C14.6833 1.2002 15.2716 1.40794 15.7734 1.8252L15.9834 2.0166C16.5288 2.562 16.7998 3.2191 16.7998 4C16.7998 4.08561 16.7957 4.16759 16.7881 4.24609L16.7539 4.47168C16.7232 4.61744 16.677 4.76884 16.6143 4.92578L16.5049 5.2002H21.7998V10.7998H19.7998V21.7998H4.2002V10.7998H2.2002V5.2002H7.54004L7.375 4.90332C7.321 4.80611 7.28125 4.70504 7.25586 4.60059L7.23535 4.49512C7.21197 4.33914 7.2002 4.17418 7.2002 4C7.2002 3.31671 7.40794 2.72843 7.8252 2.22656L8.0166 2.0166C8.562 1.4712 9.2191 1.2002 10 1.2002C10.2685 1.2002 10.5221 1.23693 10.7617 1.31055L10.9971 1.39648C11.3097 1.52937 11.5993 1.71389 11.8672 1.9502L12.0039 2.07031L12.1367 1.94531C12.4033 1.69443 12.6909 1.50902 12.999 1.38574C13.3072 1.26248 13.6404 1.2002 14 1.2002ZM5.7998 20.2002H11.2002V10.7998H5.7998V20.2002ZM12.7998 20.2002H18.2002V10.7998H12.7998V20.2002ZM3.7998 9.2002H11.2002V6.7998H3.7998V9.2002ZM12.7998 9.2002H20.2002V6.7998H12.7998V9.2002ZM10 2.7998C9.70809 2.7998 9.45 2.88776 9.23535 3.06445L9.14648 3.14648C8.91546 3.37751 8.7998 3.6663 8.7998 4C8.7998 4.29191 8.88776 4.55 9.06445 4.76465L9.14648 4.85352C9.37751 5.08454 9.6663 5.2002 10 5.2002C10.2919 5.2002 10.55 5.11224 10.7646 4.93555L10.8535 4.85352C11.0845 4.62249 11.2002 4.3337 11.2002 4C11.2002 3.70809 11.1122 3.45 10.9355 3.23535L10.8535 3.14648C10.6225 2.91546 10.3337 2.7998 10 2.7998ZM14 2.7998C13.7081 2.7998 13.45 2.88776 13.2354 3.06445L13.1465 3.14648C12.9155 3.37751 12.7998 3.6663 12.7998 4C12.7998 4.3337 12.9155 4.62249 13.1465 4.85352C13.3775 5.08454 13.6663 5.2002 14 5.2002C14.3337 5.2002 14.6225 5.08454 14.8535 4.85352C15.0845 4.62249 15.2002 4.3337 15.2002 4C15.2002 3.70809 15.1122 3.45 14.9355 3.23535L14.8535 3.14648C14.6225 2.91546 14.3337 2.7998 14 2.7998Z"  stroke="#EFF6FF" stroke-width="0.4"/>
</svg>
