<svg width="26" height="26" viewBox="0 0 26 26" fill="none" xmlns="http://www.w3.org/2000/svg">
<path d="M4.33334 5.41675C4.33334 4.81847 4.81839 4.33341 5.41667 4.33341H7.58334C8.18162 4.33341 8.66667 3.84836 8.66667 3.25008C8.66667 2.6518 8.18162 2.16675 7.58334 2.16675H5.41667C3.62172 2.16675 2.16667 3.62179 2.16667 5.41675V7.58341C2.16667 8.1817 2.65172 8.66675 3.25001 8.66675C3.84829 8.66675 4.33334 8.1817 4.33334 7.58341V5.41675Z" fill="white"/>
<path d="M21.6667 20.5833C21.6667 21.1815 21.1816 21.6666 20.5833 21.6666H18.4167C17.8184 21.6666 17.3333 22.1516 17.3333 22.7499C17.3333 23.3482 17.8184 23.8333 18.4167 23.8333H20.5833C22.3783 23.8333 23.8333 22.3782 23.8333 20.5833V18.4166C23.8333 17.8183 23.3483 17.3333 22.75 17.3333C22.1517 17.3333 21.6667 17.8183 21.6667 18.4166V20.5833Z" fill="white"/>
<path d="M4.33334 20.5833C4.33334 21.1815 4.81839 21.6666 5.41667 21.6666H7.58334C8.18162 21.6666 8.66667 22.1516 8.66667 22.7499C8.66667 23.3482 8.18162 23.8333 7.58334 23.8333H5.41667C3.62172 23.8333 2.16667 22.3782 2.16667 20.5833V18.4166C2.16667 17.8183 2.65172 17.3333 3.25001 17.3333C3.84829 17.3333 4.33334 17.8183 4.33334 18.4166V20.5833Z" fill="white"/>
<path d="M20.5833 4.33341C21.1816 4.33341 21.6667 4.81847 21.6667 5.41675V7.58341C21.6667 8.1817 22.1517 8.66675 22.75 8.66675C23.3483 8.66675 23.8333 8.1817 23.8333 7.58341V5.41675C23.8333 3.62179 22.3783 2.16675 20.5833 2.16675H18.4167C17.8184 2.16675 17.3333 2.6518 17.3333 3.25008C17.3333 3.84836 17.8184 4.33341 18.4167 4.33341H20.5833Z" fill="white"/>
<path d="M6.5 10.8333C6.5 11.4316 6.98505 11.9167 7.58333 11.9167H10.8333C11.4316 11.9167 11.9167 11.4316 11.9167 10.8333V7.58333C11.9167 6.98505 11.4316 6.5 10.8333 6.5H7.58333C6.98505 6.5 6.5 6.98505 6.5 7.58333V10.8333Z" fill="white"/>
<path d="M6.5 18.4166C6.5 19.0149 6.98505 19.4999 7.58333 19.4999H10.8333C11.4316 19.4999 11.9167 19.0149 11.9167 18.4166V15.1666C11.9167 14.5683 11.4316 14.0833 10.8333 14.0833H7.58333C6.98505 14.0833 6.5 14.5683 6.5 15.1666V18.4166Z" fill="white"/>
<path d="M14.0833 10.8333C14.0833 11.4316 14.5684 11.9167 15.1667 11.9167H18.4167C19.0149 11.9167 19.5 11.4316 19.5 10.8333V7.58333C19.5 6.98505 19.0149 6.5 18.4167 6.5H15.1667C14.5684 6.5 14.0833 6.98505 14.0833 7.58333V10.8333Z" fill="white"/>
<path d="M14.0833 18.4166C14.0833 19.0149 14.5684 19.4999 15.1667 19.4999H18.4167C19.0149 19.4999 19.5 19.0149 19.5 18.4166V15.1666C19.5 14.5683 19.0149 14.0833 18.4167 14.0833H15.1667C14.5684 14.0833 14.0833 14.5683 14.0833 15.1666V18.4166Z" fill="white"/>
</svg>
