<svg width="22" height="22" viewBox="0 0 22 22"  xmlns="http://www.w3.org/2000/svg">
<path d="M1.97988 8.26038C2.41102 8.26038 2.76009 7.91122 2.76015 7.4801V3.80823C2.7611 3.22977 3.22955 2.76133 3.80801 2.76038H7.47988C7.91105 2.76037 8.26015 2.41127 8.26015 1.9801C8.26015 1.57596 7.95344 1.24374 7.55996 1.20374L7.47988 1.19983H3.80801C2.36875 1.20155 1.20137 2.36883 1.19961 3.80823V7.4801C1.19967 7.91118 1.5488 8.26031 1.97988 8.26038Z"  stroke="#EFF6FF" stroke-width="0.2"/>
<path d="M20.0199 8.26025C20.451 8.26025 20.8001 7.9111 20.8002 7.47998V3.80811C20.7986 2.45878 19.7726 1.34837 18.4584 1.21338L18.1918 1.19971H14.5199C14.0888 1.19977 13.7396 1.54885 13.7396 1.97998C13.7396 2.41111 14.0888 2.76019 14.5199 2.76025H18.1918C18.7702 2.7612 19.2387 3.22964 19.2396 3.80811V7.47998C19.2397 7.9111 19.5887 8.26025 20.0199 8.26025Z"  stroke="#EFF6FF" stroke-width="0.2"/>
<path d="M14.52 20.8003H18.1919C19.6312 20.7986 20.7984 19.6312 20.8003 18.1919V14.52C20.8003 14.3128 20.718 14.1145 20.5718 13.9682C20.4255 13.822 20.2272 13.7397 20.02 13.7397C19.5888 13.7397 19.2397 14.0888 19.2397 14.52V18.1919C19.2388 18.7703 18.7703 19.2388 18.1919 19.2397H14.52C14.0889 19.2398 13.7397 19.5889 13.7397 20.02C13.7398 20.4511 14.0889 20.8002 14.52 20.8003Z"  stroke="#EFF6FF" stroke-width="0.2"/>
<path d="M3.80801 20.8004H7.47988C7.91102 20.8004 8.26009 20.4512 8.26015 20.0201C8.26015 19.5889 7.91105 19.2398 7.47988 19.2398H3.80801L3.70058 19.234C3.1726 19.1795 2.76105 18.7342 2.76015 18.192V14.5201C2.76015 14.3129 2.67791 14.1146 2.53164 13.9684C2.38538 13.8222 2.187 13.7398 1.97988 13.7398C1.54876 13.7399 1.19961 14.089 1.19961 14.5201V18.192C1.20133 19.6312 2.36867 20.7985 3.80801 20.8004Z"  stroke="#EFF6FF" stroke-width="0.2"/>
<path d="M10.0197 17.0604V11.9803H4.93961V17.0604H10.0197ZM6.50016 13.5399H8.46012V15.4998H6.50016V13.5399Z"  stroke="#EFF6FF" stroke-width="0.2"/>
<path d="M17.0597 17.0604V11.9803H11.9796V17.0604H17.0597ZM13.5402 13.5399H15.5001V15.4998H13.5402V13.5399Z"  stroke="#EFF6FF" stroke-width="0.2"/>
<path d="M10.0197 10.0204V4.94031H4.93961V10.0204H10.0197ZM6.50016 6.49988H8.46012V8.45984H6.50016V6.49988Z"  stroke="#EFF6FF" stroke-width="0.2"/>
<path d="M17.0597 10.0204V4.94031H11.9796V10.0204H17.0597ZM13.5402 6.49988H15.5001V8.45984H13.5402V6.49988Z"  stroke="#EFF6FF" stroke-width="0.2"/>
</svg>
