<?xml version="1.0" encoding="UTF-8"?>
<svg width="1200pt" height="1200pt" version="1.1" viewBox="0 0 1200 1200" xmlns="http://www.w3.org/2000/svg">
 <path d="m1184.6 464.76c-1.5469-3.9336-3.6055-7.6484-6.1211-11.043-21.617-27.695-55.254-43.285-90.359-41.879h-6.1211c-9.8906-0.25391-19.539-3.1211-27.969-8.3047-8.4297-5.1836-15.34-12.504-20.031-21.215-0.45312 0.035157-0.90234-0.12891-1.2266-0.45312-0.32422-0.32422-0.48828-0.76953-0.45312-1.2266-6.3594-11.039-12-20.16-18.48-31.199-0.67578-0.16016-1.1641-0.74609-1.1992-1.4414-10.715-17.551-11.355-39.457-1.6797-57.602 1.5859-1.0938 2.668-2.7812 3-4.6797 18.309-31.09 21.66-68.766 9.1211-102.6-1.1719-4.0977-3.2656-7.875-6.1211-11.043-20.434-19.316-41.906-37.504-64.32-54.477-3-1.4414-6.3594-3-10.801-4.6797-35.074-7.207-71.484 2.6289-98.16 26.52-1.7617 0.49609-3.3203 1.5469-4.4375 3-9.3906 8-21.391 12.27-33.723 12-7.4336-0.13281-14.773-1.7227-21.598-4.6797-11.402-4.8789-23.156-8.8867-35.16-12-9.4297-3.3594-17.801-9.1641-24.25-16.816-6.4531-7.6523-10.754-16.883-12.473-26.746-0.33984-2.0938-0.90234-4.1445-1.6797-6.1211-4.4961-35.863-26.285-67.25-58.32-84-3.2461-1.8672-6.9297-2.8633-10.68-2.8789-27.535-1.6406-55.145-1.6406-82.68 0-3.75 0.33984-7.4102 1.3555-10.797 3-31.977 17.527-53.648 49.281-58.32 85.441-1.2891 1.1953-1.9141 2.9375-1.6797 4.6797-1.5312 9.9336-5.7695 19.25-12.246 26.934-6.4766 7.6875-14.945 13.438-24.477 16.625-10.559 3-22.922 7.6797-35.16 12-7.0859 1.6953-14.32 2.6992-21.598 3-12.266-0.11328-24.141-4.3398-33.723-12-1.4414-1.6797-3-1.6797-4.4414-3.2383h0.003906c-26.609-24.012-63.082-33.863-98.16-26.52-4.0703 0.10156-7.9414 1.7773-10.801 4.6797-23.219 15.953-44.801 34.164-64.441 54.359-2.5703 3.3594-4.6328 7.0781-6.1172 11.039-13.176 33.746-9.8008 71.711 9.1172 102.6 1.1367 1.4688 2.1367 3.0352 3 4.6797 9.6289 18.156 8.9883 40.035-1.6797 57.598-0.45312-0.035156-0.90234 0.12891-1.2266 0.45312-0.32422 0.32422-0.48828 0.77344-0.45312 1.2305-6.5898 9.957-12.449 20.387-17.52 31.199-0.45703-0.039063-0.90625 0.12891-1.2266 0.44922-0.32422 0.32422-0.48828 0.77344-0.45313 1.2305-4.418 8.9336-11.266 16.441-19.754 21.66-8.4922 5.2227-18.281 7.9453-28.246 7.8594h-6.2422c-35.055-0.90234-68.508 14.688-90.359 42.121-2.8555 3.1641-4.9453 6.9414-6.1172 11.039-7.332 28.617-12.543 57.738-15.602 87.121-0.19922 4.0703 0.37109 8.1406 1.6797 12 11.379 33.031 37.309 59.004 70.32 70.438 2.0859 0.37891 4.1328 0.94141 6.1211 1.6797 9.3477 3.25 17.594 9.0508 23.809 16.75 6.2148 7.7031 10.148 16.988 11.352 26.812v1.6797c1.1992 12.129 3.2422 24.156 6.1172 36v1.6797c3.4727 20.082-3.4844 40.555-18.477 54.359-1.7656 0.49609-3.3242 1.5469-4.4414 3-26.867 21.684-42.59 54.277-42.84 88.801 0.37109 4.1289 1.3828 8.1797 3 12 13.5 27.492 28.855 54.031 45.961 79.438 1.4141 4.457 4.9062 7.9453 9.3594 9.3633 29.406 16.52 64.73 18.77 96 6.1172 2.1914 0.4375 4.457-0.18359 6.1172-1.6797 5.9453-2.043 12.195-3.0547 18.48-3 6.7148-0.023437 13.383 1.1523 19.68 3.4805 6.6602 2.5664 12.891 6.125 18.48 10.562l27.602 24 1.6797 1.6797c15.418 12.852 22.977 32.84 19.922 52.68-1.1484 1.832-1.7344 3.957-1.6836 6.1172-6.9219 33.238 0.96094 67.844 21.602 94.801 2.9883 3.3281 6.6758 5.9492 10.801 7.6797 27.988 13.855 57.348 24.754 87.598 32.52 4.457 1.6367 9.3477 1.6367 13.801 0 32.875-6.7266 60.988-27.875 76.562-57.598 1.1328-1.4727 2.1367-3.0352 3-4.6797 4.4883-9.0195 11.574-16.484 20.34-21.445 8.7656-4.9609 18.816-7.1875 28.859-6.3945h38.398c9.9531-0.25391 19.789 2.2031 28.453 7.1094 8.668 4.9023 15.836 12.066 20.746 20.73 1.1367 1.4688 2.1406 3.0352 3 4.6797 15.551 29.746 43.672 50.902 76.562 57.598h6.1211c1.6797 0 4.4414 0 2.5195-3.2383 29.711-9.2695 58.879-20.207 87.359-32.762 4.1562-1.668 7.8555-4.3008 10.801-7.6797 16.438-19.531 25.336-44.309 25.078-69.84-0.019532-7.332-0.74219-14.645-2.1602-21.84 0.22266-3.2109-0.35156-6.4258-1.6797-9.3594-1.2305-9.6875 0.11719-19.527 3.9102-28.523 3.793-8.9961 9.8945-16.836 17.691-22.715-0.66406-0.66406-0.66406-1.7383 0-2.4023 0.66016-0.66016 1.7344-0.66016 2.3984 0 9.8516-7.2148 19.086-15.242 27.602-24h1.6797c10.035-9.1367 23.148-14.152 36.719-14.039 4.4961-0.035156 8.9766 0.52734 13.32 1.6797 1.7773 0.36328 3.5078 0.92578 5.1602 1.6797 2.0859 0.37891 4.1328 0.94141 6.1211 1.6797 6.5508 2.4336 13.293 4.3203 20.16 5.6406 7.0312 1.418 14.184 2.1406 21.359 2.1602 19.34 0.17188 38.398-4.6641 55.32-14.039l9.3594-9.3594c18.008-24.832 33.41-51.453 45.961-79.441 1.8906-3.7227 2.9141-7.8242 3-12-0.61719-34.438-16.27-66.883-42.84-88.801-1.4414-1.4414-3-3-4.4414-4.6797-14.062-11.715-21.059-29.879-18.48-48v-1.8008c2.8555-11.848 4.8984-23.875 6.1211-36v-1.3203c5.8789-35.52 32.16-44.398 35.277-44.398 2.4297 0.48438 4.9297-0.33594 6.6016-2.1602 32.844-11.246 58.656-37.016 69.961-69.84 1.3086-3.8594 1.8789-7.9297 1.6797-12-2.6094-29.441-7.625-58.617-15-87.238zm-584.64 388.56c-48.781 0.40234-96.582-13.684-137.35-40.477-40.766-26.789-72.656-65.082-91.637-110.02s-24.195-94.496-14.977-142.4c9.2148-47.902 32.445-91.992 66.742-126.68 34.301-34.688 78.125-58.41 125.92-68.164 47.797-9.7539 97.41-5.0977 142.56 13.379 45.148 18.473 83.797 49.934 111.04 90.395 27.25 40.465 41.871 88.105 42.016 136.88 0.40234 43.176-10.621 85.688-31.953 123.23-21.332 37.539-52.211 68.77-89.508 90.52-37.297 21.754-79.684 33.254-122.86 33.336z"/>
</svg>
