<svg width="18" height="20" viewBox="0 0 18 20"  xmlns="http://www.w3.org/2000/svg">
<g clip-path="url(#clip0_2025_131)">
<path d="M14.1914 0.875122V0.880005C15.6971 0.922827 16.915 2.14424 16.915 3.64172C16.915 5.16595 15.6531 6.40814 14.1104 6.40833C13.2703 6.40833 12.5115 6.04422 11.9961 5.46301L6.30566 8.97766C6.43536 9.29487 6.51073 9.63754 6.51074 10.0001C6.51074 10.3592 6.43301 10.7014 6.30566 11.0157L12.0029 14.5372C12.5178 13.9601 13.2733 13.5929 14.1104 13.5929C15.6531 13.5931 16.915 14.8352 16.915 16.3595C16.9148 17.8836 15.653 19.1259 14.1104 19.1261C12.5675 19.1261 11.3049 17.8837 11.3047 16.3595C11.3047 16.0262 11.3671 15.7097 11.4775 15.4142L5.75684 11.8839C5.24382 12.4273 4.51335 12.7667 3.70508 12.7667C2.16205 12.7667 0.900391 11.5246 0.900391 10.0001C0.900415 8.47578 2.16207 7.23359 3.70508 7.23352C4.50998 7.23352 5.2359 7.57757 5.74805 8.11633L11.4775 4.58508C11.3684 4.29089 11.3047 3.97247 11.3047 3.64172C11.3047 2.11731 12.5674 0.875122 14.1104 0.875122H14.1914ZM14.1104 14.6124C13.5508 14.6124 13.0537 14.8653 12.7295 15.2599L12.6016 15.4376C12.5964 15.4458 12.5911 15.4554 12.585 15.4669C12.5793 15.4775 12.572 15.4918 12.5645 15.505C12.4205 15.7581 12.337 16.0467 12.3369 16.3585C12.3369 17.3264 13.1249 18.1046 14.1104 18.1046C15.0956 18.1044 15.8828 17.3262 15.8828 16.3585C15.8826 15.3909 15.0955 14.6126 14.1104 14.6124ZM3.70508 8.25403C2.71965 8.25404 1.93262 9.03227 1.93262 10.0001C1.9327 10.9679 2.71973 11.7462 3.70508 11.7462C4.69043 11.7462 5.47746 10.9679 5.47754 10.0001C5.47754 9.03228 4.69048 8.25403 3.70508 8.25403ZM14.1104 1.89563C13.1249 1.89563 12.3369 2.67388 12.3369 3.64172C12.3371 4.60941 13.1251 5.38782 14.1104 5.38782C15.0955 5.3876 15.8826 4.60925 15.8828 3.64172C15.8828 2.67398 15.0956 1.89584 14.1104 1.89563Z"  stroke="#364559" stroke-width="0.2"/>
</g>
<defs>
<clipPath id="clip0_2025_131">
<rect width="18" height="20" />
</clipPath>
</defs>
</svg>
