<svg width="24" height="23" viewBox="0 0 24 23"  xmlns="http://www.w3.org/2000/svg">
<path d="M6.40039 19.375C6.40046 19.6349 6.50833 19.883 6.69922 20.0654C6.8902 20.2477 7.14881 20.3496 7.41699 20.3496C7.68504 20.3495 7.94289 20.2477 8.13379 20.0654C8.32476 19.883 8.43353 19.635 8.43359 19.375V14.8994H6.40039V19.375ZM17.4443 3.78809C15.3091 5.22701 12.7773 6.03537 10.1641 6.1123L10.0664 6.11523V13.3828L10.1641 13.3857C12.7773 13.4627 15.3091 14.271 17.4443 15.71L17.5996 15.8154V3.68262L17.4443 3.78809ZM6.5 6.14844C5.50248 6.14844 4.5446 6.52653 3.83789 7.20117C3.13105 7.87597 2.7334 8.79264 2.7334 9.74902C2.73345 10.7052 3.13128 11.6212 3.83789 12.2959C4.5446 12.9705 5.50248 13.3496 6.5 13.3496H8.43359V6.14844H6.5ZM19.2334 10.7236H20.25C20.518 10.7236 20.7759 10.6225 20.9668 10.4404C21.1579 10.258 21.2666 10.0091 21.2666 9.74902C21.2666 9.52138 21.184 9.30227 21.0352 9.12891L20.9668 9.05762C20.7758 8.87547 20.518 8.77344 20.25 8.77344H19.2334V10.7236ZM4.7666 14.6211L4.69824 14.5986C3.57167 14.2189 2.61188 13.4941 1.96582 12.542L1.84082 12.3486C1.23732 11.3668 0.993475 10.224 1.14258 9.09961L1.17773 8.875C1.37939 7.75399 1.96437 6.72977 2.83887 5.96094L3.01758 5.81055C3.93066 5.07627 5.07219 4.65287 6.26172 4.60352L6.5 4.59863H9.25C14.3905 4.59862 16.9659 2.26457 17.6064 1.58496L17.7646 1.40625C17.8678 1.27765 18.011 1.18265 18.1748 1.13477C18.298 1.0988 18.4279 1.09084 18.5537 1.11133L18.6777 1.14062C18.7997 1.17982 18.909 1.24612 18.998 1.33203L19.0801 1.42383C19.1793 1.55514 19.2327 1.71225 19.2334 1.87305V7.22363H20.25C20.9543 7.22363 21.6293 7.49072 22.126 7.96484C22.6223 8.43879 22.9004 9.08094 22.9004 9.74902C22.9003 10.4171 22.6224 11.0593 22.126 11.5332C21.6293 12.0073 20.9543 12.2744 20.25 12.2744H19.2334V17.625L19.2236 17.7451C19.204 17.8637 19.1547 17.9773 19.0801 18.0762C18.9805 18.2079 18.8398 18.3074 18.6768 18.3594C18.5134 18.4114 18.3363 18.4133 18.1719 18.3643C18.0487 18.3275 17.9378 18.2632 17.8467 18.1787L17.7617 18.0879V18.0869L17.6182 17.9258C17.0413 17.3105 14.7345 15.188 10.1719 14.9287L10.0664 14.9229V19.375C10.0663 20.0431 9.78843 20.6853 9.29199 21.1592C8.79545 21.633 8.12101 21.9003 7.41699 21.9004C6.80081 21.9004 6.20679 21.6958 5.73535 21.3271L5.54102 21.1592C5.04458 20.6853 4.76667 20.0431 4.7666 19.375V14.6211Z"  stroke="#EFF6FF" stroke-width="0.2"/>
</svg>
