<svg width="99" height="92" viewBox="0 0 99 92"  xmlns="http://www.w3.org/2000/svg">
<path d="M59.3809 1.26013C56.3712 -0.44725 52.7409 -0.270046 49.9031 1.74458L27.4004 17.7434C26.8185 18.151 26.1367 18.3814 25.4272 18.3814H9.63601C4.54239 18.3814 0.413147 22.8004 0.413147 28.2121V62.9798C0.413147 68.4091 4.55894 72.8105 9.63601 72.8105H25.4272C26.1367 72.8105 26.8185 73.035 27.4004 73.4485L49.9031 89.4473C51.4494 90.5521 53.2397 91.0956 55.0243 91.0956C56.5153 91.0956 58.0173 90.6998 59.3809 89.9317C62.3905 88.2243 64.2472 84.8982 64.2472 81.2649V9.94595C64.2472 6.31856 62.3738 2.98647 59.3809 1.27909V1.26013ZM6.07268 62.9967V28.2289C6.07268 26.1434 7.66338 24.4479 9.61993 24.4479H24.5184V66.7953H9.61993C7.66338 66.7953 6.07268 65.0998 6.07268 63.0143V62.9967ZM58.5721 81.2641C58.5721 82.6879 57.8793 83.9286 56.6987 84.6079C55.5236 85.2755 54.1601 85.2105 53.0516 84.4247L30.549 68.426C30.4381 68.3492 30.3217 68.2901 30.2109 68.2133V22.9771C30.3217 22.9003 30.4548 22.8412 30.549 22.7644L53.0516 6.76567C54.1601 5.97992 55.518 5.90312 56.6987 6.58253C57.8737 7.25012 58.5721 8.50253 58.5721 9.92634V81.2692V81.2641Z" />
<path d="M74.9887 60.5744C75.543 61.1651 76.2635 61.4664 76.9896 61.4664C77.7158 61.4664 78.4362 61.1651 78.9905 60.5744C86.739 52.3152 86.739 38.8864 78.9905 30.6274C77.882 29.4458 76.0807 29.4458 74.9776 30.6274C73.8691 31.809 73.8691 33.729 74.9776 34.9047C80.5091 40.8007 80.5091 50.3893 74.9776 56.2915C73.8691 57.473 73.8691 59.393 74.9776 60.5688L74.9887 60.5744Z" />
<path d="M85.0216 71.2684C85.5758 71.8591 86.2963 72.1604 87.0225 72.1604C87.7486 72.1604 88.469 71.8591 89.0234 71.2684C95.4528 64.4152 99 55.2986 99 45.604C99 35.9095 95.4528 26.7884 89.0234 19.9397C87.9148 18.7581 86.1135 18.7581 85.0105 19.9397C83.9019 21.1213 83.9019 23.0413 85.0105 24.2171C90.3757 29.9358 93.3243 37.5275 93.3243 45.6038C93.3243 53.68 90.3756 61.2711 85.0105 66.9905C83.9019 68.1721 83.9019 70.0921 85.0105 71.2678L85.0216 71.2684Z" />
</svg>
