<svg width="85" height="83" viewBox="0 0 85 83"  xmlns="http://www.w3.org/2000/svg">
<path d="M72.1004 66.6069L24.4627 19.9937L5.41238 1.34927C4.32258 0.282905 2.55697 0.282905 1.47081 1.34927C0.381006 2.41564 0.381006 4.14328 1.47081 5.20608L18.5634 21.9349L17.1684 23.2999H7.16009C3.57091 23.2999 0.650085 26.1579 0.650085 29.6699V53.3299C0.650085 56.8419 3.57091 59.6999 7.16009 59.6999H17.1684L38.6313 80.7012C39.7829 81.828 41.3087 82.4501 42.9289 82.4501C46.2856 82.4501 49.0102 79.7841 49.0102 76.4995V51.7263L58.1723 60.6913C57.4566 61.2565 56.6937 61.7826 55.9018 62.2731C53.5404 63.7021 54.6557 67.3492 57.3912 67.3137C57.9035 67.3137 58.4157 67.1786 58.8807 66.8942C60.0323 66.1833 61.1112 65.4012 62.1357 64.5659L66.1064 68.4511C64.1519 70.0898 62.023 71.526 59.7453 72.7381C58.6664 73.3104 57.522 73.8471 56.3305 74.3306C53.5224 75.4574 54.3978 79.6093 57.3913 79.5915C57.7437 79.5915 58.107 79.5275 58.4521 79.3818C59.829 78.8273 61.1694 78.2087 62.4156 77.5334C65.1584 76.0759 67.7267 74.3306 70.0699 72.3293L79.6133 81.6674C80.7031 82.7338 82.4687 82.7338 83.5549 81.6674C84.6447 80.601 84.6447 78.8734 83.5549 77.8106L72.1004 66.6069ZM15.53 54.24H7.16001C6.64778 54.24 6.23001 53.8312 6.23001 53.33V29.67C6.23001 29.1688 6.64778 28.76 7.16001 28.76H15.53V54.24ZM43.43 76.4994C43.43 76.901 42.8815 77.1463 42.5727 76.8442L21.1099 55.8429V27.1566L22.5049 25.7916L43.4299 46.2666L43.43 76.4994ZM68.4749 54.1937C69.5902 54.1937 70.6401 53.5397 71.0688 52.4662C72.4747 48.9791 73.1903 45.2964 73.1903 41.4999C73.1903 31.1274 67.8319 21.6361 58.8699 16.1124C57.5693 15.3126 55.8474 15.693 55.0191 16.9691C54.2017 18.2417 54.5904 19.9266 55.8946 20.7371C63.2292 25.248 67.611 33.0115 67.611 41.4995C67.611 44.6028 67.0261 47.6136 65.8818 50.4646C65.1371 52.2028 66.5612 54.229 68.4757 54.1934L68.4749 54.1937ZM56.3198 8.67553C69.9536 14.1817 78.7708 27.0674 78.7708 41.4992C78.7708 47.4035 77.2632 53.2367 74.4078 58.3699C73.3652 60.1259 74.8074 62.4542 76.8527 62.4009C77.8371 62.4009 78.7962 61.8819 79.3085 60.9719C82.6107 55.0497 84.3508 48.3138 84.3508 41.4994C84.3508 24.8456 74.1859 9.97623 58.4418 3.63504C57.0177 3.06274 55.3829 3.72747 54.7945 5.11736C54.2205 6.51079 54.8889 8.10329 56.3203 8.67561L56.3198 8.67553ZM59.0444 45.1218C59.0989 45.1218 59.157 45.1325 59.2115 45.1325C60.6719 45.1325 61.907 44.0127 61.9906 42.566C62.0196 42.2105 62.0305 41.855 62.0305 41.4996C62.0305 38.4603 61.2785 35.4282 59.8545 32.7446C59.1461 31.4081 57.4641 30.8891 56.0981 31.5787C54.7322 32.2719 54.191 33.9177 54.9066 35.2543C55.9311 37.1951 56.4505 39.2959 56.4505 41.4998C56.4505 41.7451 56.4396 41.9904 56.4324 42.2356C56.3379 43.7393 57.5004 45.0296 59.0444 45.122L59.0444 45.1218ZM32.372 16.1368L42.5733 6.15483C42.7695 5.96288 43.0856 5.96288 43.2817 6.15483C43.3834 6.25436 43.4307 6.37167 43.4307 6.49964V29.6864C43.4307 31.1972 44.6767 32.4164 46.2207 32.4164C47.7646 32.4164 49.0107 31.1972 49.0107 29.6864V6.49964C49.0107 4.91783 48.3786 3.42482 47.2234 2.29445C46.0718 1.16764 44.546 0.549072 42.9294 0.549072C41.3128 0.549072 39.787 1.16758 38.6318 2.29794L28.4305 12.2799C27.3407 13.3463 27.3407 15.0739 28.4305 16.1367C29.5167 17.2031 31.2859 17.2031 32.372 16.1367L32.372 16.1368Z" />
</svg>
