<svg width="22" height="22" viewBox="0 0 22 22"  xmlns="http://www.w3.org/2000/svg">
<path d="M11 12.6328C11.3322 12.6328 11.6016 12.3635 11.6016 12.0312C11.6016 11.699 11.3322 11.4297 11 11.4297C10.6678 11.4297 10.3984 11.699 10.3984 12.0312C10.3984 12.3635 10.6678 12.6328 11 12.6328Z" />
<path d="M12.6994 2.29754L13.2739 0.918672C13.402 0.612305 13.2571 0.259961 12.9508 0.132344C12.8773 0.101836 12.7982 0.0859375 12.7187 0.0859375H9.28125C8.9491 0.0859375 8.67968 0.354922 8.67968 0.686641C8.67968 0.766133 8.69558 0.845195 8.72609 0.918672L9.30058 2.29754C3.92433 3.23684 0.327419 8.35656 1.26672 13.7324C2.20601 19.1086 7.32531 22.7055 12.7016 21.7663C17.4316 20.94 20.8832 16.833 20.8828 12.0312C20.9073 7.22047 17.4432 3.09977 12.6994 2.29754ZM19.6797 12.0312C19.6797 12.9688 19.5271 13.9 19.2281 14.7886L13.952 12.6032C14.0267 12.2259 14.0267 11.8375 13.952 11.4598L19.2371 9.27094C19.5314 10.1617 19.681 11.0937 19.6797 12.0317V12.0312ZM18.7803 8.15719L13.4913 10.3469C13.2761 10.0289 13.0019 9.7552 12.6844 9.53992L14.8745 4.25262C16.57 5.08965 17.9429 6.46207 18.7803 8.15719ZM11 13.8359C10.0031 13.8359 9.19531 13.0281 9.19531 12.0312C9.19531 11.0344 10.0031 10.2266 11 10.2266C11.9969 10.2266 12.8047 11.0344 12.8047 12.0312C12.8034 13.0273 11.996 13.8346 11 13.8359ZM11.8164 1.28906L11 3.24844L10.1836 1.28906H11.8164ZM10.4448 5.04367C10.5725 5.35047 10.9244 5.4957 11.2307 5.36809C11.3777 5.30707 11.4941 5.19062 11.5552 5.04367L12.2237 3.43922C12.7454 3.51227 13.2593 3.63172 13.7595 3.79672L11.5711 9.0793C11.1938 9.00453 10.8058 9.00453 10.4285 9.0793L8.24011 3.79672C8.74027 3.63172 9.25418 3.51227 9.77582 3.43922L10.4444 5.04367H10.4448ZM7.12679 4.25305L9.31562 9.53949C8.99765 9.75477 8.72394 10.0289 8.50867 10.3464L3.21965 8.15676C4.05754 6.46121 5.43082 5.08879 7.12679 4.25219V4.25305ZM2.32031 12.0312C2.31945 11.0932 2.46898 10.1613 2.76289 9.27051L8.04804 11.4593C7.97328 11.8366 7.97328 12.225 8.04804 12.6027L2.77191 14.7881C2.47285 13.8995 2.31988 12.9684 2.32031 12.0308V12.0312ZM3.2334 15.8993L8.50867 13.7156C8.72394 14.0336 8.99808 14.3073 9.31562 14.5226L7.13152 19.7979C5.44543 18.9531 4.07816 17.5854 3.2334 15.8993ZM8.24312 20.2598L10.4285 14.9832C10.8058 15.058 11.1938 15.058 11.5711 14.9832L13.7564 20.2598C11.9677 20.8618 10.0315 20.8618 8.24269 20.2598H8.24312ZM14.8685 19.7979L12.6844 14.5226C13.0023 14.3073 13.2761 14.0332 13.4913 13.7156L18.7666 15.901C17.9218 17.5867 16.5541 18.9539 14.8685 19.7983V19.7979Z" />
</svg>
