<svg width="20" height="22" viewBox="0 0 20 22"  xmlns="http://www.w3.org/2000/svg">
<g clip-path="url(#clip0_2025_110)">
<g filter="url(#filter0_d_2025_110)">
<path d="M17.228 9.26732H17.1785V8.05445C17.1785 4.15839 14.0202 1 10.124 1C6.22794 1 3.06959 4.15839 3.06959 8.05445V9.26732H2.77258C1.68346 9.26732 0.841891 10.2326 0.841891 11.3465V14.4406C0.814459 15.5202 1.66745 16.4176 2.74705 16.4451C2.75557 16.4453 2.76405 16.4454 2.77258 16.4455H4.60425C4.86369 16.4334 5.06415 16.2131 5.05193 15.9537C5.0515 15.9443 5.05079 15.935 5.04979 15.9257V9.86135C5.04979 9.56434 4.87653 9.26728 4.60425 9.26728H4.05969V8.05441C4.05969 4.70518 6.77482 1.99005 10.124 1.99005C13.4733 1.99005 16.1884 4.70518 16.1884 8.05441V9.26728H15.6438C15.3716 9.26728 15.1983 9.56429 15.1983 9.86135V15.9257C15.1707 16.184 15.3576 16.4157 15.6159 16.4433C15.6252 16.4443 15.6345 16.4451 15.6438 16.4455H16.2131L16.1636 16.5197C15.4209 17.5068 14.2554 18.085 13.0201 18.0791C12.7496 16.7531 11.4554 15.8973 10.1293 16.1678C8.99532 16.399 8.17772 17.3921 8.16858 18.5494C8.18213 19.9068 9.28641 21 10.6438 20.9999C11.3158 20.989 11.9563 20.7133 12.426 20.2326C12.7429 19.908 12.9506 19.4927 13.0201 19.0444C14.567 19.0503 16.0259 18.3254 16.9557 17.089L17.426 16.3959C18.4903 16.3217 19.1587 15.6534 19.1587 14.688V11.594C19.1587 10.5297 18.3666 9.26732 17.228 9.26732ZM4.05969 15.4554H2.77258C2.23958 15.4424 1.81802 14.9999 1.831 14.4669C1.83123 14.4581 1.83157 14.4494 1.83199 14.4405V11.3465C1.83199 10.7772 2.22802 10.2574 2.77258 10.2574H4.05969V15.4554ZM11.7082 19.5396C11.4339 19.837 11.0485 20.0073 10.6439 20.0099C9.83855 19.9971 9.18502 19.3545 9.15873 18.5495C9.15839 17.7429 9.81197 17.0888 10.6185 17.0885C11.4251 17.0882 12.0792 17.7417 12.0795 18.5483V18.5495C12.1001 18.917 11.9654 19.2763 11.7082 19.5396ZM18.1686 14.6881C18.1686 15.3564 17.525 15.4554 17.228 15.4554H16.1884V10.2574H17.228C17.7726 10.2574 18.1686 11.0248 18.1686 11.594V14.6881Z" />
<path d="M10.1245 0.849609C14.1032 0.849827 17.3286 4.07592 17.3286 8.05469V9.12012C17.9127 9.15502 18.3992 9.49174 18.7397 9.94043C19.099 10.414 19.309 11.0276 19.309 11.5938V14.6885C19.3089 15.2071 19.1282 15.6548 18.7973 15.9824C18.4819 16.2945 18.0391 16.4863 17.5112 16.5371L17.0795 17.1729L17.0756 17.1797L17.0746 17.1787C16.1412 18.4199 14.6911 19.1585 13.143 19.1904C13.052 19.6219 12.8428 20.0201 12.5336 20.3369V20.3379C12.0363 20.8468 11.3574 21.1379 10.6459 21.1494L10.644 21.1504C9.2043 21.1505 8.03335 19.9904 8.01898 18.5508V18.5479L8.0307 18.3203C8.13838 17.1917 8.97094 16.2507 10.0991 16.0205L10.3627 15.9805C11.6325 15.8532 12.8169 16.6759 13.1352 17.9258C14.2094 17.8983 15.219 17.4141 15.9106 16.5957H15.6371L15.6 16.5928C15.2647 16.5569 15.022 16.26 15.0493 15.9258H15.0483V9.86133C15.0483 9.68591 15.099 9.50656 15.1957 9.36719C15.2936 9.22629 15.4469 9.11719 15.644 9.11719H16.0385V8.05469C16.0385 4.78844 13.3907 2.13987 10.1245 2.13965C6.85806 2.13965 4.20941 4.7883 4.20941 8.05469V9.11719H4.60394C4.80097 9.11719 4.9543 9.22633 5.05219 9.36719C5.14897 9.50656 5.19964 9.68593 5.19965 9.86133V15.9258C5.2002 15.9326 5.20128 15.9394 5.2016 15.9463L5.19476 16.0723C5.1502 16.3571 4.91089 16.5814 4.61176 16.5957H2.77094C2.76186 16.5956 2.75222 16.595 2.74261 16.5947V16.5938C1.58051 16.5639 0.662303 15.5987 0.691833 14.4365V11.3467C0.691833 10.1635 1.58801 9.11719 2.77289 9.11719H2.91937V8.05469C2.91937 4.07578 6.1455 0.849609 10.1245 0.849609ZM10.6186 17.2383C9.89487 17.2386 9.30872 17.8261 9.30902 18.5498C9.33533 19.2716 9.92145 19.8467 10.644 19.8594C11.0066 19.8568 11.3522 19.7041 11.5981 19.4375L11.601 19.4346L11.6811 19.3438C11.8564 19.1221 11.9461 18.8425 11.9301 18.5576L11.9291 18.5498V18.5488L11.9223 18.4141C11.8548 17.7535 11.297 17.238 10.6186 17.2383ZM16.3383 15.3057H17.228C17.365 15.3057 17.5713 15.2815 17.7377 15.1904C17.893 15.1055 18.0189 14.9614 18.019 14.6885V11.5938C18.0189 11.3395 17.9285 11.0334 17.7758 10.793C17.6207 10.5487 17.4254 10.4072 17.228 10.4072H16.3383V15.3057ZM2.77289 10.4072C2.33601 10.4072 1.98187 10.833 1.98187 11.3467V14.4482L1.9809 14.4707C1.97002 14.9207 2.32587 15.2945 2.77582 15.3057H3.90961V10.4072H2.77289Z" stroke="white" stroke-width="0.3"/>
</g>
</g>
<defs>
<filter id="filter0_d_2025_110" x="-3.45874" y="0.700012" width="26.9174" height="28.5999" filterUnits="userSpaceOnUse" color-interpolation-filters="sRGB">
<feFlood flood-opacity="0" result="BackgroundImageFix"/>
<feColorMatrix in="SourceAlpha" type="matrix" values="0 0 0 0 0 0 0 0 0 0 0 0 0 0 0 0 0 0 127 0" result="hardAlpha"/>
<feOffset dy="4"/>
<feGaussianBlur stdDeviation="2"/>
<feComposite in2="hardAlpha" operator="out"/>
<feColorMatrix type="matrix" values="0 0 0 0 0 0 0 0 0 0 0 0 0 0 0 0 0 0 0.25 0"/>
<feBlend mode="normal" in2="BackgroundImageFix" result="effect1_dropShadow_2025_110"/>
<feBlend mode="normal" in="SourceGraphic" in2="effect1_dropShadow_2025_110" result="shape"/>
</filter>
<clipPath id="clip0_2025_110">
<rect width="20" height="22" />
</clipPath>
</defs>
</svg>
