<svg width="20" height="22" viewBox="0 0 20 22"  xmlns="http://www.w3.org/2000/svg">
<g clip-path="url(#clip0_2025_110)">
<path d="M10.1245 0.950195C14.048 0.950413 17.2289 4.13115 17.2289 8.05469V9.21777C17.8178 9.21812 18.3139 9.54402 18.6606 10.001C19.0072 10.4579 19.2084 11.0503 19.2084 11.5938V14.6885C19.2083 15.183 19.0374 15.6049 18.727 15.9121C18.4215 16.2145 17.9844 16.4017 17.4536 16.4434L16.9975 17.1172L16.9955 17.1191C16.0646 18.3572 14.6084 19.0858 13.061 19.0928C12.9938 19.4786 12.8276 19.8392 12.5776 20.1387L12.4614 20.2676C11.9825 20.7575 11.3299 21.0386 10.645 21.0498H10.644C9.25914 21.0499 8.13242 19.9346 8.11859 18.5498V18.5488L8.13031 18.3301C8.23377 17.2447 9.03466 16.3404 10.1196 16.1191L10.3725 16.0801C11.6194 15.955 12.7821 16.7823 13.058 18.0273C14.2611 18.0213 15.3927 17.456 16.1186 16.4951H15.642L15.6108 16.4932C15.3268 16.4628 15.1214 16.2093 15.1489 15.9258H15.1479V9.86133C15.1479 9.70399 15.1941 9.54547 15.2778 9.4248C15.362 9.30356 15.4875 9.2168 15.644 9.2168H16.1381V8.05469C16.1381 4.73321 13.4459 2.04026 10.1245 2.04004C6.80284 2.04004 4.1098 4.73307 4.1098 8.05469V9.2168H4.60394C4.76041 9.2168 4.88596 9.30356 4.97015 9.4248C5.05387 9.54549 5.10003 9.70397 5.10004 9.86133V15.9258C5.10085 15.9342 5.1016 15.9427 5.10199 15.9512L5.09613 16.0566C5.05878 16.2956 4.85785 16.4832 4.60687 16.4951H2.74554C1.6385 16.4669 0.763388 15.5465 0.791443 14.4395V11.3467L0.802185 11.1357C0.900544 10.0897 1.72177 9.21777 2.77289 9.21777H3.01996V8.05469C3.01996 4.13101 6.20073 0.950195 10.1245 0.950195ZM10.4741 17.1455C9.763 17.2181 9.20813 17.8196 9.20844 18.5498C9.23484 19.327 9.86629 19.9463 10.644 19.959C11.0345 19.9564 11.4065 19.7929 11.6713 19.5059L11.6723 19.5049L11.7592 19.4053C11.9223 19.1991 12.0169 18.9471 12.0297 18.6846V18.5479L12.0219 18.4043C11.9495 17.6931 11.3489 17.1384 10.6186 17.1387L10.4741 17.1455ZM16.2387 15.4053H17.228C17.3726 15.4053 17.5981 15.3809 17.7856 15.2783C17.9693 15.1778 18.1185 15.0021 18.1186 14.6885V11.5938C18.1185 11.3194 18.0229 10.9946 17.8608 10.7393C17.6977 10.4825 17.4753 10.3076 17.228 10.3076H16.2387V15.4053ZM2.77289 10.3076C2.26422 10.3076 1.88226 10.7959 1.88226 11.3467V14.4434L1.88129 14.4678C1.86898 14.9732 2.26847 15.393 2.77386 15.4053H4.00922V10.3076H2.77289Z"   stroke-width="0.1"/>
</g>
<defs>
<clipPath id="clip0_2025_110">
<rect width="20" height="22" />
</clipPath>
</defs>
</svg>
