<?xml version="1.0" encoding="UTF-8"?>
<svg width="1200pt" height="1200pt" version="1.1" viewBox="0 0 1200 1200" xmlns="http://www.w3.org/2000/svg">
 <path d="m987.56 448.4c0-147.61-120.1-267.74-267.74-267.74-147.61 0-267.74 120.1-267.74 267.74 0 142.92 112.55 260.02 253.69 267.37v60.516h-33.656c-7.7812 0-14.062 6.2812-14.062 14.062v167.21c0 34.031 27.703 61.734 61.734 61.734s61.734-27.703 61.734-61.734v-167.21c0-7.7812-6.2812-14.062-14.062-14.062h-33.656v-60.516c141.14-7.3125 253.69-124.45 253.69-267.37zm-267.74 542.76c-18.562 0-33.656-15.094-33.656-33.656v-88.219h67.266v88.219c0 18.562-15.094 33.656-33.656 33.656zm33.656-149.95h-67.266v-36.844h67.266zm-273.28-392.81c0-132.14 107.48-239.63 239.63-239.63s239.63 107.48 239.63 239.63c0 132.14-107.48 239.63-239.63 239.63s-239.63-107.48-239.63-239.63zm-82.547-229.64h-171.19c-7.7812 0-14.062 6.2812-14.062 14.062v171.19c0 7.7812 6.2812 14.062 14.062 14.062h171.19c7.7812 0 14.062-6.2812 14.062-14.062v-171.19c0-7.7812-6.2812-14.062-14.062-14.062zm-14.062 171.19h-143.06v-143.06h143.06zm14.062 118.69h-171.19c-7.7812 0-14.062 6.2812-14.062 14.062v171.19c0 7.7812 6.2812 14.062 14.062 14.062h171.19c7.7812 0 14.062-6.2812 14.062-14.062v-171.19c0-7.7812-6.2812-14.062-14.062-14.062zm-14.062 171.19h-143.06v-143.06h143.06zm14.062 118.69h-171.19c-7.7812 0-14.062 6.2812-14.062 14.062v171.19c0 7.7812 6.2812 14.062 14.062 14.062h171.19c7.7812 0 14.062-6.2812 14.062-14.062v-171.19c0-7.7812-6.2812-14.062-14.062-14.062zm-14.062 171.19h-143.06v-143.06h143.06zm-120-354.74c-5.4844-5.4844-5.4844-14.391 0-19.875s14.391-5.4844 19.875 0l17.953 17.953 39.234-39.234c5.4844-5.4844 14.391-5.4844 19.875 0s5.4844 14.391 0 19.875l-49.172 49.172c-2.7656 2.7188-6.3281 4.125-9.9375 4.125s-7.1719-1.3594-9.9375-4.125zm0-289.87c-5.4844-5.4844-5.4844-14.391 0-19.875s14.391-5.4844 19.875 0l17.953 17.953 39.234-39.234c5.4844-5.4844 14.391-5.4844 19.875 0s5.4844 14.391 0 19.875l-49.172 49.172c-2.625 2.625-6.2344 4.125-9.9375 4.125-3.75 0-7.3125-1.5-9.9375-4.125zm4.6406 597.05 23.953-23.953-23.953-23.953c-5.4844-5.4844-5.4844-14.391 0-19.875s14.391-5.4844 19.875 0l23.953 23.953 23.953-23.953c5.4844-5.4844 14.391-5.4844 19.875 0s5.4844 14.391 0 19.875l-23.953 23.953 23.953 23.953c5.4844 5.4844 5.4844 14.391 0 19.875-2.7188 2.7188-6.3281 4.125-9.9375 4.125s-7.1719-1.3594-9.9375-4.125l-23.953-23.953-23.953 23.953c-2.7656 2.7656-6.3281 4.125-9.9375 4.125s-7.1719-1.3594-9.9375-4.125c-5.4844-5.4844-5.4844-14.391 0-19.875z"/>
</svg>
