<?xml version="1.0" encoding="UTF-8"?>
<svg width="1200pt" height="1200pt" version="1.1" viewBox="0 0 1200 1200" xmlns="http://www.w3.org/2000/svg">
 <path d="m579.73 1018.3c58.234-0.066406 115.09-17.695 163.15-50.586 48.059-32.887 85.078-79.508 106.22-133.77 21.145-54.262 25.43-113.64 12.297-170.37-1.4766-6.0195-7.5156-9.7305-13.551-8.332-6.0352 1.3984-9.8242 7.3867-8.5039 13.441 14.059 60.332 6.6641 123.68-20.914 179.15-27.582 55.473-73.625 99.602-130.21 124.81-56.59 25.207-120.19 29.914-179.88 13.312-59.684-16.602-111.72-53.477-147.16-104.29-35.445-50.805-52.086-112.38-47.059-174.12 5.0234-61.746 31.402-119.81 74.598-164.22 43.195-44.406 100.51-72.379 162.09-79.109 61.582-6.7305 123.59 8.1992 175.36 42.227 2.5039 1.8008 5.6328 2.5 8.6641 1.9414s5.7031-2.332 7.3984-4.9062c1.6953-2.5703 2.2695-5.7266 1.5859-8.7344-0.68359-3.0039-2.5625-5.6016-5.2031-7.1914-50.379-33.129-109.85-49.68-170.1-47.336-60.25 2.3398-118.26 23.457-165.91 60.395-47.652 36.941-82.57 87.852-99.859 145.61-17.293 57.758-16.094 119.48 3.4258 176.53 19.52 57.047 56.383 106.57 105.43 141.63 49.051 35.059 107.84 53.91 168.13 53.914z"/>
 <path d="m708.61 593.84c4.0234-4.7852 3.4141-11.926-1.3594-15.961-36.797-30.938-83.621-47.383-131.68-46.246-48.062 1.1367-94.059 19.773-129.36 52.41-35.297 32.641-57.469 77.043-62.355 124.87-4.8828 47.828 7.8555 95.793 35.824 134.89 27.969 39.105 69.246 66.652 116.09 77.48 46.844 10.828 96.023 4.1914 138.32-18.668s74.789-60.367 91.391-105.49c16.602-45.117 16.168-94.742-1.2227-139.56-2.4141-5.5859-8.8125-8.2617-14.484-6.0625s-8.5898 8.4883-6.6094 14.242c15.547 39.797 16.031 83.902 1.3594 124.03-14.676 40.125-43.492 73.516-81.043 93.898-37.551 20.383-81.254 26.355-122.89 16.793-41.645-9.5625-78.363-33.996-103.26-68.719-24.902-34.719-36.266-77.336-31.965-119.85 4.3008-42.508 23.973-81.984 55.324-111.02 31.348-29.027 72.219-45.613 114.93-46.641 42.711-1.0234 84.332 13.578 117.04 41.07 4.8203 3.9805 11.953 3.3203 15.961-1.4766z"/>
 <path d="m579.73 665.86c10.195-0.007813 20.238 2.4531 29.273 7.1719 5.5391 2.8984 12.383 0.75781 15.281-4.7812s0.75781-12.383-4.7812-15.281c-22.324-11.672-48.648-12.961-72.008-3.5273-23.359 9.4375-41.406 28.648-49.359 52.551-7.957 23.906-5.0234 50.098 8.0234 71.648s34.895 36.293 59.762 40.328c24.867 4.0352 50.254-3.0469 69.445-19.367 19.191-16.324 30.254-40.242 30.262-65.438 0-6.2539-5.0664-11.32-11.32-11.32-6.2539 0-11.32 5.0664-11.32 11.32 0 16.785-6.668 32.879-18.535 44.746-11.867 11.867-27.961 18.535-44.746 18.535s-32.879-6.668-44.746-18.535c-11.867-11.867-18.535-27.961-18.535-44.746 0-16.785 6.668-32.879 18.535-44.746 11.867-11.867 27.961-18.535 44.746-18.535z"/>
 <path d="m771.89 582.33-198.75 141.89c-2.5312 1.707-4.2656 4.3672-4.8086 7.3711-0.54297 3.0078 0.15234 6.1016 1.9258 8.5898 1.7773 2.4844 4.4805 4.1484 7.4961 4.6094 3.0195 0.46484 6.0977-0.30859 8.5352-2.1484l198.75-141.8 69.727 33.609c1.5352 0.73828 3.2188 1.125 4.9219 1.125 2.3555 0.003906 4.6523-0.73438 6.5625-2.1094l125.6-89.719c3.2539-2.3242 5.0391-6.1953 4.6953-10.176-0.33984-3.9844-2.7578-7.4922-6.3594-9.2305l-70.172-33.797-9.1406-77.344c-0.46094-3.9766-2.9922-7.4141-6.6523-9.0312-3.6641-1.6211-7.9102-1.1797-11.16 1.1562l-125.58 89.578c-3.3789 2.3867-5.1797 6.4375-4.6875 10.547zm118.73-147.47 7.6172 64.523c0.44922 3.8477 2.8359 7.1992 6.3281 8.8828l58.594 28.125-104.55 74.602-52.5-25.289 70.453-50.203c5.0938-3.6289 6.2773-10.703 2.6484-15.797-3.6289-5.0938-10.703-6.2773-15.797-2.6484l-70.453 50.273-6.8438-57.867z"/>
 <path d="m1026.1 136.55h-92.109v-51.562c0-6.2539-5.0664-11.32-11.32-11.32-6.2539 0-11.32 5.0664-11.32 11.32v51.562h-138.7v-51.562c0.14062-3.0898-0.98828-6.1016-3.125-8.3359-2.1328-2.2344-5.0938-3.5-8.1836-3.5-3.0898 0-6.0508 1.2656-8.1836 3.5-2.1367 2.2344-3.2656 5.2461-3.125 8.3359v51.562h-138.7v-51.562c0-6.2539-5.0664-11.32-11.32-11.32s-11.32 5.0664-11.32 11.32v51.562h-138.68v-51.562c0.14062-3.0898-0.98828-6.1016-3.125-8.3359-2.1328-2.2344-5.0938-3.5-8.1836-3.5s-6.0508 1.2656-8.1836 3.5c-2.1367 2.2344-3.2656 5.2461-3.125 8.3359v51.562h-138.73v-51.562c0-6.2539-5.0664-11.32-11.32-11.32-6.2539 0-11.32 5.0664-11.32 11.32v51.562h-92.086c-24.605 0.023437-48.191 9.8086-65.594 27.203-17.398 17.395-27.188 40.98-27.219 65.586v776.88c0.039062 31.832 12.699 62.352 35.207 84.863 22.512 22.508 53.031 35.168 84.863 35.207h797.62c31.832-0.039062 62.352-12.699 84.863-35.207 22.508-22.512 35.168-53.031 35.207-84.863v-776.88c-0.023437-24.602-9.8086-48.188-27.203-65.586-17.398-17.395-40.984-27.18-65.586-27.203zm-852.16 22.641h92.086v71.133c0 6.2539 5.0664 11.32 11.32 11.32 6.2539 0 11.32-5.0664 11.32-11.32v-71.133h138.7v71.133c-0.14062 3.0898 0.98828 6.1016 3.125 8.3359 2.1328 2.2344 5.0938 3.5 8.1836 3.5 3.0898 0 6.0508-1.2656 8.1836-3.5 2.1367-2.2344 3.2656-5.2461 3.125-8.3359v-71.133h138.7v71.133c0 6.2539 5.0664 11.32 11.32 11.32s11.32-5.0664 11.32-11.32v-71.133h138.68v71.133c-0.14062 3.0898 0.98828 6.1016 3.125 8.3359 2.1328 2.2344 5.0938 3.5 8.1836 3.5s6.0508-1.2656 8.1836-3.5c2.1367-2.2344 3.2656-5.2461 3.125-8.3359v-71.133h138.7v71.133c0 6.2539 5.0664 11.32 11.32 11.32s11.32-5.0664 11.32-11.32v-71.133h92.109c18.59 0.042969 36.41 7.4492 49.555 20.594s20.551 30.965 20.594 49.555v90.891h-992.46v-90.891c0.042969-18.594 7.4492-36.418 20.602-49.562 13.152-13.148 30.977-20.547 49.57-20.586zm922.31 847.03c-0.023438 25.832-10.297 50.598-28.562 68.867-18.27 18.266-43.035 28.539-68.867 28.562h-797.62c-25.832-0.023438-50.598-10.297-68.867-28.562-18.266-18.27-28.539-43.035-28.562-68.867v-663.28h992.48z"/>
</svg>
