<?xml version="1.0" encoding="UTF-8"?>
<svg width="1200pt" height="1200pt" version="1.1" viewBox="0 0 1200 1200" xmlns="http://www.w3.org/2000/svg">
 <path d="m122.9 391.18h151.22c6.1406 0 11.109 4.9688 11.109 11.109v151.22c0 6.1406-4.9688 11.109-11.109 11.109l-151.22-0.046876c-6.1406 0-11.109-4.9688-11.109-11.109l0.046875-151.18c0-6.1406 4.9219-11.109 11.062-11.109zm0.60938-164.16c-8.9531-8.9531-13.5-20.672-13.5-32.438-0.046875-11.719 4.4062-23.484 13.359-32.438l-0.046875-0.09375c8.9062-8.9531 20.672-13.453 32.438-13.5 11.719-0.046875 23.484 4.4062 32.438 13.359h0.046875l21.984 21.797 78.891-71.484v-0.046875l0.42188-0.32812c9.375-8.4844 21.328-12.375 33-11.812 11.531 0.5625 22.875 5.4844 31.359 14.625l0.046875-0.046875 0.32812 0.42188c8.4844 9.375 12.375 21.328 11.812 33-0.5625 11.719-5.625 23.203-15.047 31.734l-109.78 99.469c-8.9062 8.9531-20.672 13.453-32.438 13.5-11.719 0.046875-23.484-4.4062-32.438-13.359h-0.046875zm8.5781-32.438c0 6.0469 2.3438 12.141 7.0312 16.781l52.875 52.453h0.046875c4.6406 4.6406 10.734 6.9375 16.828 6.8906 6.0469 0 12.141-2.3438 16.734-7.0312v-0.046875l0.42188-0.32812 110.2-99.844c4.8281-4.3594 7.4531-10.312 7.7812-16.359 0.28125-5.9062-1.5938-11.953-5.7188-16.734l-0.32812-0.42188c-4.4062-4.8281-10.312-7.4531-16.359-7.7812-5.9062-0.28125-11.953 1.5938-16.734 5.7188l-0.42188 0.32812-94.875 85.969-36.891-36.609h-0.046875c-4.6406-4.6406-10.734-6.9375-16.828-6.8906-6.0469 0-12.141 2.3438-16.734 7.0312v0.046875h-0.046875c-4.6875 4.6406-6.9844 10.734-6.9375 16.828zm247.87 732.05h698.95c6.1406 0 11.109 4.9688 11.109 11.109v151.18c0 6.1406-4.9688 11.109-11.109 11.109l-698.95-0.046875c-6.1406 0-11.109-4.9688-11.109-11.109l0.046876-151.18c0-6.1406 4.9688-11.062 11.062-11.062zm687.89 22.172h-676.78v129h676.78zm-944.95-22.172h151.22c6.1406 0 11.109 4.9688 11.109 11.109l-0.046874 151.18c0 6.1406-4.9688 11.109-11.109 11.109l-151.18-0.046875c-6.1406 0-11.109-4.9688-11.109-11.109l0.046875-151.18c0-6.1406 4.9219-11.062 11.062-11.062zm140.11 22.172h-129v129h129zm116.95-289.92h698.95c6.1406 0 11.109 4.9688 11.109 11.109v151.22c0 6.1406-4.9688 11.109-11.109 11.109l-698.95-0.046875c-6.1406 0-11.109-4.9688-11.109-11.109l0.046876-151.18c0-6.1406 4.9688-11.109 11.062-11.109zm687.89 22.219h-676.78v129h676.78zm-944.95-22.219h151.22c6.1406 0 11.109 4.9688 11.109 11.109v151.22c0 6.1406-4.9688 11.109-11.109 11.109l-151.22-0.046875c-6.1406 0-11.109-4.9688-11.109-11.109l0.046875-151.18c0-6.1406 4.9219-11.109 11.062-11.109zm140.11 22.219h-129v129h129zm216.32-561.61h599.58c6.1406 0 11.109 4.9688 11.109 11.109v151.22c0 6.1406-4.9688 11.109-11.109 11.109l-599.58-0.046875c-6.1406 0-11.109-4.9688-11.109-11.109v-151.22c0-6.0938 4.9688-11.062 11.109-11.062zm588.52 22.172h-577.45v129h577.4zm-687.89 249.52h698.95c6.1406 0 11.109 4.9688 11.109 11.109v151.22c0 6.1406-4.9688 11.109-11.109 11.109l-698.95-0.046875c-6.1406 0-11.109-4.9688-11.109-11.109l0.046876-151.18c0-6.1406 4.9688-11.109 11.062-11.109zm687.89 22.219h-676.78v129h676.78zm-804.84 0h-129v129h129z" fill-rule="evenodd"/>
</svg>
