<?xml version="1.0" encoding="UTF-8"?>
<svg width="1200pt" height="1200pt" version="1.1" viewBox="0 0 1200 1200" xmlns="http://www.w3.org/2000/svg">
 <path d="m867.52 600c0 70.969-28.219 138.98-78.375 189.14-50.156 50.156-118.17 78.375-189.14 78.375s-138.98-28.219-189.14-78.375c-50.156-50.156-78.375-118.17-78.375-189.14s28.219-138.98 78.375-189.14c50.156-50.156 118.17-78.375 189.14-78.375 70.922 0.14062 138.89 28.359 189 78.516 50.156 50.109 78.375 118.08 78.516 189zm-267.52 327c-9.2344-0.14062-18.141 3.4219-24.703 9.9375-6.6094 6.4688-10.312 15.328-10.312 24.562v103.5c0 19.312 15.703 35.016 35.016 35.016s35.016-15.703 35.016-35.016v-103.5c0-9.2344-3.7031-18.094-10.312-24.562-6.5625-6.5156-15.469-10.078-24.703-9.9375zm-280.5-96-72.984 72.984c-13.734 13.875-13.734 36.188 0 50.016 6.375 6.7031 15.234 10.5 24.469 10.5 9.4219 0 18.422-3.7969 25.031-10.5l72.984-72.984c13.828-13.828 13.828-36.188 0-50.016s-36.188-13.828-50.016 0zm-46.5-231c0.14062-9.2344-3.4219-18.141-9.9375-24.703-6.4688-6.6094-15.328-10.312-24.562-10.312h-103.5c-19.312 0-35.016 15.703-35.016 35.016s15.703 35.016 35.016 35.016h103.5c9.2344 0 18.094-3.7031 24.562-10.312 6.5156-6.5625 10.078-15.469 9.9375-24.703zm46.5-231c13.828 13.734 36.141 13.734 50.016 0 13.734-13.828 13.734-36.141 0-50.016l-73.5-72.469c-13.828-13.828-36.188-13.828-50.016 0-13.828 13.781-13.828 36.188 0 49.969zm280.5-96c9.2344 0.14062 18.141-3.4219 24.703-9.9375 6.6094-6.4688 10.312-15.328 10.312-24.562v-103.5c0-19.312-15.703-35.016-35.016-35.016s-35.016 15.703-35.016 35.016v103.5c0 9.2344 3.7031 18.094 10.312 24.562 6.5625 6.5156 15.469 10.078 24.703 9.9375zm255.98 105.98c9.1875-0.046875 17.953-3.6094 24.516-9.9844l72.984-72.984c13.828-13.828 13.828-36.188 0-50.016-13.781-13.828-36.188-13.828-49.969 0l-72.516 73.5c-13.734 13.828-13.734 36.141 0 50.016 6.8438 6.1406 15.797 9.5625 24.984 9.4688zm209.02 186h-102.98c-19.359 0-35.016 15.703-35.016 35.016s15.656 35.016 35.016 35.016h102.98c19.312 0 35.016-15.703 35.016-35.016s-15.703-35.016-35.016-35.016zm-184.5 266.02c-13.828-13.828-36.188-13.828-50.016 0-13.781 13.828-13.781 36.188 0 50.016l72.984 72.984h0.046875c6.5625 6.7031 15.562 10.5 24.984 10.5 9.2344 0 18.094-3.7969 24.516-10.5 13.734-13.828 13.734-36.141 0-50.016z"/>
</svg>
