<svg width="22" height="22" viewBox="0 0 22 22"  xmlns="http://www.w3.org/2000/svg">
<path d="M5.49968 1.9837H12.7712L18.1833 7.39581V18.3333C18.1833 18.7972 18.02 19.1907 17.6891 19.5218C17.358 19.8529 16.9637 20.0169 16.4997 20.0169H5.49968C5.03575 20.0168 4.64225 19.8528 4.3112 19.5218C3.98019 19.1907 3.81706 18.7973 3.81706 18.3333V3.66632C3.81714 3.20239 3.98016 2.80889 4.3112 2.47784C4.64225 2.1468 5.03575 1.98378 5.49968 1.9837ZM5.35027 18.4837H16.6501V8.09991H12.0671V3.51691H5.35027V18.4837ZM14.5163 14.8167V16.3499H7.48308V14.8167H14.5163ZM14.5163 11.1497V12.6829H7.48308V11.1497H14.5163Z"  stroke="#EFF6FF" stroke-width="0.3"/>
</svg>
