<?xml version="1.0" encoding="UTF-8"?>
<svg width="1200pt" height="1200pt" version="1.1" viewBox="0 0 1200 1200" xmlns="http://www.w3.org/2000/svg">
 <path d="m379.2 681.6c-36 0-64.801 28.801-64.801 64.801s28.801 64.801 64.801 64.801 64.801-28.801 64.801-64.801c0-36.004-28.801-64.801-64.801-64.801zm0 105.6c-22.801 0-40.801-18-40.801-40.801 0-22.801 18-40.801 40.801-40.801s40.801 18 40.801 40.801c0 22.801-18 40.801-40.801 40.801z"/>
 <path d="m811.2 681.6c-36 0-64.801 28.801-64.801 64.801s28.801 64.801 64.801 64.801 64.801-28.801 64.801-64.801c0-36.004-28.801-64.801-64.801-64.801zm0 105.6c-22.801 0-40.801-18-40.801-40.801 0-22.801 18-40.801 40.801-40.801s40.801 18 40.801 40.801c0 22.801-18 40.801-40.801 40.801z"/>
 <path d="m507.6 297.6h175.2c25.199 0 44.398-20.398 44.398-44.398s-20.398-44.398-44.398-44.398l-175.2-0.003907c-25.199 0-44.398 20.398-44.398 44.398-0.003906 24 19.195 44.402 44.398 44.402zm0-64.801h175.2c12 0 20.398 9.6016 20.398 20.398 0 10.801-9.6016 20.398-20.398 20.398l-175.2 0.003906c-12 0-20.398-9.6016-20.398-20.398-0.003906-10.805 8.3984-20.402 20.398-20.402z"/>
 <path d="m211.2 946.8 154.8 9.6016-80.398 102c-3.6016 4.8008-3.6016 13.199 2.3984 16.801 2.3984 1.1992 4.8008 2.3984 7.1992 2.3984 3.6016 0 7.1992-1.1992 9.6016-4.8008l10.801-14.398h1.1992 555.6 1.1992l10.801 14.398c2.3984 2.3984 6 4.8008 9.6016 4.8008 2.3984 0 4.8008-1.1992 7.1992-2.3984 4.8008-3.6016 6-12 2.3984-16.801l-80.398-102 157.2-9.6016c6 0 10.801-6 10.801-12v-61.199c0-7.1992-4.8008-12-12-12h-16.801v-544.8c0-2.3984 3.6016-45.602-38.398-91.199-57.602-62.398-169.2-94.801-330-94.801-162 0-272.4 31.199-330 94.801-40.801 44.398-38.398 88.801-38.398 90v546h-14.398c-7.1992 0-12 4.8008-12 12v61.199c1.1914 6 5.9922 10.801 11.992 12zm123.6 87.598 20.398-26.398h1.1992 478.8l20.398 25.199h-520.8zm460.8-75.598 20.398 26.398h-442.8l21.602-27.602 199.2 12h1.1992 1.1992l199.2-10.797v0zm-544.8-350.4v-225.6l337.2 0.003906v225.6zm361.2-225.6h327.6v225.6l-327.6-0.003906zm-328.8-141.6c36-39.602 120-86.398 312-86.398 190.8 0 274.8 46.801 312 86.398 34.801 37.199 32.398 72 32.398 74.398v44.398l-688.8 0.003906v-44.398c0-2.4023-2.4023-37.203 32.398-74.402zm-32.398 391.2h688.8v229.2l-688.8 0.003906zm-26.402 253.2h744v38.398l-373.2 22.801-370.8-22.801z"/>
</svg>
