<?xml version="1.0" encoding="UTF-8"?>
<svg id="Layer_1" xmlns="http://www.w3.org/2000/svg" version="1.1" viewBox="0 0 1200 1200">
  <!-- Generator: Adobe Illustrator 29.4.0, SVG Export Plug-In . SVG Version: 2.1.0 Build 152)  -->
  <defs>
    <style>
      .st0 {
        fill: none;
        stroke-linecap: round;
        stroke-linejoin: round;
        stroke-width: 47px;
      }

      .st0, .st1 {
        stroke: #364559;
      }

      .st1 {
        fill: #364559;
        stroke-miterlimit: 10;
        stroke-width: 25px;
      }
    </style>
  </defs>
  <path class="st1" d="M1110,132h-390c-49,0-92.6,23.6-120,60.1h-.1c-27.4-36.4-71-60.1-120-60.1H90c-16.6,0-30,13.5-30,30v780c0,16.6,13.5,30,30,30h390c32.4-1.5,87.1,21.2,90,50.7,1.6,16.4,13.4,30.3,29.9,30.3,16.6.1,28.7-13.4,30.1-30,3.4-37.5,65.3-52.3,90-51h390c16.6,0,30-13.5,30-30V162c0-16.5-13.5-30-30-30ZM74.6,154h388.8c53.6,0,127.2,14.5,127.2,98.8v749c-19.1-19-42.5-56.3-127.2-57.7H74.6V154ZM1122.6,944h-388.8c-84.7,1.4-108.1,38.8-127.2,57.7V252.7c0-77.5,73.6-98.8,127.2-98.8h388.8v790.1Z"/>
  <g>
    <line class="st0" x1="694.4" y1="406.7" x2="1023.5" y2="406.7"/>
    <line class="st0" x1="694.4" y1="600" x2="1023.5" y2="600"/>
    <line class="st0" x1="694.4" y1="793.3" x2="1023.5" y2="793.3"/>
    <line class="st0" x1="176.5" y1="406.7" x2="505.6" y2="406.7"/>
    <line class="st0" x1="176.5" y1="600" x2="505.6" y2="600"/>
    <line class="st0" x1="176.5" y1="793.3" x2="505.6" y2="793.3"/>
  </g>
</svg>