<svg width="25" height="25" viewBox="0 0 25 25"  xmlns="http://www.w3.org/2000/svg">
<path d="M10 2.5C11.021 2.5 11.9295 2.99221 12.5 3.75195C13.0705 2.99221 13.979 2.5 15 2.5H23.125C23.4702 2.5 23.75 2.77979 23.75 3.125V19.375C23.75 19.7202 23.4702 20 23.125 20H15C13.966 20 13.125 20.841 13.125 21.875C13.125 22.2202 12.8452 22.5 12.5 22.5C12.1548 22.5 11.875 22.2202 11.875 21.875C11.875 20.841 11.034 20 10 20H1.875C1.52979 20 1.25 19.7202 1.25 19.375V3.125C1.25 2.77979 1.52979 2.5 1.875 2.5H10ZM2.5 3.75V18.75H10C10.7043 18.75 11.3517 18.9881 11.875 19.3828V5.625C11.875 4.59098 11.034 3.75 10 3.75H2.5ZM15 3.75C13.966 3.75 13.125 4.59098 13.125 5.625V19.3828C13.6483 18.9881 14.2957 18.75 15 18.75H22.5V3.75H15Z" />
<path d="M10 2.5C11.021 2.5 11.9295 2.99221 12.5 3.75195C13.0705 2.99221 13.979 2.5 15 2.5H23.125C23.4702 2.5 23.75 2.77979 23.75 3.125V19.375C23.75 19.7202 23.4702 20 23.125 20H15C13.966 20 13.125 20.841 13.125 21.875C13.125 22.2202 12.8452 22.5 12.5 22.5C12.1548 22.5 11.875 22.2202 11.875 21.875C11.875 20.841 11.034 20 10 20H1.875C1.52979 20 1.25 19.7202 1.25 19.375V3.125C1.25 2.77979 1.52979 2.5 1.875 2.5H10ZM2.5 3.75V18.75H10C10.7043 18.75 11.3517 18.9881 11.875 19.3828V5.625C11.875 4.59098 11.034 3.75 10 3.75H2.5ZM15 3.75C13.966 3.75 13.125 4.59098 13.125 5.625V19.3828C13.6483 18.9881 14.2957 18.75 15 18.75H22.5V3.75H15Z" stroke="#EFF6FF"/>
<path d="M10 7.125C10.3452 7.125 10.625 7.40479 10.625 7.75C10.625 8.09521 10.3452 8.375 10 8.375H4.375C4.02979 8.375 3.75 8.09521 3.75 7.75C3.75 7.40479 4.02979 7.125 4.375 7.125H10Z" />
<path d="M10 7.125C10.3452 7.125 10.625 7.40479 10.625 7.75C10.625 8.09521 10.3452 8.375 10 8.375H4.375C4.02979 8.375 3.75 8.09521 3.75 7.75C3.75 7.40479 4.02979 7.125 4.375 7.125H10Z" stroke="#EFF6FF"/>
<path d="M10 10.625C10.3452 10.625 10.625 10.9048 10.625 11.25C10.625 11.5952 10.3452 11.875 10 11.875H4.375C4.02979 11.875 3.75 11.5952 3.75 11.25C3.75 10.9048 4.02979 10.625 4.375 10.625H10Z" />
<path d="M10 10.625C10.3452 10.625 10.625 10.9048 10.625 11.25C10.625 11.5952 10.3452 11.875 10 11.875H4.375C4.02979 11.875 3.75 11.5952 3.75 11.25C3.75 10.9048 4.02979 10.625 4.375 10.625H10Z" stroke="#EFF6FF"/>
<path d="M10 14.125C10.3452 14.125 10.625 14.4048 10.625 14.75C10.625 15.0952 10.3452 15.375 10 15.375H4.375C4.02979 15.375 3.75 15.0952 3.75 14.75C3.75 14.4048 4.02979 14.125 4.375 14.125H10Z" />
<path d="M10 14.125C10.3452 14.125 10.625 14.4048 10.625 14.75C10.625 15.0952 10.3452 15.375 10 15.375H4.375C4.02979 15.375 3.75 15.0952 3.75 14.75C3.75 14.4048 4.02979 14.125 4.375 14.125H10Z" stroke="#EFF6FF"/>
<path d="M20.625 7.125C20.9702 7.125 21.25 7.40479 21.25 7.75C21.25 8.09521 20.9702 8.375 20.625 8.375H15C14.6548 8.375 14.375 8.09521 14.375 7.75C14.375 7.40479 14.6548 7.125 15 7.125H20.625Z" />
<path d="M20.625 7.125C20.9702 7.125 21.25 7.40479 21.25 7.75C21.25 8.09521 20.9702 8.375 20.625 8.375H15C14.6548 8.375 14.375 8.09521 14.375 7.75C14.375 7.40479 14.6548 7.125 15 7.125H20.625Z" stroke="#EFF6FF"/>
<path d="M20.625 10.625C20.9702 10.625 21.25 10.9048 21.25 11.25C21.25 11.5952 20.9702 11.875 20.625 11.875H15C14.6548 11.875 14.375 11.5952 14.375 11.25C14.375 10.9048 14.6548 10.625 15 10.625H20.625Z" />
<path d="M20.625 10.625C20.9702 10.625 21.25 10.9048 21.25 11.25C21.25 11.5952 20.9702 11.875 20.625 11.875H15C14.6548 11.875 14.375 11.5952 14.375 11.25C14.375 10.9048 14.6548 10.625 15 10.625H20.625Z" stroke="#EFF6FF"/>
<path d="M20.625 14.125C20.9702 14.125 21.25 14.4048 21.25 14.75C21.25 15.0952 20.9702 15.375 20.625 15.375H15C14.6548 15.375 14.375 15.0952 14.375 14.75C14.375 14.4048 14.6548 14.125 15 14.125H20.625Z" />
<path d="M20.625 14.125C20.9702 14.125 21.25 14.4048 21.25 14.75C21.25 15.0952 20.9702 15.375 20.625 15.375H15C14.6548 15.375 14.375 15.0952 14.375 14.75C14.375 14.4048 14.6548 14.125 15 14.125H20.625Z" stroke="#EFF6FF"/>
</svg>
