<?xml version="1.0" encoding="UTF-8"?>
<svg width="1200pt" height="1200pt" version="1.1" viewBox="0 0 1200 1200" xmlns="http://www.w3.org/2000/svg">
 <path d="m1000.2 349.73v314.4c0 10.719-5.7188 20.621-15 25.98s-20.719 5.3594-30 0-15-15.262-15-25.98v-314.4c-0.023438-23.863-9.5156-46.738-26.387-63.613-16.875-16.871-39.75-26.363-63.613-26.387h-500.4c-23.863 0.023437-46.738 9.5156-63.613 26.387-16.871 16.875-26.363 39.75-26.387 63.613v484.8l326.79-262.94c26.625-21.336 59.727-32.957 93.844-32.949 34.121 0.011718 67.219 11.656 93.828 33.008l32.867 26.281c8.375 6.6953 12.535 17.355 10.922 27.953-1.6133 10.602-8.7617 19.535-18.75 23.438s-21.297 2.1797-29.672-4.5195l-33-26.398v-0.003906c-15.836-13-35.684-20.109-56.172-20.129-20.488-0.015625-40.352 7.0664-56.207 20.039l-349.54 281.22v0.003906c16.605 25.297 44.82 40.543 75.082 40.578h325.8c10.719 0 20.621 5.7148 25.98 15 5.3594 9.2812 5.3594 20.715 0 30-5.3594 9.2812-15.262 15-25.98 15h-325.79c-30.422-0.078126-60.098-9.4102-85.086-26.754-24.988-17.348-44.105-41.891-54.812-70.363-0.91016-2.0625-1.582-4.2266-2.0039-6.4453-5.1562-14.938-7.8867-30.605-8.0938-46.41v-500.4c0.042968-39.77 15.859-77.898 43.98-106.02 28.121-28.121 66.25-43.938 106.02-43.98h500.4c39.766 0.042968 77.891 15.859 106.01 43.977 28.121 28.121 43.938 66.246 43.98 106.01zm-78.598 392.43c-13.738-15.82-32.934-25.875-53.762-28.152-7.6836-3.5195-16.52-3.5195-24.203 0-20.844 2.2656-40.066 12.32-53.816 28.152l-71.605 85.633h0.003906c-6.8789 8.2266-8.8438 19.496-5.1562 29.566 3.6875 10.07 12.465 17.406 23.027 19.246 10.562 1.8438 21.309-2.0898 28.184-10.316l61.465-73.508v177.48c0 10.719 5.7188 20.621 15 25.98s20.719 5.3594 30 0 15-15.262 15-25.98v-177.41l61.402 73.441c6.8789 8.2266 17.621 12.16 28.184 10.316 10.562-1.8398 19.344-9.1758 23.027-19.246 3.6875-10.07 1.7227-21.34-5.1523-29.566zm-481.09-386.84c25.605 0.003906 50.16 10.18 68.266 28.285 18.105 18.109 28.277 42.668 28.273 68.273 0 25.605-10.172 50.16-28.277 68.27-18.105 18.105-42.664 28.277-68.27 28.277s-50.164-10.168-68.27-28.273c-18.109-18.105-28.285-42.66-28.285-68.266 0.027344-25.602 10.211-50.148 28.312-68.25 18.105-18.102 42.648-28.285 68.25-28.316zm0 60c-9.6914 0.003906-18.988 3.8594-25.84 10.715-6.8516 6.8555-10.699 16.148-10.699 25.844 0 9.6914 3.8516 18.988 10.707 25.84 6.8516 6.8555 16.148 10.707 25.84 10.707s18.988-3.8477 25.844-10.699c6.8555-6.8516 10.711-16.148 10.711-25.84-0.007812-9.6953-3.8633-18.988-10.719-25.844-6.8555-6.8555-16.148-10.711-25.844-10.723z"/>
</svg>
