<?xml version="1.0" encoding="UTF-8"?>
<svg width="1200pt" height="1200pt" version="1.1" viewBox="0 0 1200 1200" xmlns="http://www.w3.org/2000/svg">
 <path d="m1061.3 468.94h-22.219v-303.56c0-9.9375-8.0625-18-18-18h-850.45c-9.9375 0-18 8.0625-18 18v136.92h-13.922c-38.062 0-69 30.938-69 69v612.37c0 38.062 30.938 69 69 69h922.55c38.062 0 69-30.938 69-69v-445.78c0-37.922-30.938-68.859-69-68.859zm-325.22 433.69c0 9.8438-8.0625 18-18 18h-244.31c-9.9375 0-18-8.1562-18-18v-72.938c0-9.9375 8.0625-18 18-18h244.31c9.9375 0 18 8.0625 18 18zm-190.08-340.08h-33.375l60.375-70.781 0.23437-0.23438 22.688-26.625 83.156 97.688h-33.234c-9.9375 0-18 8.0625-18 18v156.71h-63.844v-156.71c0-9.9375-8.1562-18-18-18zm457.08-93.609h-356.39l-37.078-43.547c-6.8438-8.0625-20.625-8.0625-27.375 0l-22.688 26.625-116.39-143.16c-3.375-4.2188-8.5312-6.6094-13.922-6.6094l-240.61 0.046875v-118.92h814.45v285.61z"/>
</svg>
