<svg width="10" height="10" viewBox="0 0 10 10" fill="none" xmlns="http://www.w3.org/2000/svg">
<g clip-path="url(#clip0_2716_2406)">
<mask id="mask0_2716_2406" style="mask-type:luminance" maskUnits="userSpaceOnUse" x="0" y="0" width="10" height="10">
<path d="M0 0H10V10H0V0Z" fill="white"/>
</mask>
<g mask="url(#mask0_2716_2406)">
<path fill-rule="evenodd" clip-rule="evenodd" d="M4.64771 0.0445068L1.18696 0.933042C0.982804 0.98546 0.839966 1.16996 0.839966 1.38176V5.13318C0.839966 6.93606 2.18083 9.08768 4.73561 9.9563C4.90699 10.0146 5.09295 10.0146 5.26433 9.9563C7.81911 9.08768 9.15997 6.93606 9.15997 5.13318V1.38213C9.15997 1.17032 9.01713 0.98546 8.81297 0.933042L5.35223 0.0445068C5.12111 -0.0148356 4.87883 -0.0148356 4.64771 0.0445068ZM3.62435 4.68628C3.41345 4.4754 3.07155 4.4754 2.86067 4.68628C2.64979 4.89718 2.64979 5.23908 2.86067 5.44996L4.19003 6.77932C4.40091 6.9902 4.74281 6.9902 4.95371 6.77932L7.49929 4.23374C7.71017 4.02286 7.71017 3.68094 7.49929 3.47006C7.28841 3.25918 6.94649 3.25918 6.73561 3.47006L4.57187 5.63382L3.62435 4.68628Z" fill="#00AC56"/>
</g>
</g>
<defs>
<clipPath id="clip0_2716_2406">
<rect width="10" height="10" fill="white"/>
</clipPath>
</defs>
</svg>
