<svg width="20" height="20" viewBox="0 0 20 20"  xmlns="http://www.w3.org/2000/svg">
<g clip-path="url(#clip0_2018_31)">
<path d="M12.9453 15.1352C14.0687 14.8056 15.2474 15.453 15.5771 16.5766L15.5879 16.6127H18.0186C18.3347 16.6127 18.5938 16.8718 18.5938 17.1879C18.5935 17.5039 18.3346 17.7621 18.0186 17.7621H15.5879L15.5771 17.7983C15.3824 18.4511 14.8924 18.9694 14.2637 19.1977L14.1357 19.2397C13.0124 19.5692 11.8336 18.9218 11.5039 17.7983L11.4941 17.7621H1.25C0.934 17.7621 0.675028 17.5039 0.674805 17.1879C0.674805 16.8718 0.933864 16.6127 1.25 16.6127H11.4941L11.5039 16.5766C11.6928 15.9241 12.1825 15.4055 12.8164 15.1772L12.9453 15.1352ZM13.5439 16.1996C12.9976 16.1996 12.5566 16.6416 12.5566 17.1879C12.5569 17.7341 12.9977 18.1752 13.5439 18.1752C14.0901 18.1751 14.531 17.734 14.5312 17.1879C14.5312 16.6416 14.0902 16.1998 13.5439 16.1996Z"  stroke="#EFF6FF" stroke-width="0.1"/>
<path d="M2.58789 0.674805H17.4121C18.4657 0.674805 19.3252 1.53425 19.3252 2.58789V12.4121C19.3252 13.4657 18.4657 14.3252 17.4121 14.3252H2.58789C1.53425 14.3252 0.674805 13.4657 0.674805 12.4121V2.58789C0.674805 1.53425 1.53425 0.674805 2.58789 0.674805ZM2.58789 1.8252C2.16653 1.8252 1.8252 2.16653 1.8252 2.58789V12.4121C1.8252 12.8335 2.16653 13.1748 2.58789 13.1748H17.4121C17.8335 13.1748 18.1748 12.8335 18.1748 12.4121V2.58789C18.1748 2.16653 17.8335 1.8252 17.4121 1.8252H2.58789Z"  stroke="#EFF6FF" stroke-width="0.1"/>
<path d="M7.63672 4.06982C7.78246 3.83395 8.07333 3.74259 8.3252 3.83545L8.42969 3.88623L13.4297 7.01123C13.4856 7.04564 13.5356 7.08976 13.5762 7.14111L13.6133 7.19482C13.7594 7.4316 13.7161 7.73402 13.5225 7.91748L13.4297 7.98877L8.42969 11.1138C8.33791 11.1711 8.2347 11.1997 8.125 11.1997C7.80886 11.1997 7.5498 10.9406 7.5498 10.6245V4.37451C7.54987 4.29237 7.56638 4.2139 7.59863 4.14111L7.63574 4.06982H7.63672ZM8.7002 9.59033L8.77637 9.54248L11.9707 7.54248L12.0381 7.49951L11.9707 7.45752L8.77637 5.45752L8.7002 5.40967V9.59033Z"  stroke="#EFF6FF" stroke-width="0.1"/>
</g>
<defs>
<clipPath id="clip0_2018_31">
<rect width="20" height="20" />
</clipPath>
</defs>
</svg>
