<?xml version="1.0" encoding="UTF-8"?>
<svg width="1200pt" height="1200pt" version="1.1" viewBox="0 0 1200 1200" xmlns="http://www.w3.org/2000/svg">
 <path d="m756.14 562.78c-23.531-19.781-58.922-17.062-78.844 6.375l-16.453 19.312c-0.60938 0.60938-1.4531 0.84375-2.2969 0.60938-21.703-7.3125-62.156-27.844-88.781-83.297-0.23438-0.60938-0.14062-1.3125 0.375-1.9219l20.531-23.766c19.781-22.922 17.625-58.078-4.9219-78.234l-45.844-41.391c-11.156-10.078-25.781-15.234-40.688-14.297-15 0.84375-28.781 7.5469-38.859 18.844l-27.609 31.219c-12.375 13.922-19.781 31.922-21.141 50.531-2.7656 39.844 2.5312 141.47 110.16 225.94 9.1406 8.1562 86.766 75 173.86 75 17.062 0 34.547-2.5312 51.844-8.625 13.922-4.9219 26.531-13.453 36.234-24.703l27-31.312c9.8438-11.391 14.625-26.062 13.453-41.062-1.2188-15-8.1562-28.688-19.688-38.391zm18.234 89.062-27 31.312c-4.2188 4.9219-9.7031 8.625-15.703 10.781-82.219 28.781-177.37-56.391-178.31-57.141l-1.3594-1.2656c-86.859-67.922-95.297-145.22-92.531-185.39 0.60938-8.1562 3.8438-15.938 9.2344-21.938l27.609-31.219c1.9219-2.1562 4.3125-2.625 5.625-2.7656h0.46875c1.3125 0 3.4688 0.375 5.3906 2.0625l45.844 41.391c3.2344 2.8594 3.4688 7.9219 0.70312 11.297l-20.531 23.766c-12.938 15.141-15.938 36.375-7.3125 54.141 34.219 71.297 87.844 98.156 116.77 108 19.453 6.6094 40.781 0.70312 54.141-14.859l16.453-19.312c2.8594-3.375 7.9219-3.7031 11.297-0.9375l48.375 40.922c2.2969 1.9219 2.7656 4.3125 2.8594 5.5312 0 0.9375-0.09375 3.3281-2.0156 5.625z"/>
 <path d="m615.47 156.94c-104.3 0-202.31 40.688-276.14 114.38-129.37 129.37-151.22 331.45-53.859 484.92l-73.547 227.29 216.94-93c151.45 82.547 340.08 55.781 462.84-66.938 152.29-152.29 152.29-399.94 0-552.24-73.781-73.828-171.84-114.42-276.24-114.42zm242.29 632.68c-110.16 110.16-281.06 132.24-415.22 53.531l-10.547-6.2812-141.84 60.844 48.141-148.78-6.6094-9.7031c-91.781-135.47-74.297-318 41.625-433.92 64.688-64.688 150.71-100.31 242.16-100.31s177.47 35.625 242.16 100.31c133.6 133.4 133.6 350.76 0.14062 484.31z"/>
</svg>
